<?xml version="1.0" encoding="utf-8"?>
<!-- Generator: Adobe Illustrator 22.0.1, SVG Export Plug-In . SVG Version: 6.00 Build 0)  -->
<svg version="1.1" id="Layer_1" xmlns="http://www.w3.org/2000/svg" xmlns:xlink="http://www.w3.org/1999/xlink" x="0px" y="0px"
	 viewBox="0 0 235.9 84.9" style="enable-background:new 0 0 235.9 84.9;" xml:space="preserve">
<style type="text/css">
	.st0{fill-rule:evenodd;clip-rule:evenodd;fill:#0aa85f;}
	.st1{fill:#0aa85f;}
</style>
<g>
	<path class="st0" d="M46.3,32l7.1-0.4C65.9,31,66.1,21.5,66.1,21.4V-0.2l-1-0.1c0,0.1-1.9,9.7-10.9,10.1l-8.2,0.4
		c-6.9,0.3-10.4,4.6-12.1,8.6c-1.7,4-1.7,8-1.7,8v15.2c-0.2-0.7-0.4-1.3-0.7-1.9c-1.7-4.1-5.2-8.3-12.1-8.6l-8.2-0.4
		C6,30.9,2.6,27.2,1,22.5C0.7,21.6,0.5,21,0.5,21l-1,0.1v21.6c0,0,0,0.6,0.2,1.5c1.4,5.8,6.7,8.4,12.5,8.7l7.1,0.4
		c10.5,0.6,12.8,12.2,13,14.1v17.1h1.1c0-1.2,2.1-13.7,13-14.3l7.1-0.4c12.4-0.7,12.7-10.1,12.7-10.2V38.1l-1-0.1
		c0,0-1.9,9.7-10.9,10.1l-8.2,0.4C39.2,48.8,35.7,53,34,57.1c-0.3,0.6-0.5,1.2-0.7,1.8l0-12.7C33.2,45.3,36.2,32,46.3,32 M31.3,58.7
		c-2.4-3.9-4.9-6.9-12.3-7.3l-6.7-0.3c-5-0.3-9.7-2.3-10.9-7.1c-0.2-0.7-0.2-1.2-0.2-1.2V27.1c1.9,4,5,5.5,10.2,6.2l7.7,0.3
		c12,0.6,12.1,14,12.1,14.1V58.7z M34.1,64.7c0-0.1,0.1-13.5,12.1-14.1l7.7-0.3c5.3-0.7,8.3-2.2,10.2-6.2v15.8c0,0,0,0.5-0.2,1.2
		c-1.2,4.9-5.9,6.9-10.9,7.1l-6.7,0.3c-7.4,0.4-9.9,3.4-12.3,7.3V64.7z M34.1,37.4v-11c0-0.1,0.1-13.5,12.1-14.1l7.7-0.3
		c5.3-0.7,8.3-2.2,10.2-6.2v15.8c0,0,0,0.5-0.2,1.2c-1.2,4.9-5.9,6.8-10.9,7.1l-6.7,0.3C39,30.5,36.5,33.5,34.1,37.4"/>
</g>
<g>
	<g>
		<g>
			<path class="st1" d="M90.8,50.7c0.9-1,1.8-2.2,2.5-3.7c0.7-1.5,1.2-2.9,1.4-4.3c0.8,0.3,1.6,0.6,2.5,0.8c-0.6,0.6-1.3,1.5-2,2.8
				h4.8v-4.7c0-0.1,0-0.3,0-0.6c0-0.1,0-0.3,0-0.5c0.8,0.3,1.5,0.4,2.2,0.4c-0.3,0.5-0.4,1-0.4,1.5v3.9h5.4c0.3,0,0.7,0,1.2,0l0.7,0
				c0,0.4,0,0.7,0,0.9c0,0.3,0,0.6,0,1c-1,0-1.6-0.1-2-0.1h-5.2v3.5h4.1c0.3,0,0.8,0,1.3,0l0.8,0c0,0.4,0,0.7,0,0.9c0,0.2,0,0.6,0,1
				l-0.8,0c-0.5,0-0.9,0-1.1,0h-4.2v4.7h6.6c0.3,0,0.9,0,1.7-0.1c0,0.4,0,0.8,0,1c0,0.2,0,0.5,0.1,0.9l-0.9,0l-1.2,0H93.2l-1.4,0
				l-1.1,0c0-0.4,0-0.7,0-1c0-0.2,0-0.5,0-0.9c0.1,0,0.4,0,0.9,0c0.6,0,1,0.1,1.2,0.1h7.1v-4.7h-3.8l-1.3,0l-0.9,0
				c0-0.4,0-0.7,0-0.9c0-0.3,0-0.6,0-1l1,0l1.1,0h4v-3.5h-5.4c-0.7,1-1.3,2.1-1.8,3.2C92.1,51.1,91.4,50.8,90.8,50.7z"/>
			<path class="st1" d="M111.8,53.3c1.2-0.1,2.6-0.5,4.4-1.1v-4.7h-2c-0.3,1.3-0.5,2.5-0.5,3.6c-0.8-0.3-1.5-0.4-2.1-0.4
				c0.9-2.2,1.4-4.5,1.4-7.1c0.7,0.3,1.5,0.4,2.3,0.5c-0.3,0.3-0.6,0.8-0.7,1.3l-0.2,0.9h1.7v-3.9c0-0.4,0-0.8-0.1-1.3
				c0.6,0.1,1,0.2,1.3,0.2c0.2,0,0.4,0,0.7,0c-0.2,0.2-0.3,0.7-0.3,1.4V46h0.7c0.1,0,0.3,0,0.6-0.1c0.1,0,0.3,0,0.5-0.1
				c-0.1,0.4-0.1,0.7-0.1,0.9c0,0.2,0,0.4,0.1,0.7c-0.2,0-0.4,0-0.5-0.1c-0.2,0-0.3,0-0.4,0h-0.7v4.2c0.8-0.4,1.6-0.7,2.2-1.1
				c0,0.5,0.1,1.1,0.3,1.8c-0.8,0.2-1.6,0.5-2.5,0.9v5.6c0,0.3,0,1,0.1,2.1c-0.4-0.1-0.7-0.1-0.9-0.1c-0.2,0-0.5,0-0.9,0.1
				c0.1-0.8,0.1-1.4,0.1-2v-5.1c-1.5,0.6-2.6,1.1-3.5,1.7C112.5,54.7,112.2,54,111.8,53.3z M118.6,48.8c0.8-0.9,1.5-2.1,2.3-3.7
				c0.8-1.6,1.2-3,1.4-4.1c0.9,0.4,1.7,0.7,2.6,0.9c-0.6,0.4-1,0.8-1.3,1.3l-0.6,1.2c-0.1,0.1-0.2,0.4-0.4,0.7h5.7
				c1.1,0,1.9-0.1,2.6-0.2c-0.1,0.6-0.2,1.1-0.2,1.6l-0.6,7.6c-0.2,2.6-0.5,4.3-0.9,4.9c-0.4,0.6-1.5,1-3.2,1.2l-0.3,0
				c0-0.8-0.3-1.5-1-2.2c0.6,0.1,1.2,0.1,1.6,0.1c0.8,0,1.3-0.3,1.4-0.8c0.5-1.7,1-5.1,1.3-10.3l0-0.4h-1.2l-0.3,1.8
				c-0.5,3.2-1.3,5.7-2.2,7.4c-1,1.8-2.4,3.2-4.3,4.3c-0.6-0.5-1.3-0.9-2-1.2c4-1.4,6.4-5.5,7.1-12.3h-1.4l-0.1,0.6
				c-0.4,2.1-0.8,3.7-1.3,4.8c-0.5,1.2-1.4,2.5-2.7,4c-0.6-0.4-1.2-0.7-1.9-0.9c1.2-0.9,2.2-2,2.8-3.3c0.6-1.3,1.2-3,1.6-5.3H122
				c-0.6,1.3-1.2,2.4-1.7,3.1C119.8,49.3,119.2,49,118.6,48.8z"/>
			<path class="st1" d="M133.5,58.8c1.2,0.1,2.1,0.2,2.7,0.2c2.8,0,5.4-0.4,7.7-1.3c-0.8-1-1.7-1.9-2.7-2.5c0.6-0.3,1.1-0.7,1.6-1.2
				l1.3,1.3l1.4,1.5c1.4-0.9,2.4-2.1,3.1-3.6H142c-0.8,1.1-2.6,2.4-5.4,3.9c-0.4-0.6-1-1.1-1.9-1.5c3.2-0.9,5.8-2.6,7.8-5.3
				c-1.6,0.7-3.5,1.5-5.8,2.2c-0.3,0.1-0.8,0.3-1.4,0.5c-0.1-0.6-0.7-1.2-1.6-1.8c0.2,0,0.4,0,0.5,0c1.9,0,4.4-0.6,7.5-1.9
				c-0.7-0.8-1.5-1.6-2.4-2.2c0.5-0.3,1-0.6,1.4-1.1c0.7,0.6,1.5,1.5,2.3,2.6c1.4-0.8,2.3-1.4,2.7-1.8c0.4-0.4,0.9-0.9,1.5-1.7
				l-7.7,0.2c-1,1.1-2.1,2.4-3.4,3.8c-0.6-0.5-1.3-0.9-2-1.3c1.2-0.6,2.3-1.5,3.4-2.7c1.1-1.3,1.9-2.6,2.5-4.1
				c0.8,0.5,1.7,0.8,2.6,0.9c-0.6,0.5-1.3,1.1-1.9,1.9l7.2-0.2c0.3,0,0.8,0,1.6-0.1l1.2-0.1c-0.9,1.7-1.9,3-3,3.9
				c-1.1,0.9-2.6,1.9-4.7,2.9c0.7,0.3,1.4,0.5,2.2,0.5c-0.5,0.2-1,0.6-1.5,0.9h5.5c0.1,0,0.5,0,1.2-0.1c0.4,0,0.8,0,1.2,0
				c-1,2.2-1.8,3.8-2.4,4.6c-0.6,0.9-1.5,1.6-2.7,2.3c-2.3,1.3-6.3,2.1-11.8,2.5C134.5,60,134.1,59.3,133.5,58.8z"/>
			<path class="st1" d="M153.6,54.2c1.5-1.7,2.7-4.1,3.5-7.2h-1.5c-0.2,0-0.5,0-0.8,0l-0.6,0c0.1-0.4,0.1-0.7,0.1-1
				c0-0.2,0-0.5-0.1-0.9c0.3,0,0.5,0,0.6,0c0.3,0,0.5,0,0.7,0h1.7v-3.2c0-0.1,0-0.3,0-0.7c0-0.1,0-0.3,0-0.6
				c0.7,0.1,1.4,0.2,2.1,0.2c-0.2,0.4-0.3,0.7-0.3,1v3.1h1.3c0.3,0,0.7,0,1.1-0.1c0,0.4-0.1,0.7-0.1,1c0,0.2,0,0.5,0.1,0.9
				c-0.3,0-0.5,0-0.6,0c-0.2,0-0.4,0-0.5,0h-1.3v3.5c0.4-0.2,0.8-0.5,1.1-0.9l0.3,0.4L161,51c0.4,0.6,0.8,1,1,1.4
				c-0.6,0.2-1.1,0.6-1.6,1c-0.4-1-0.9-1.8-1.5-2.5V59c0,0.4,0,1.1,0.1,2c-0.5-0.1-0.8-0.1-1-0.1c-0.2,0-0.5,0-0.8,0.1
				c0-0.1,0-0.4,0-0.9c0-0.5,0-0.8,0-0.9v-8.5c-0.8,2.2-1.6,4.1-2.6,5.7C154.4,55.6,154.1,54.8,153.6,54.2z M160.7,55.8
				c0-0.4,0.1-0.7,0.1-0.9c0-0.2,0-0.6-0.1-1c0.6,0.1,1.2,0.1,1.8,0.1h3.5v-3.3h-2.5c-0.5,0-1,0-1.5,0.1c0-0.4,0.1-0.7,0.1-0.9
				c0-0.2,0-0.5-0.1-0.9c0.5,0.1,1,0.1,1.6,0.1h2.5v-2.9h-2.7c-0.3,0-0.9,0.1-1.7,0.2c0.1-0.5,0.1-0.8,0.1-1c0-0.2,0-0.5-0.1-0.8
				c0.5,0.1,1,0.1,1.5,0.1h4.1c0.8-1.5,1.3-2.7,1.6-3.8c0.6,0.4,1.3,0.6,2.1,0.8c-0.7,0.6-1.3,1.4-1.8,2.3l-0.4,0.6h2.1
				c0.4,0,0.9,0,1.5-0.1c0,0.4-0.1,0.7-0.1,0.9c0,0.2,0,0.5,0.1,0.9l-0.7,0c-0.4,0-0.7,0-0.9,0h-3.2v2.9h2.7c0.5,0,1,0,1.6-0.1
				c0,0.4-0.1,0.6-0.1,0.8c0,0.2,0,0.5,0.1,0.9c-0.4,0-0.7,0-0.9-0.1c-0.3,0-0.5,0-0.6,0h-2.8V54h3.6c0.5,0,1.1,0,1.6-0.1
				c-0.1,0.4-0.1,0.7-0.1,1c0,0.2,0,0.5,0.1,0.9c-0.5-0.1-1.1-0.1-1.8-0.1h-3.4v3.4c0,0.6,0,1.2,0.1,1.8c-0.4-0.1-0.7-0.1-0.9-0.1
				c-0.2,0-0.5,0-0.9,0.1c0-0.3,0-0.5,0.1-0.7c0-0.3,0-0.6,0-0.7v-3.8h-3.6C161.9,55.7,161.4,55.7,160.7,55.8z M163,41.6
				c0.6,0,1.2-0.2,1.7-0.5c0.4,1.1,0.8,2,1.3,2.7c-0.6,0-1.2,0.2-1.8,0.4C163.9,43.2,163.5,42.3,163,41.6z"/>
			<path class="st1" d="M174.6,51.6c0.4-1.1,0.7-2.8,0.7-4.9c0-0.2,0-0.6-0.1-1.2c0.9,0.1,1.6,0.2,2,0.2c-0.2,0.2-0.2,0.6-0.3,1
				l-0.2,2.4c-0.1,1.4-0.2,2.3-0.3,2.8C175.8,51.7,175.2,51.7,174.6,51.6z M177.8,60.9c0.1-0.5,0.1-1.1,0.1-1.9V43
				c0-0.9,0-1.6-0.1-2.2c0.8,0.2,1.5,0.3,2.3,0.3c-0.4,0.4-0.6,1-0.6,1.6v3c0.5-0.1,0.9-0.3,1.3-0.6c0.4,1,0.9,1.9,1.5,2.8
				c0.5-1.6,0.9-3.4,1.1-5.5c0.7,0.2,1.4,0.4,2.2,0.5c-0.3,0.5-0.7,1.4-1.1,2.9h2.6v-4c0-0.4,0-0.8-0.1-1.1c0.8,0.2,1.5,0.3,2.2,0.3
				c-0.3,0.3-0.5,0.7-0.5,1.3v3.5h2.4c0.7,0,1.5,0,2.3-0.1c0,0.4-0.1,0.6-0.1,0.8c0,0.2,0,0.6,0.1,1c-0.9-0.1-1.7-0.1-2.3-0.1h-2.4
				v4.3h2.6c0.1,0,0.4,0,0.9-0.1c0.3,0,0.5,0,0.7,0c0,0.4-0.1,0.7-0.1,0.8c0,0.2,0,0.5,0.1,0.9c-0.4,0-0.7,0-0.7,0l-0.8,0h-2.6v4.9
				h3.5c0.6,0,1.2,0,1.7-0.1c0,0.4,0,0.7,0,0.9c0,0.2,0,0.5,0,0.9c-0.5,0-1.1-0.1-1.9-0.1h-8.8c-0.5,0-1.2,0-2,0.1
				c0.1-0.4,0.1-0.7,0.1-0.9c0-0.2,0-0.5-0.1-0.8c0.5,0,0.9,0.1,1,0.1h1h3.7v-4.9h-1.9c-0.1,0-0.6,0-1.3,0.1c-0.5,0-0.9,0-1,0
				c0-0.4,0-0.7,0-1c0-0.2,0-0.5,0-0.9c1,0.1,1.8,0.1,2.4,0.1h1.9v-4.2h-2.9c-0.3,1-0.6,2-0.8,2.9c-0.6-0.2-1.2-0.3-1.9-0.4
				c0.3-0.5,0.5-1.1,0.8-1.8c-0.6,0.1-1.1,0.3-1.6,0.7c-0.3-0.9-0.7-1.8-1.2-2.7v12.7c0,0.6,0,1.3,0.1,2.1c-0.4,0-0.7,0-0.8,0
				C178.6,60.9,178.2,60.9,177.8,60.9z"/>
			<path class="st1" d="M195.7,51.1c2.6-1.7,4.7-5,6.3-9.7c0.8,0.4,1.6,0.7,2.4,0.9c-0.4,0.3-0.7,0.7-1,1.2l-1.5,2.9
				c-0.8,1.4-2.1,3.3-3.9,5.6l-0.2,0.2C197.4,51.7,196.7,51.3,195.7,51.1z M198.6,60.1c-0.2-0.8-0.3-1.6-0.5-2.3
				c1-0.5,2.1-1.6,3.2-3.4c1.1-1.8,2-3.8,2.7-6.1c0.8,0.5,1.6,0.9,2.5,1.2c-0.5,0.3-1.1,1.1-1.8,2.3c-1.6,2.8-2.9,4.8-3.9,5.9
				l8.2-0.5c-0.2-0.3-0.3-0.6-0.4-0.8c-0.7-1.2-1.2-2.1-1.5-2.5c0.6-0.2,1.2-0.5,1.7-0.9c0.3,0.5,0.4,0.8,0.5,0.9l1.5,2.7
				c0.9,1.6,1.6,2.7,2,3.3c-0.7,0.2-1.4,0.6-2,0.9c-0.2-0.6-0.5-1.3-0.9-2.1c-0.6,0.1-1,0.1-1.2,0.1l-2.6,0.2l-3.8,0.4
				C200.5,59.7,199.4,59.9,198.6,60.1z M206.3,41.4c0.5,0.1,0.9,0.1,1.2,0.1c0.2,0,0.6,0,1-0.1c0.1,1.5,0.7,3,1.8,4.6
				c1.4,2,3,3.5,5,4.4c-0.9,0.4-1.6,1-2.1,1.6c-1.5-1.1-2.9-2.5-4.1-4.5C207.8,45.7,206.9,43.6,206.3,41.4z"/>
			<path class="st1" d="M216.7,47.6c1.4-1.3,2.6-3.6,3.7-6.7c0.7,0.5,1.5,0.9,2.4,1.1c-0.6,0.5-1.2,1.2-1.7,2.1
				c-0.4,0.8-1.2,1.9-2.3,3.6c1.2-0.2,2.3-0.3,3.3-0.4c0.5-0.9,1-1.9,1.4-2.9c0.6,0.5,1.3,1,2.1,1.4c-0.6,0.5-1.4,1.3-2.2,2.5
				l-2.3,3.2c-0.2,0.3-0.6,0.9-1.1,1.6c1.8-0.2,3.6-0.5,5.3-0.7c-0.3,0.7-0.4,1.3-0.4,1.9l-0.7,0c-1.9,0-4,0.3-6.3,0.9
				c0-0.7-0.2-1.5-0.5-2.2c0.9-0.4,1.6-1.1,2.3-2l1-1.4c0.1-0.1,0.2-0.4,0.5-0.8c-1.4,0.2-2.8,0.5-4,0.7
				C217.1,48.8,216.9,48.2,216.7,47.6z M217.6,59.9c-0.2-0.9-0.4-1.7-0.8-2.5c2.5-0.1,5.4-0.6,8.8-1.5c-0.2,0.5-0.4,1-0.4,1.4
				c0,0.2,0,0.5,0,0.8C222.6,58.4,220.1,59,217.6,59.9z M224.3,50.1c2-2.4,3.4-5.4,4.3-9.2c0.7,0.4,1.5,0.6,2.5,0.8
				c-0.5,0.5-0.9,1.1-1.3,1.9c-0.1,0.3-0.3,0.6-0.5,1.1h4.8c0.2,0,0.5,0,0.8,0l0.5,0c0,0.3,0,0.6,0,0.8c0,0.4,0,0.6,0,0.7L235,56.9
				c0,1.5-0.3,2.5-0.9,3c-0.6,0.5-1.9,0.8-3.9,0.9c-0.2-0.9-0.5-1.7-1-2.5c0.9,0.2,1.7,0.3,2.3,0.3c0.7,0,1.1-0.2,1.4-0.6
				c0.3-0.4,0.4-1.1,0.4-2.1l0.2-9.4h-5c-0.8,1.7-1.6,3.2-2.3,4.4C225.7,50.5,225,50.3,224.3,50.1z M227.7,50.1
				c0.6-0.2,1.2-0.4,1.7-0.7c0.6,1.3,1.3,2.7,2.1,4.1c-0.7,0.2-1.3,0.5-1.9,0.8C229.2,53.1,228.6,51.7,227.7,50.1z"/>
		</g>
	</g>
</g>
</svg>
