<?xml version="1.0" encoding="utf-8"?>
<!-- Generator: Adobe Illustrator 22.0.1, SVG Export Plug-In . SVG Version: 6.00 Build 0)  -->
<svg version="1.1" id="Layer_1" xmlns="http://www.w3.org/2000/svg" xmlns:xlink="http://www.w3.org/1999/xlink" x="0px" y="0px"
	 viewBox="0 0 211 85" style="enable-background:new 0 0 211 85;" xml:space="preserve">
<style type="text/css">
	.st0{fill-rule:evenodd;clip-rule:evenodd;fill:#0aa85f;}
	.st1{fill:#0aa85f;}
</style>
<path class="st0" d="M46.7,32.2l7.1-0.4c12.4-0.7,12.7-10.1,12.7-10.2V0l-1-0.1c0,0.1-1.9,9.7-10.9,10.1l-8.2,0.4
	c-6.9,0.3-10.4,4.6-12.1,8.6c-1.7,4-1.7,8-1.7,8v15.2c-0.2-0.7-0.4-1.3-0.7-1.9c-1.7-4.1-5.2-8.3-12.1-8.6l-8.2-0.4
	C6.4,31,2.9,27.4,1.3,22.7c-0.3-0.9-0.4-1.5-0.4-1.5l-1,0.1v21.6c0,0,0,0.6,0.2,1.5c1.4,5.8,6.7,8.4,12.5,8.7l7.1,0.4
	c10.5,0.6,12.8,12.2,13,14.1v17.1h1.1c0-1.2,2.1-13.7,13-14.3l7.1-0.4C66.2,69.4,66.5,60,66.5,59.9V38.2l-1-0.1
	c0,0-1.9,9.7-10.9,10.1l-8.2,0.4c-6.9,0.3-10.4,4.6-12.1,8.6c-0.3,0.6-0.5,1.2-0.7,1.8l0-12.7C33.5,45.5,36.5,32.2,46.7,32.2
	 M31.6,58.9c-2.4-3.9-4.9-6.9-12.3-7.3l-6.7-0.3C7.6,51,2.9,49,1.7,44.2C1.5,43.5,1.5,43,1.5,43V27.2c1.9,4,5,5.5,10.2,6.2l7.7,0.3
	c12,0.6,12.1,14,12.1,14.1V58.9z M34.5,64.9c0-0.1,0.1-13.5,12.1-14.1l7.7-0.3c5.3-0.7,8.3-2.2,10.2-6.2V60c0,0,0,0.5-0.2,1.2
	c-1.2,4.9-5.9,6.8-10.9,7.1l-6.7,0.3c-7.4,0.4-9.9,3.4-12.3,7.3V64.9z M34.5,37.5v-11c0-0.1,0.1-13.5,12.1-14.1l7.7-0.3
	c5.3-0.7,8.3-2.2,10.2-6.2v15.8c0,0,0,0.5-0.2,1.2c-1.2,4.9-5.9,6.8-10.9,7.1l-6.7,0.3C39.3,30.7,36.8,33.7,34.5,37.5"/>
<g>
	<path class="st1" d="M208.1,39.2c0,0.2,0,0.3,0,0.4l0.3,5c0,0.7,0.1,1.3,0.1,2c0,0.7,0,1.2-0.1,1.7c0.7-0.7,1.3-1.4,1.5-2.1
		c0.3-0.7,0.4-1.6,0.4-2.8c0-0.4,0-1-0.1-1.8c0-0.8-0.1-1.2-0.1-1.2v-0.2l0.4-0.4l-0.5-3L208.1,39.2z M201.1,45
		c0.3-0.2,0.6-0.4,0.9-0.7c0.4-0.3,0.6-0.5,0.6-0.5l0.1-0.1l1.1,1.3H201.1z M205.8,37.7c-0.4-0.3-0.6-0.6-0.6-0.9
		c0-0.1,0-0.2,0.1-0.4l-0.9,0.9l-0.4,0.4c-0.3,0.3-0.4,0.5-0.4,0.6c0,0.2,0.1,0.4,0.4,0.6c-0.1,0.2-0.2,0.6-0.4,1
		c-0.3,0.5-0.5,0.9-0.8,1.2l-0.1-0.2c-1-1.3-1.6-2.1-1.9-2.5c-0.4-0.4-0.7-0.8-1-1c-0.2-0.2-0.4-0.3-0.5-0.3c-0.1,0-0.2,0.1-0.3,0.2
		c-0.2,0.3-0.4,0.6-0.5,0.9c-0.2,0.4-0.3,0.8-0.3,1.1c0,0.3,0.3,0.7,0.8,1.4c0.2,0.3,0.4,0.5,0.5,0.5c0.1,0,0.2-0.1,0.4-0.2l0.1-0.1
		c0.4,0.4,0.7,0.6,0.9,0.8l0.7,0.6l0.2,0.2l-0.1,0.1l-0.9,0.9l-1,0.9c-0.1,0.1-0.2,0.2-0.3,0.3l-0.4,2.8h5.6l0.5-1.3l0.1-0.3
		c0.2-0.5,0.3-0.8,0.3-1.1c0-0.1-0.1-0.3-0.2-0.5c-0.1-0.1-0.1-0.3-0.2-0.4c-0.1-0.1-0.1-0.2-0.2-0.2l-0.9-1.2
		c0.8-0.9,1.5-1.6,1.9-2.3l0.3,0.2l1.2-1.6L205.8,37.7z M195.3,37.4l-0.9,0.8l-0.9-0.8l-1.2,1.1l1.6,1.5l0.9-0.8l0.9,0.8l1.3-1.2
		L195.3,37.4z M194.5,43.3c0.4,0.4,0.7,0.9,0.9,1.6h-3.4v2.6h4c0.2-0.5,0.4-0.9,0.6-1.4c0.3-0.9,0.5-1.6,0.5-2.2c0-1-0.3-1.9-1-2.7
		L194.5,43.3z M186.3,44.1c0.4-0.7,0.7-1,1.2-1c0.2,0,0.4,0.1,0.5,0.3c0.1,0.2,0.2,0.4,0.2,0.6c0,0,0,0.1,0,0.2l-1,0.6L186.3,44.1z
		 M187.2,36.4l-1.2,1.2l1.7,1.5l1.2-1.2L187.2,36.4z M189.2,45c0.2-0.4,0.3-0.6,0.4-0.7c0.2-0.5,0.3-1,0.3-1.5
		c0-0.6-0.2-1.1-0.5-1.5s-0.7-0.6-1.2-0.6c-0.8,0-1.7,0.8-2.9,2.4c-0.4,0.5-0.8,1.2-1.2,1.9h-2.3v2.6h4.2l0.7-0.6l0.9,0.6h4.6V45
		H189.2z M180.5,45c-0.4,0-0.6-0.1-0.7-0.2c-0.1-0.1-0.1-0.4-0.1-0.8v-7.3l-2.1,2.2v7l0,0.3v0.5c0,0.6,0.4,0.8,1.1,0.8h3.4V45H180.5
		z M173.7,42l-0.4,0h-0.4c-0.2,0-0.3-0.1-0.3-0.3c0-0.2,0.1-0.3,0.2-0.5c0.2-0.1,0.4-0.2,0.6-0.2c0.5,0,0.8,0.3,1,1H173.7z
		 M174,35.8l-0.9,0.8l-0.9-0.8l-1.2,1.1l1.6,1.5l0.8-0.8l0.9,0.8l1.3-1.1L174,35.8z M175.8,45.4c0.1-0.6,0.2-1.1,0.2-1.6
		c0-1.5-0.4-2.8-1.2-3.8c-0.4-0.5-0.8-0.7-1.3-0.7c-0.7,0-1.3,0.5-2,1.6c-0.4,0.7-0.6,1.3-0.6,2c0,0.6,0.2,1,0.5,1.2
		c0.1,0.1,0.3,0.2,0.4,0.2c0.1,0,0.3,0,0.7,0.1l0.5,0h1.2l0.5-0.7c0,0.1,0,0.2,0,0.2c0,0.2,0,0.4,0,0.5V45h-6.4v2.6h6.7
		C175.5,46.7,175.7,45.9,175.8,45.4z M164.4,51.8l0.9-0.8l0.9,0.8l1.2-1.2l-1.6-1.5l-0.8,0.8l-0.9-0.8l-1.3,1.2L164.4,51.8z
		 M165,46.8l0.3,0.8h3.4V45h-2.1l-0.8-2.6l-1.6,1.6l0.3,1h-3.1v2.6h3L165,46.8z M154.7,44.3l2.2-1.2l0.3,1.6L154.7,44.3z
		 M157.9,35.4l-0.9,0.8l-0.9-0.8l-1.2,1.2l1.6,1.5l0.8-0.8l0.9,0.8l1.3-1.2L157.9,35.4z M159.4,45l-1.1-5.2l-1.8,1.6l0.1,0.4
		l-2.6,1.4c-0.3,0.2-0.6,0.5-0.7,0.8l-0.9,2.6l4.3,0.6l0.8-1.2l0.3,1.6h3.8V45H159.4z M145,39.2c0,0.2,0,0.3,0,0.4l0.3,5
		c0,0.7,0.1,1.3,0.1,2c0,0.7,0,1.2-0.1,1.7c0.7-0.7,1.3-1.4,1.5-2.1c0.3-0.7,0.4-1.6,0.4-2.8c0-0.4,0-1-0.1-1.8
		c0-0.8-0.1-1.2-0.1-1.2v-0.2l0.4-0.4l-0.5-3L145,39.2z M141,40.1l0.8-1.9l-1.6-0.7c-0.3-0.1-0.6-0.3-0.7-0.4
		c-0.1-0.1-0.2-0.3-0.2-0.6l-0.8,1.3c-0.2,0.4-0.4,0.6-0.4,0.7c0,0.2,0.2,0.4,0.6,0.5l0.4,5.8h-3.2v2.6h3.5l0.3-0.4l2.2,1.5l1.5-2.2
		l-1.5-1c-0.4-0.2-0.6-0.4-0.7-0.6c-0.1-0.1-0.2-0.2-0.2-0.4c0-0.1-0.1-0.5-0.2-1.2l-0.3-3.3L141,40.1z M133.2,38.1l-0.9,0.8
		l-0.9-0.8l-1.2,1.2l1.6,1.5l0.8-0.8l0.9,0.8l1.3-1.2L133.2,38.1z M132.7,46.8l0.3,0.8h3.4v-2.6h-2.1l-0.8-2.6l-1.6,1.6l0.3,1h-3.1
		v2.6h3L132.7,46.8z M125.6,45l0.2-0.3c0.6-0.8,1-1.4,1.2-1.8c0.1-0.3,0.2-0.5,0.2-0.7c0-0.6-0.2-1-0.6-1.3c-0.4-0.3-1-0.5-1.7-0.5
		c-0.7,0-1.7,0.1-2.9,0.4l-1.2,2.6h0.1c0.6,0,1.2,0.2,1.6,0.6c0.3,0.2,0.5,0.6,0.6,1.1h-4.7v2.6h4.9l0.7-0.8l0.4,0.8h5V45H125.6z
		 M116.7,45c-0.3,0-0.4-0.1-0.5-0.2c0-0.1-0.1-0.2-0.1-0.3c0-0.4,0-0.6,0-0.6v-7.2l-2.1,2.3v6h-2.4v2.6h2l0.4-0.6
		c0.1,0.3,0.2,0.5,0.5,0.6c0.1,0,0.4,0.1,0.8,0.1h3.2V45H116.7z M106.1,44.1c0.4-0.7,0.7-1,1.2-1c0.2,0,0.4,0.1,0.5,0.3
		c0.1,0.2,0.2,0.4,0.2,0.6c0,0,0,0.1,0,0.2l-1,0.6L106.1,44.1z M107.8,36.6l-0.9,0.8l-0.9-0.8l-1.2,1.1l1.6,1.5l0.9-0.8l0.9,0.8
		l1.3-1.2L107.8,36.6z M106.5,47l0.9,0.6h4.6V45H109c0.2-0.4,0.3-0.6,0.4-0.7c0.2-0.5,0.3-1,0.3-1.5c0-0.6-0.2-1.1-0.5-1.5
		c-0.3-0.4-0.7-0.6-1.2-0.6c-0.8,0-1.7,0.8-2.9,2.4c-0.4,0.6-0.8,1.2-1.2,1.8l0,0h-2.3v2.6h4.2L106.5,47z M94.9,44.3l2.2-1.2
		l0.3,1.6L94.9,44.3z M98.1,35.4l-0.9,0.8l-0.9-0.8l-1.2,1.2l1.6,1.5l0.8-0.8l0.9,0.8l1.3-1.2L98.1,35.4z M99.6,45l-1.1-5.2
		l-1.8,1.6l0.1,0.4l-2.6,1.4c-0.3,0.2-0.6,0.5-0.7,0.8l-0.9,2.6l4.3,0.6l0.8-1.2l0.3,1.6h3.8V45H99.6z"/>
	<path class="st1" d="M209.6,68.7l1.2-1.2l-1.7-1.5l-1.2,1.2L209.6,68.7z M208.4,60.3c0.4,0.4,0.7,0.9,0.9,1.6h-3.4v2.6h4
		c0.2-0.5,0.4-0.9,0.6-1.4c0.3-0.9,0.5-1.6,0.5-2.2c0-1-0.3-1.9-1-2.7L208.4,60.3z M204.4,62c-0.4,0-0.6-0.1-0.7-0.2
		c-0.1-0.1-0.1-0.4-0.1-0.8v-7.3l-2.1,2.2v7l0,0.3v0.5c0,0.6,0.4,0.8,1.1,0.8h3.4V62H204.4z M199,54.6c-0.2-0.1-0.3-0.1-0.4-0.2
		c-0.1-0.1-0.2-0.2-0.3-0.3c-0.1-0.1-0.1-0.3-0.1-0.6l-0.9,1.3l-0.2,0.3c-0.1,0.2-0.2,0.3-0.2,0.4c0,0.2,0.1,0.4,0.4,0.5
		c0,0,0.1,0,0.1,0L198,62h-3.2v2.6h3.9c0.2-0.4,0.4-0.9,0.6-1.4c0.2-0.5,0.3-0.9,0.4-1.1c0.1-0.4,0.2-0.8,0.2-1.2l-0.3-3.8l0.3,0.1
		l0.8-1.8L199,54.6z M191.9,55.1L191,56l-0.9-0.8l-1.2,1.2l1.6,1.5l0.8-0.8l0.9,0.8l1.3-1.2L191.9,55.1z M191.4,63.8l0.3,0.8h3.4
		v-2.6h-2.1l-0.8-2.6l-1.6,1.6l0.3,1h-3.1v2.6h3L191.4,63.8z M184.2,55.2l-1.3,1.2l1.7,1.5l1.2-1.2L184.2,55.2z M184.4,63.8l0.3,0.8
		h3.4V62h-2.1l-0.8-2.6l-1.6,1.6l0.3,1h-3.1v2.6h3L184.4,63.8z M175.9,62c-0.5,0-0.7-0.2-0.7-0.6c0-0.3,0.1-0.5,0.3-0.7
		c0.2-0.2,0.4-0.3,0.6-0.3c0.5,0,0.8,0.5,1,1.6H175.9z M178.7,61.9c-0.1-1-0.4-1.8-0.9-2.6c-0.5-0.8-1-1.1-1.5-1.1
		c-0.4,0-0.8,0.2-1.2,0.7c-0.5,0.6-0.9,1.2-1.2,2c-0.3,0.7-0.4,1.3-0.4,1.9c0,0.3,0.1,0.6,0.3,0.9c0.2,0.3,0.4,0.5,0.6,0.6
		c0.4,0.2,1,0.3,1.9,0.3h1c-0.3,0.5-0.6,0.9-1.1,1.2c-0.5,0.4-1.1,0.5-1.8,0.5c-0.3,0-0.7-0.1-1.2-0.2c0,0-0.1,0-0.2,0l0.1,0.2
		c0.5,0.8,1,1.3,1.4,1.7c0.4,0.4,0.8,0.6,1.1,0.6c0.4,0,0.8-0.2,1.3-0.7c0.9-0.9,1.5-2,1.8-3.3l0,0h2.4V62L178.7,61.9L178.7,61.9z
		 M166,60.8c-0.4-0.3-0.7-0.4-0.9-0.6c-0.2-0.2-0.4-0.4-0.6-0.6l-0.1-0.2c0.6-0.9,1.4-1.3,2.4-1.3c0.6,0,1.2,0.1,1.7,0.4
		c0.1,0,0.2,0.1,0.5,0.3c-0.2-0.8-0.6-1.4-1.1-1.9c-0.5-0.5-1.1-0.8-1.7-0.8c-0.5,0-1,0.2-1.5,0.6c-0.5,0.4-0.9,0.9-1.3,1.6
		c-0.3,0.6-0.5,1.1-0.5,1.5c0,0.3,0.1,0.7,0.4,1.1c0.2,0.3,0.5,0.6,0.8,0.9c-1.3,1.4-1.9,2.8-1.9,4.3c0,1.4,0.4,2.4,1.3,3.2
		c0.9,0.8,2.1,1.1,3.7,1.1c0.7,0,1.4-0.1,2-0.2c0.2,0,0.3-0.1,0.4-0.1c0.1,0,0.4-0.4,1-1c0.6-0.6,1.1-1.1,1.6-1.5
		c-0.8,0.2-1.5,0.3-2.1,0.3c-0.4,0-0.9,0.1-1.4,0.1c-1.4,0-2.6-0.3-3.6-0.8c-1-0.5-1.5-1.2-1.5-1.9c0-0.5,0.3-1,0.9-1.4
		c0.6-0.4,1.3-0.6,2.2-0.6h2.6l0.9-2.6H166z M154.5,56.2c0,0.2,0,0.3,0,0.4l0.3,5c0,0.7,0.1,1.3,0.1,2c0,0.7,0,1.2-0.1,1.7
		c0.7-0.7,1.3-1.4,1.5-2.1c0.3-0.7,0.4-1.6,0.4-2.8c0-0.4,0-1-0.1-1.8c0-0.8-0.1-1.2-0.1-1.2v-0.2l0.4-0.4l-0.5-3L154.5,56.2z
		 M152,54.6c-0.2-0.1-0.3-0.1-0.4-0.2c-0.1-0.1-0.2-0.2-0.3-0.3c-0.1-0.1-0.1-0.3-0.1-0.6l-0.9,1.3l-0.2,0.3
		c-0.1,0.2-0.2,0.3-0.2,0.4c0,0.2,0.1,0.4,0.4,0.5c0,0,0.1,0,0.1,0L151,62h-3.2v2.6h3.9c0.2-0.4,0.4-0.9,0.6-1.4
		c0.2-0.5,0.3-0.9,0.4-1.1c0.1-0.4,0.2-0.8,0.2-1.2l-0.3-3.8l0.3,0.1l0.8-1.8L152,54.6z M144.7,68.7l1.2-1.2l-1.7-1.5l-1.2,1.2
		L144.7,68.7z M144.4,63.8l0.3,0.8h3.4V62h-2.1l-0.8-2.6l-1.6,1.6l0.3,1h-3.1v2.6h3L144.4,63.8z M136.8,68.8l0.9-0.8l0.9,0.8
		l1.2-1.2l-1.6-1.5l-0.8,0.8l-0.9-0.8l-1.3,1.2L136.8,68.8z M137.4,63.8l0.3,0.8h3.4V62h-2.1l-0.8-2.6l-1.6,1.6l0.3,1h-3.1v2.6h3
		L137.4,63.8z M128.8,62c-0.5,0-0.7-0.2-0.7-0.6c0-0.3,0.1-0.5,0.3-0.7c0.2-0.2,0.4-0.3,0.6-0.3c0.5,0,0.8,0.5,1,1.6H128.8z
		 M131.7,61.9c-0.1-1-0.4-1.8-0.9-2.6c-0.5-0.8-1-1.1-1.5-1.1c-0.4,0-0.8,0.2-1.2,0.7c-0.5,0.6-0.9,1.2-1.2,2
		c-0.3,0.7-0.4,1.3-0.4,1.9c0,0.3,0.1,0.6,0.3,0.9c0.2,0.3,0.4,0.5,0.6,0.6c0.4,0.2,1,0.3,1.9,0.3h1c-0.3,0.5-0.6,0.9-1.1,1.2
		c-0.5,0.4-1.1,0.5-1.8,0.5c-0.3,0-0.7-0.1-1.2-0.2c0,0-0.1,0-0.2,0l0.1,0.2c0.5,0.8,1,1.3,1.4,1.7c0.4,0.4,0.8,0.6,1.1,0.6
		c0.4,0,0.8-0.2,1.3-0.7c0.9-0.9,1.5-2,1.8-3.3l0,0h2.4V62L131.7,61.9L131.7,61.9z M124.3,54.6c-0.2-0.1-0.3-0.1-0.4-0.2
		c-0.1-0.1-0.2-0.2-0.3-0.3c-0.1-0.1-0.1-0.3-0.1-0.6l-0.9,1.3l-0.2,0.3c-0.1,0.2-0.2,0.3-0.2,0.4c0,0.2,0.1,0.4,0.4,0.5
		c0,0,0.1,0,0.1,0l0.5,5.8H120v2.6h3.9c0.2-0.4,0.4-0.9,0.6-1.4c0.2-0.5,0.3-0.9,0.4-1.1c0.1-0.4,0.2-0.8,0.2-1.2l-0.3-3.8l0.3,0.1
		l0.8-1.8L124.3,54.6z M115.1,62c-0.5,0-0.7-0.2-0.7-0.6c0-0.3,0.1-0.5,0.3-0.7c0.2-0.2,0.4-0.3,0.6-0.3c0.5,0,0.8,0.5,1,1.6H115.1z
		 M118,61.9c-0.1-1-0.4-1.8-0.9-2.6c-0.5-0.8-1-1.1-1.5-1.1c-0.4,0-0.8,0.2-1.2,0.7c-0.5,0.6-0.9,1.2-1.2,2
		c-0.3,0.7-0.4,1.3-0.4,1.9c0,0.3,0.1,0.6,0.3,0.9c0.2,0.3,0.4,0.5,0.6,0.6c0.4,0.2,1,0.3,1.9,0.3h1c-0.3,0.5-0.6,0.9-1.1,1.2
		c-0.5,0.4-1.1,0.5-1.8,0.5c-0.3,0-0.7-0.1-1.2-0.2c0,0-0.1,0-0.2,0l0.1,0.2c0.5,0.8,1,1.3,1.4,1.7c0.4,0.4,0.8,0.6,1.1,0.6
		c0.4,0,0.8-0.2,1.3-0.7c0.9-0.9,1.5-2,1.8-3.3l0,0h2.4V62L118,61.9L118,61.9z M109.3,60.6c-0.7-0.2-1.6-0.6-2.7-1.2l-1.2-0.6
		c-0.5-0.3-0.9-0.4-1.2-0.4s-0.6,0.2-1,0.5c-0.2,0.2-0.4,0.4-0.7,0.7c-0.4,0.5-0.7,0.8-0.8,1c0.3-0.1,0.5-0.1,0.7-0.1
		c0.5,0,1.1,0.3,2,0.8c0.7,0.4,1.2,0.7,1.7,0.8h-6.9v2.6h5.4c0.4,0,0.7-0.1,0.9-0.2c0.1-0.1,0.2-0.2,0.4-0.4
		c0.6-0.6,1.4-0.9,2.2-0.9c0.6,0,1.3,0.1,2.1,0.3l1.5-2.4C110.7,60.9,109.9,60.8,109.3,60.6L109.3,60.6z M106.3,65.7l-1.2,1.2
		l1.7,1.5l1.2-1.2L106.3,65.7z M93.1,62L92,64.5c0.6,0,1.1,0.1,1.6,0.2c0.4,0.1,0.8,0.3,1.2,0.5c-0.4,0.4-0.8,0.7-1.2,0.9
		c-0.7,0.4-1.4,0.6-2,0.6c-0.8,0-1.4-0.3-1.8-0.8c-0.4-0.5-0.6-1.2-0.6-2.2c0-0.6,0.1-1.3,0.2-2l0-0.2c-0.9,1.9-1.3,3.4-1.3,4.5
		c0,0.9,0.3,1.6,0.9,2.3c0.6,0.6,1.3,0.9,2.1,0.9c0.9,0,1.8-0.2,2.9-0.7c0.5-0.2,1-0.5,1.5-0.8l0.8-1.5l0.6-1.2l0.1-0.3h2.5V62H93.1
		z M91,73.5l0.9-0.8l0.9,0.8l1.2-1.1l-1.6-1.5l-0.9,0.8l-0.9-0.8L89.3,72L91,73.5z"/>
</g>
</svg>
