<?xml version="1.0" encoding="utf-8"?>
<!-- Generator: Adobe Illustrator 22.0.1, SVG Export Plug-In . SVG Version: 6.00 Build 0)  -->
<svg version="1.1" id="Layer_1" xmlns="http://www.w3.org/2000/svg" xmlns:xlink="http://www.w3.org/1999/xlink" x="0px" y="0px"
	 viewBox="0 0 224.4 84.9" style="enable-background:new 0 0 224.4 84.9;" xml:space="preserve">
<style type="text/css">
	.st0{fill-rule:evenodd;clip-rule:evenodd;fill:#0aa85f;}
	.st1{fill:#0aa85f;}
</style>
<g>
	<path class="st0" d="M47.4,31.7l7.1-0.4C67,30.7,67.2,21.2,67.2,21.1V-0.5l-1-0.1c0,0.1-1.9,9.7-10.9,10.1l-8.2,0.4
		c-6.9,0.3-10.4,4.6-12.1,8.6c-1.7,4-1.7,8-1.7,8v15.2c-0.2-0.7-0.4-1.3-0.7-1.9c-1.7-4.1-5.2-8.3-12.1-8.6l-8.2-0.4
		c-5.4-0.3-8.8-3.9-10.4-8.6c-0.3-0.9-0.4-1.5-0.4-1.5l-1,0.1v21.6c0,0,0,0.6,0.2,1.5c1.4,5.8,6.7,8.4,12.5,8.7l7.1,0.4
		c10.5,0.6,12.8,12.2,13,14.1v17.1h1.1c0-1.2,2.1-13.7,13-14.3l7.1-0.4C67,69,67.2,59.5,67.2,59.4V37.8l-1-0.1
		c0,0-1.9,9.7-10.9,10.1l-8.2,0.4c-6.9,0.3-10.4,4.6-12.1,8.6c-0.3,0.6-0.5,1.2-0.7,1.8l0-12.7C34.3,45,37.3,31.7,47.4,31.7z
		 M32.4,58.4c-2.4-3.9-4.9-6.9-12.3-7.3l-6.7-0.3c-5-0.3-9.7-2.3-10.9-7.1c-0.2-0.7-0.2-1.2-0.2-1.2V26.8c1.9,4,5,5.5,10.2,6.2
		l7.7,0.3c12,0.6,12.1,14,12.1,14.1V58.4z M35.2,64.4c0-0.1,0.1-13.5,12.1-14.1l7.7-0.3c5.3-0.7,8.3-2.2,10.2-6.2v15.8
		c0,0,0,0.5-0.2,1.2c-1.2,4.9-5.9,6.9-10.9,7.1l-6.7,0.3c-7.4,0.4-9.9,3.4-12.3,7.3V64.4z M35.2,37.1v-11c0-0.1,0.1-13.5,12.1-14.1
		l7.7-0.3c5.3-0.7,8.3-2.2,10.2-6.2v15.8c0,0,0,0.5-0.2,1.2c-1.2,4.9-5.9,6.8-10.9,7.1l-6.7,0.3C40.1,30.2,37.6,33.2,35.2,37.1z"/>
	<g>
		<g>
			<path class="st1" d="M98.2,39.2v-0.3c0-1.5-0.5-2.3-1.6-2.3c-0.5,0-1,0.2-1.2,0.7c-0.3,0.4-0.3,0.8-0.3,1.9v4.4
				c0,1,0.1,1.5,0.2,2c0.2,0.5,0.7,0.9,1.3,0.9c1.1,0,1.6-0.9,1.6-2.6c0-0.1,0-0.2,0-0.3h2.1v0.5c0,2.9-1.3,4.4-3.6,4.4
				c-1.3,0-2.4-0.5-3-1.5c-0.5-0.8-0.6-1.6-0.6-3.6v-3.7c0-2.1,0.2-2.8,0.8-3.7c0.6-0.8,1.6-1.2,2.8-1.2c2.3,0,3.6,1.5,3.6,4.1v0.4
				H98.2z"/>
		</g>
		<g>
			<path class="st1" d="M108.4,44.7c0,1.6-0.2,2.2-0.8,2.8c-0.5,0.5-1.3,0.8-2.3,0.8c-1,0-1.7-0.3-2.3-0.8c-0.6-0.6-0.8-1.3-0.8-2.8
				v-3c0-1.6,0.2-2.2,0.8-2.8c0.5-0.5,1.3-0.8,2.3-0.8c0.9,0,1.7,0.3,2.3,0.8c0.6,0.6,0.8,1.3,0.8,2.8V44.7z M104.2,44.8
				c0,1.3,0.4,1.8,1.2,1.8c0.8,0,1.2-0.6,1.2-1.8v-3.3c0-1.3-0.4-1.8-1.2-1.8c-0.8,0-1.2,0.6-1.2,1.8V44.8z"/>
		</g>
		<g>
			<path class="st1" d="M112.7,39.5c0.9-1,1.6-1.4,2.5-1.4c1.1,0,1.6,0.7,1.6,2.3v7.7h-1.9v-7.2c0-0.9-0.2-1.2-0.7-1.2
				c-0.5,0-1.1,0.4-1.5,1v7.4h-1.9v-9.9h1.9V39.5z"/>
		</g>
		<g>
			<path class="st1" d="M121.2,48.1l-2.4-9.9h2l1.4,6.3l1.3-6.3h2l-2.2,9.9H121.2z"/>
		</g>
		<g>
			<path class="st1" d="M129,43.5v0.9c0,1,0.1,1.4,0.2,1.7c0.2,0.3,0.6,0.5,1,0.5c0.8,0,1.2-0.5,1.2-1.7v-0.3h1.9
				c0,1.4-0.1,1.8-0.4,2.3c-0.5,0.9-1.4,1.3-2.7,1.3c-1.1,0-2-0.4-2.5-1c-0.4-0.6-0.6-1.4-0.6-2.7v-2.9c0-1.6,0.2-2.2,0.8-2.8
				c0.5-0.5,1.3-0.8,2.3-0.8c1,0,1.8,0.3,2.3,0.9c0.6,0.6,0.8,1.4,0.8,2.9v1.6H129z M131.5,41.3c0-1.2-0.4-1.7-1.2-1.7
				c-0.9,0-1.2,0.5-1.2,1.7v0.5h2.4V41.3z"/>
		</g>
		<g>
			<path class="st1" d="M137.4,39.5c0.9-1,1.6-1.4,2.5-1.4c1.1,0,1.6,0.7,1.6,2.3v7.7h-1.9v-7.2c0-0.9-0.2-1.2-0.7-1.2
				c-0.5,0-1.1,0.4-1.5,1v7.4h-1.9v-9.9h1.9V39.5z"/>
		</g>
		<g>
			<path class="st1" d="M148.3,39.9h-1.7v5.3c0,1,0.3,1.4,1.2,1.4c0.2,0,0.4,0,0.7-0.1v1.7c-0.5,0.1-0.8,0.1-1.3,0.1
				c-0.9,0-1.6-0.2-2-0.7c-0.4-0.4-0.5-0.9-0.5-2.2v-5.5h-1.4v-1.7h1.4v-2.7h1.9v2.7h1.7V39.9z"/>
		</g>
		<g>
			<path class="st1" d="M152.1,36.8h-1.9v-1.9h1.9V36.8z M152.1,48.1h-1.9v-9.9h1.9V48.1z"/>
		</g>
		<g>
			<path class="st1" d="M160.4,44.7c0,1.6-0.2,2.2-0.8,2.8c-0.5,0.5-1.3,0.8-2.3,0.8c-1,0-1.7-0.3-2.3-0.8c-0.6-0.6-0.8-1.3-0.8-2.8
				v-3c0-1.6,0.2-2.2,0.8-2.8c0.5-0.5,1.3-0.8,2.3-0.8c0.9,0,1.7,0.3,2.3,0.8c0.6,0.6,0.8,1.3,0.8,2.8V44.7z M156.2,44.8
				c0,1.3,0.4,1.8,1.2,1.8c0.8,0,1.2-0.6,1.2-1.8v-3.3c0-1.3-0.4-1.8-1.2-1.8c-0.8,0-1.2,0.6-1.2,1.8V44.8z"/>
		</g>
		<g>
			<path class="st1" d="M164.6,39.5c0.9-1,1.6-1.4,2.5-1.4c1.1,0,1.6,0.7,1.6,2.3v7.7h-1.9v-7.2c0-0.9-0.2-1.2-0.7-1.2
				c-0.5,0-1.1,0.4-1.5,1v7.4h-1.9v-9.9h1.9V39.5z"/>
		</g>
		<g>
			<path class="st1" d="M179.6,41.2c-0.4-1-0.8-1.4-1.5-1.4c-0.6,0-1,0.4-1,0.9c0,0.5,0.3,0.8,1.7,1.6c1.1,0.6,1.6,1,2,1.4
				c0.4,0.5,0.7,1.1,0.7,1.9c0,1.8-1.2,2.9-3,2.9c-1.7,0-2.7-0.9-3.4-2.8l1.7-0.6c0.4,1.2,0.9,1.7,1.7,1.7c0.6,0,1.1-0.4,1.1-1
				c0-0.6-0.3-0.9-1.4-1.5c-1.4-0.8-1.7-1-2.2-1.5c-0.5-0.5-0.7-1.2-0.7-1.9c0-1.6,1.2-2.8,2.9-2.8c1.6,0,2.6,0.8,3.2,2.4
				L179.6,41.2z"/>
			<path class="st1" d="M189.2,48.1h-1.9v-1.3c-0.9,1-1.6,1.4-2.5,1.4c-1.1,0-1.6-0.7-1.6-2.3v-7.7h1.9v7.2c0,0.9,0.2,1.2,0.7,1.2
				c0.5,0,1.1-0.4,1.5-1v-7.4h1.9V48.1z"/>
			<path class="st1" d="M193.4,38.3V40c0.5-1.3,1.2-1.9,2.4-1.9v2.2c-0.4-0.1-0.6-0.2-0.9-0.2c-0.5,0-0.9,0.2-1.2,0.5
				c-0.3,0.3-0.3,0.7-0.3,1.6v6h-1.9v-9.9H193.4z"/>
			<path class="st1" d="M202.7,48.1h-1.9V34.9h1.9V48.1z"/>
			<path class="st1" d="M209.3,48.1c-0.1-0.3-0.2-0.7-0.2-1.2c-0.9,1-1.4,1.3-2.2,1.3c-1.3,0-2-1-2-2.6c0-1.2,0.5-2,1.6-2.7
				c0.5-0.3,1-0.5,2.6-1.3v-0.5c0-1-0.3-1.4-1-1.4c-0.7,0-1,0.4-1.1,1.4h-2c0.2-2,1.3-3,3.3-3c0.9,0,1.6,0.3,2,0.8
				c0.4,0.5,0.5,1,0.5,2.2v4.4c0,1.5,0,2,0.2,2.7H209.3z M209.2,43.1c-1.6,0.9-2.3,1.6-2.3,2.5c0,0.7,0.4,1.1,0.9,1.1
				c0.5,0,1-0.3,1.4-0.9V43.1z"/>
		</g>
		<g>
			<path class="st1" d="M97.1,68.6v-1c-0.8,0.8-1.5,1.1-2.2,1.1c-0.7,0-1.3-0.4-1.6-1C93.1,67,93,66.3,93,64.8v-2.4
				c0-1.5,0.1-2.2,0.4-2.9c0.3-0.7,0.9-1,1.6-1c0.7,0,1.4,0.3,2.2,1.1v-4.4H99v13.3H97.1z M97.1,60.7c-0.5-0.3-0.9-0.5-1.3-0.5
				c-0.4,0-0.7,0.2-0.9,0.5c-0.2,0.3-0.2,0.6-0.2,1.6V65c0,1,0,1.3,0.2,1.6c0.1,0.3,0.5,0.5,0.9,0.5c0.4,0,0.8-0.2,1.3-0.5V60.7z"/>
		</g>
		<g>
			<path class="st1" d="M103.1,57.2h-1.9v-1.9h1.9V57.2z M103.1,68.6h-1.9v-9.9h1.9V68.6z"/>
		</g>
		<g>
			<path class="st1" d="M107.4,68.6l-2.4-9.9h2l1.4,6.3l1.3-6.3h2l-2.2,9.9H107.4z"/>
		</g>
		<g>
			<path class="st1" d="M115,64v0.9c0,1,0.1,1.4,0.2,1.7c0.2,0.3,0.6,0.5,1,0.5c0.8,0,1.2-0.5,1.2-1.7v-0.3h1.9
				c0,1.4-0.1,1.8-0.4,2.3c-0.5,0.9-1.4,1.3-2.7,1.3c-1.1,0-2-0.4-2.5-1c-0.4-0.6-0.6-1.4-0.6-2.7v-2.9c0-1.6,0.2-2.2,0.8-2.8
				c0.5-0.5,1.3-0.8,2.3-0.8c1,0,1.8,0.3,2.3,0.9c0.6,0.6,0.8,1.4,0.8,2.9V64H115z M117.4,61.8c0-1.2-0.4-1.7-1.2-1.7
				c-0.9,0-1.2,0.5-1.2,1.7v0.5h2.4V61.8z"/>
		</g>
		<g>
			<path class="st1" d="M123.3,58.7v1.7c0.5-1.3,1.2-1.9,2.4-1.9v2.2c-0.4-0.1-0.6-0.2-0.9-0.2c-0.5,0-0.9,0.2-1.2,0.5
				c-0.3,0.3-0.3,0.7-0.3,1.6v6h-1.9v-9.9H123.3z"/>
		</g>
		<g>
			<path class="st1" d="M131,61.6c-0.4-1-0.8-1.4-1.5-1.4c-0.6,0-1,0.4-1,0.9c0,0.5,0.3,0.8,1.7,1.6c1.1,0.6,1.6,1,2,1.4
				c0.4,0.5,0.7,1.1,0.7,1.9c0,1.8-1.2,2.9-3,2.9c-1.7,0-2.7-0.9-3.4-2.8l1.7-0.6c0.4,1.2,0.9,1.7,1.7,1.7c0.6,0,1.1-0.4,1.1-1
				c0-0.6-0.3-0.9-1.4-1.5c-1.4-0.8-1.7-1-2.2-1.5c-0.5-0.5-0.7-1.2-0.7-1.9c0-1.6,1.2-2.8,2.9-2.8c1.6,0,2.6,0.8,3.2,2.4L131,61.6z
				"/>
			<path class="st1" d="M136.5,57.2h-1.9v-1.9h1.9V57.2z M136.5,68.6h-1.9v-9.9h1.9V68.6z"/>
		</g>
		<g>
			<path class="st1" d="M143.1,60.4h-1.7v5.3c0,1,0.3,1.4,1.2,1.4c0.2,0,0.4,0,0.7-0.1v1.7c-0.5,0.1-0.8,0.1-1.3,0.1
				c-0.9,0-1.6-0.2-2-0.7c-0.4-0.4-0.5-0.9-0.5-2.2v-5.5h-1.4v-1.7h1.4V56h1.9v2.7h1.7V60.4z"/>
		</g>
		<g>
			<path class="st1" d="M146.7,64v0.9c0,1,0.1,1.4,0.2,1.7c0.2,0.3,0.6,0.5,1,0.5c0.8,0,1.2-0.5,1.2-1.7v-0.3h1.9
				c0,1.4-0.1,1.8-0.4,2.3c-0.5,0.9-1.4,1.3-2.7,1.3c-1.1,0-2-0.4-2.5-1c-0.4-0.6-0.6-1.4-0.6-2.7v-2.9c0-1.6,0.2-2.2,0.8-2.8
				c0.5-0.5,1.3-0.8,2.3-0.8c1,0,1.8,0.3,2.3,0.9c0.6,0.6,0.8,1.4,0.8,2.9V64H146.7z M149.2,61.8c0-1.2-0.4-1.7-1.2-1.7
				c-0.9,0-1.2,0.5-1.2,1.7v0.5h2.4V61.8z M147.9,55.3h1.9l-1.4,1.8H147L147.9,55.3z"/>
			<path class="st1" d="M156.8,55.3h1.9v4.4c0.8-0.8,1.5-1.1,2.2-1.1c0.7,0,1.3,0.4,1.6,1c0.3,0.7,0.4,1.4,0.4,2.9v2.4
				c0,1.5-0.1,2.2-0.4,2.9c-0.3,0.7-0.9,1-1.6,1c-0.7,0-1.4-0.3-2.2-1.1v1h-1.9V55.3z M158.7,66.6c0.5,0.3,0.9,0.5,1.3,0.5
				c0.4,0,0.7-0.2,0.9-0.5C161,66.2,161,66,161,65v-2.6c0-1,0-1.3-0.2-1.6c-0.1-0.3-0.5-0.5-0.9-0.5c-0.4,0-0.8,0.2-1.3,0.5V66.6z"
				/>
			<path class="st1" d="M166.9,57.2H165v-1.9h1.9V57.2z M166.9,68.6H165v-9.9h1.9V68.6z"/>
			<path class="st1" d="M175.2,65.2c0,1.6-0.2,2.2-0.8,2.8c-0.5,0.5-1.3,0.8-2.3,0.8c-1,0-1.7-0.3-2.3-0.8c-0.6-0.6-0.8-1.3-0.8-2.8
				v-3c0-1.6,0.2-2.2,0.8-2.8c0.5-0.5,1.3-0.8,2.3-0.8c0.9,0,1.7,0.3,2.3,0.8c0.6,0.6,0.8,1.3,0.8,2.8V65.2z M171,65.3
				c0,1.3,0.4,1.8,1.2,1.8c0.8,0,1.2-0.6,1.2-1.8V62c0-1.3-0.4-1.8-1.2-1.8c-0.8,0-1.2,0.6-1.2,1.8V65.3z"/>
			<path class="st1" d="M179.2,68.6h-1.9V55.3h1.9V68.6z"/>
			<path class="st1" d="M187.5,65.2c0,1.6-0.2,2.2-0.8,2.8c-0.5,0.5-1.3,0.8-2.3,0.8c-1,0-1.7-0.3-2.3-0.8c-0.6-0.6-0.8-1.3-0.8-2.8
				v-3c0-1.6,0.2-2.2,0.8-2.8c0.5-0.5,1.3-0.8,2.3-0.8c0.9,0,1.7,0.3,2.3,0.8c0.6,0.6,0.8,1.3,0.8,2.8V65.2z M183.3,65.3
				c0,1.3,0.4,1.8,1.2,1.8c0.8,0,1.2-0.6,1.2-1.8V62c0-1.3-0.4-1.8-1.2-1.8c-0.8,0-1.2,0.6-1.2,1.8V65.3z"/>
			<path class="st1" d="M196.8,60.6c-0.2-0.2-0.4-0.3-0.6-0.3c-0.3,0-0.5,0.1-0.7,0.4c0.1,0.5,0.2,1,0.2,1.7c0,2.5-1.1,3.8-3,3.8
				c-0.2,0-0.4,0-0.7-0.1c-0.3,0.1-0.4,0.3-0.4,0.6c0,0.2,0.1,0.4,0.4,0.4c0.2,0,0.4,0.1,1.5,0.1c1.3,0.1,1.8,0.2,2.3,0.5
				c0.6,0.4,0.9,1.1,0.9,1.9c0,1.7-1.2,2.5-3.9,2.5c-2.3,0-3.4-0.6-3.4-1.8c0-0.8,0.5-1.3,1.6-1.6c-0.9-0.3-1.2-0.7-1.2-1.3
				c0-0.8,0.4-1.2,1.6-1.5c-1.2-0.6-1.7-1.7-1.7-3.5c0-2.5,1.1-3.8,3-3.8c1.1,0,1.8,0.4,2.4,1.3c0.3-0.9,0.8-1.3,1.7-1.2V60.6z
				 M191.6,68.9c-0.2,0.2-0.4,0.6-0.4,0.8c0,0.6,0.5,0.8,1.8,0.8c1.3,0,1.9-0.3,1.9-0.9c0-0.4-0.2-0.6-0.8-0.7
				c-0.3-0.1-0.5-0.1-1.5-0.1C192.4,68.9,192.1,68.9,191.6,68.9C191.7,68.9,191.7,68.9,191.6,68.9z M191.5,62.9
				c0,1.1,0.4,1.6,1.1,1.6c0.8,0,1.1-0.5,1.1-1.6v-1.1c0-1.1-0.4-1.6-1.1-1.6c-0.8,0-1.1,0.5-1.1,1.6V62.9z"/>
			<path class="st1" d="M200.1,57.2h-1.9v-1.9h1.9V57.2z M200.1,68.6h-1.9v-9.9h1.9V68.6z"/>
		</g>
		<g>
			<path class="st1" d="M208.4,72h-1.9v-4.4c-0.8,0.8-1.5,1.1-2.2,1.1c-0.7,0-1.3-0.4-1.6-1c-0.3-0.7-0.4-1.4-0.4-2.9v-2.4
				c0-1.5,0.1-2.2,0.4-2.9c0.3-0.7,0.9-1,1.6-1c0.7,0,1.4,0.3,2.2,1.1v-1h1.9V72z M206.5,60.7c-0.5-0.3-0.9-0.5-1.3-0.5
				c-0.4,0-0.7,0.2-0.9,0.5c-0.2,0.3-0.2,0.6-0.2,1.6V65c0,1,0,1.3,0.2,1.6c0.1,0.3,0.5,0.5,0.9,0.5c0.4,0,0.8-0.2,1.3-0.5V60.7z"/>
		</g>
		<g>
			<path class="st1" d="M216.6,68.6h-1.9v-1.3c-0.9,1-1.6,1.4-2.5,1.4c-1.1,0-1.6-0.7-1.6-2.3v-7.7h1.9v7.2c0,0.9,0.2,1.2,0.7,1.2
				c0.5,0,1.1-0.4,1.5-1v-7.4h1.9V68.6z"/>
			<path class="st1" d="M220.7,64v0.9c0,1,0.1,1.4,0.2,1.7c0.2,0.3,0.6,0.5,1,0.5c0.8,0,1.2-0.5,1.2-1.7v-0.3h1.9
				c0,1.4-0.1,1.8-0.4,2.3c-0.5,0.9-1.4,1.3-2.7,1.3c-1.1,0-2-0.4-2.5-1c-0.4-0.6-0.6-1.4-0.6-2.7v-2.9c0-1.6,0.2-2.2,0.8-2.8
				c0.5-0.5,1.3-0.8,2.3-0.8c1,0,1.8,0.3,2.3,0.9c0.6,0.6,0.8,1.4,0.8,2.9V64H220.7z M223.1,61.8c0-1.2-0.4-1.7-1.2-1.7
				c-0.9,0-1.2,0.5-1.2,1.7v0.5h2.4V61.8z"/>
		</g>
	</g>
</g>
</svg>
