<?xml version="1.0" encoding="utf-8"?>
<!-- Generator: Adobe Illustrator 22.0.1, SVG Export Plug-In . SVG Version: 6.00 Build 0)  -->
<svg version="1.1" id="Layer_1" xmlns="http://www.w3.org/2000/svg" xmlns:xlink="http://www.w3.org/1999/xlink" x="0px" y="0px"
	 viewBox="0 0 206 84.9" style="enable-background:new 0 0 206 84.9;" xml:space="preserve">
<style type="text/css">
	.st0{fill-rule:evenodd;clip-rule:evenodd;fill:#0aa85f;}
	.st1{fill:#0aa85f;}
</style>
<g>
	<path class="st0" d="M46.7,32.5l7.1-0.4c12.4-0.7,12.7-10.1,12.7-10.2V0.2l-1-0.1c0,0.1-1.9,9.7-10.9,10.1l-8.2,0.4
		c-6.9,0.3-10.4,4.6-12.1,8.6c-1.7,4-1.7,8-1.7,8v15.2c-0.2-0.7-0.4-1.3-0.7-1.9c-1.7-4.1-5.2-8.3-12.1-8.6l-8.2-0.4
		C6.4,31.3,2.9,27.6,1.3,23C1,22,0.9,21.4,0.9,21.4l-1,0.1v21.6c0,0,0,0.6,0.2,1.5c1.4,5.8,6.7,8.4,12.5,8.7l7.1,0.4
		c10.5,0.6,12.8,12.2,13,14.1V85h1.1c0-1.2,2.1-13.7,13-14.3l7.1-0.4c12.4-0.7,12.7-10.1,12.7-10.2V38.5l-1-0.1
		c0,0-1.9,9.7-10.9,10.1l-8.2,0.4c-6.9,0.3-10.4,4.6-12.1,8.6c-0.3,0.6-0.5,1.2-0.7,1.8l0-12.7C33.5,45.8,36.5,32.5,46.7,32.5
		 M31.6,59.2c-2.4-3.9-4.9-6.9-12.3-7.3l-6.7-0.3c-5-0.3-9.7-2.3-10.9-7.1c-0.2-0.7-0.2-1.2-0.2-1.2V27.5c1.9,4,5,5.5,10.2,6.2
		l7.7,0.3c12,0.6,12.1,14,12.1,14.1V59.2z M34.5,65.1c0-0.1,0.1-13.5,12.1-14.1l7.7-0.3c5.3-0.7,8.3-2.2,10.2-6.2v15.8
		c0,0,0,0.5-0.2,1.2c-1.2,4.9-5.9,6.8-10.9,7.1l-6.7,0.3c-7.4,0.4-9.9,3.4-12.3,7.3V65.1z M34.5,37.8v-11c0-0.1,0.1-13.5,12.1-14.1
		l7.7-0.3c5.3-0.7,8.3-2.2,10.2-6.2v15.8c0,0,0,0.5-0.2,1.2c-1.2,4.9-5.9,6.8-10.9,7.1l-6.7,0.3C39.3,30.9,36.8,33.9,34.5,37.8"/>
	<g>
		<g>
			<path class="st1" d="M93.7,23.9c0.2,0,0.3,0,0.4,0c0.1,0.2,4.4,5.8,4.4,5.8h2.3c0,0-4.9-6.5-5.1-6.8c0.2-0.3,4.9-6.1,4.9-6.1
				l-2.2,0c0,0-4.1,5.1-4.3,5.3c-0.1,0-0.2,0-0.4,0c0-0.5,0-5.3,0-5.3h-1.8v12.9h1.8C93.7,29.7,93.7,24.4,93.7,23.9z"/>
			<path class="st1" d="M105.5,20c-1.3,0-2.2,0.6-2.8,1.7c-0.5,0.9-0.7,2-0.7,3.3c0,1.3,0.2,2.5,0.7,3.3c0.6,1.1,1.6,1.7,2.9,1.7
				c1.3,0,2.2-0.6,2.8-1.7c0.5-0.9,0.7-2,0.7-3.3c0-1.3-0.2-2.5-0.7-3.3C107.7,20.6,106.8,20,105.5,20z M105.5,28.5
				c-0.6,0-1-0.4-1.4-1.1c-0.3-0.7-0.5-1.5-0.5-2.4c0-0.9,0.1-1.6,0.4-2.3c0.3-0.8,0.8-1.2,1.5-1.2c0.6,0,1,0.4,1.4,1.1
				c0.3,0.7,0.5,1.5,0.5,2.4c0,0.9-0.2,1.7-0.5,2.4C106.5,28.2,106.1,28.5,105.5,28.5z"/>
			<path class="st1" d="M116.1,24.1c-0.4,0-2.6,0-3,0c0-0.4,0-3.8,0-3.8h-1.7v9.4h1.7c0,0,0-3.6,0-4.1c0.4,0,2.6,0,3,0
				c0,0.4,0,4.1,0,4.1h1.7v-9.4h-1.7C116.1,20.3,116.1,23.6,116.1,24.1z"/>
			<path class="st1" d="M126.6,25c-0.2-0.2-0.3-0.2-0.5-0.3c0.2-0.2,0.4-0.4,0.6-0.7c0.2-0.4,0.3-0.8,0.3-1.3c0-0.6-0.2-1.2-0.7-1.7
				c-0.4-0.5-1-0.7-1.6-0.7h-4v9.4h4.4c0.5,0,1-0.2,1.5-0.7c0.5-0.6,0.8-1.3,0.8-2.1C127.2,26.1,127,25.4,126.6,25z M122.3,25.5
				c0.4,0,1.7,0,1.7,0c0.5,0,0.9,0.1,1.2,0.3c0.3,0.2,0.4,0.5,0.4,1c0,0.4-0.1,0.7-0.3,1c-0.2,0.3-0.4,0.4-0.8,0.4c0,0-1.8,0-2.2,0
				C122.3,27.8,122.3,25.9,122.3,25.5z M124.1,24c0,0-1.4,0-1.8,0c0-0.4,0-1.8,0-2.2c0.4,0,1.6,0,1.6,0c0.4,0,0.7,0.1,0.9,0.3
				c0.3,0.2,0.4,0.4,0.4,0.8C125.1,23.7,124.8,24,124.1,24z"/>
			<path class="st1" d="M136.3,26.5h-1.7l-0.5,1.3c-0.3,0.5-0.7,0.7-1.2,0.7c-0.6,0-1-0.3-1.4-1c-0.3-0.5-0.4-1.1-0.4-1.6
				c0,0,0-0.1,0-0.3c0.5,0,5.3,0,5.3,0l0-0.5c0-1.3-0.2-2.4-0.6-3.3c-0.6-1.2-1.5-1.8-2.8-1.8c-1.3,0-2.2,0.6-2.9,1.7
				c-0.5,0.9-0.8,2-0.8,3.3c0,1.4,0.2,2.5,0.7,3.3c0.6,1.1,1.6,1.7,2.9,1.7c1.9,0,3-1.1,3.4-3.3L136.3,26.5z M132.9,21.6
				c0.6,0,1,0.3,1.3,0.9c0.2,0.4,0.3,1,0.4,1.6c-0.4,0-3,0-3.5,0C131.3,22.4,131.9,21.6,132.9,21.6z"/>
			<path class="st1" d="M145.1,29.7v-9.4h-1.7c0,0,0,3.3,0,3.8c-0.4,0-2.6,0-3,0c0-0.4,0-3.8,0-3.8h-1.7v9.4h1.7c0,0,0-3.6,0-4.1
				c0.4,0,2.6,0,3,0c0,0.4,0,4.1,0,4.1H145.1z"/>
			<path class="st1" d="M154.9,32v-3.9c0,0-0.4,0-0.6,0c0-0.5,0-7.8,0-7.8h-1.7c0,0,0,7.4,0,7.8c-0.4,0-2.6,0-3,0c0-0.5,0-7.8,0-7.8
				h-1.7v9.4c0,0,4.8,0,5.3,0c0,0.4,0,2.3,0,2.3H154.9z"/>
			<path class="st1" d="M163.4,20.3h-1.6c0,0-2.4,4.5-3.1,5.8c0-1.4,0-5.8,0-5.8h-1.7v9.4h1.6c0,0,2.4-4.6,3.1-5.9
				c0,1.5,0,5.9,0,5.9h1.7V20.3z"/>
			<path class="st1" d="M167.2,29.7c0,0,2.5-3.7,2.6-3.9c0.2,0,0.5,0,0.7,0c0,0.4,0,3.9,0,3.9h1.7v-9.4h-3.5c-0.8,0-1.5,0.2-2,0.6
				c-0.5,0.5-0.8,1.1-0.8,2c0,1.4,0.7,2.3,1.9,2.8c-0.3,0.4-2.8,4-2.8,4H167.2z M167.8,23.2c0-0.4,0.1-0.7,0.3-0.9
				c0.2-0.3,0.5-0.4,0.8-0.4c0,0,1.3,0,1.6,0c0,0.4,0,2,0,2.4c-0.4,0-1.6,0-1.6,0c-0.3,0-0.6-0.1-0.8-0.3
				C167.9,23.8,167.8,23.5,167.8,23.2z"/>
			<path class="st1" d="M183.4,30.1c1.3,0,2.2-0.6,2.8-1.7c0.5-0.9,0.7-2,0.7-3.3c0-1.3-0.2-2.5-0.7-3.3c-0.6-1.1-1.6-1.7-2.8-1.7
				c-1.3,0-2.2,0.6-2.8,1.7c-0.5,0.9-0.7,2-0.7,3.3c0,1.3,0.2,2.5,0.7,3.3C181.2,29.5,182.1,30.1,183.4,30.1z M183.4,28.5
				c-0.6,0-1-0.4-1.4-1.1c-0.3-0.7-0.5-1.5-0.5-2.4c0-0.9,0.1-1.6,0.4-2.3c0.3-0.8,0.8-1.2,1.5-1.2c0.6,0,1,0.4,1.4,1.1
				c0.3,0.7,0.5,1.5,0.5,2.4c0,0.9-0.2,1.7-0.5,2.4C184.4,28.2,184,28.5,183.4,28.5z"/>
			<path class="st1" d="M94.8,50.1c1.3,0,2.3-0.6,2.9-1.7c0.5-0.9,0.7-2,0.7-3.3c0-1.3-0.2-2.3-0.6-3.2c-0.6-1.1-1.5-1.7-2.7-1.7
				c-0.4,0-0.8,0.1-1.3,0.4c0,0-0.1,0.1-0.2,0.1c0.4-0.9,1.2-1.5,2.3-1.7c1.5-0.3,2.2-0.9,2.2-2v-0.3h-1.8V37c0,0.1,0,0.2-0.4,0.3
				c0,0-1.4,0.3-1.4,0.3c-2.1,0.6-3.2,3-3.2,7.2C91.3,48.4,92.5,50.1,94.8,50.1z M94.8,48.4c-0.6,0-1-0.3-1.4-1
				C93.1,46.7,93,46,93,45.1c0-0.8,0.1-1.5,0.4-2.1c0.3-0.7,0.8-1,1.4-1c0.6,0,1.1,0.3,1.4,0.9c0.3,0.6,0.5,1.3,0.5,2.2
				c0,0.9-0.2,1.7-0.5,2.3C95.9,48,95.4,48.4,94.8,48.4z"/>
			<path class="st1" d="M105.5,43.8c0,1.5,0,5.9,0,5.9h1.7v-9.4h-1.6c0,0-2.4,4.5-3.1,5.8c0-1.4,0-5.8,0-5.8h-1.7v9.4h1.6
				C102.4,49.7,104.8,45.1,105.5,43.8z"/>
			<path class="st1" d="M113,40c-1.3,0-2.2,0.6-2.8,1.7c-0.5,0.9-0.7,2-0.7,3.3c0,1.3,0.2,2.5,0.7,3.3c0.6,1.1,1.6,1.7,2.9,1.7
				c1.3,0,2.2-0.6,2.8-1.7c0.5-0.9,0.7-2,0.7-3.3c0-1.3-0.2-2.5-0.7-3.3C115.3,40.6,114.3,40,113,40z M113,48.5
				c-0.6,0-1-0.4-1.4-1.1c-0.3-0.7-0.5-1.5-0.5-2.4c0-0.9,0.1-1.6,0.4-2.3c0.3-0.8,0.8-1.2,1.5-1.2c0.6,0,1,0.4,1.4,1.1
				c0.3,0.7,0.5,1.5,0.5,2.4c0,0.9-0.2,1.7-0.5,2.4C114.1,48.2,113.6,48.5,113,48.5z"/>
			<path class="st1" d="M119.9,46.9c0,1.1-0.2,1.6-0.6,1.6c-0.2,0-0.4-0.1-0.5-0.2l-0.4-0.3v1.6l0.1,0.1c0.3,0.2,0.7,0.3,1.1,0.3
				c0.7,0,1.2-0.4,1.6-1.1c0.3-0.5,0.4-1.2,0.4-1.9c0,0,0-4.7,0-5.2c0.4,0,2,0,2.3,0c0,0.5,0,7.8,0,7.8h1.7v-9.4h-5.7V46.9z"/>
			<path class="st1" d="M131.4,40c-1.3,0-2.2,0.6-2.8,1.7c-0.5,0.9-0.7,2-0.7,3.3c0,1.3,0.2,2.5,0.7,3.3c0.6,1.1,1.6,1.7,2.9,1.7
				c1.3,0,2.2-0.6,2.8-1.7c0.5-0.9,0.7-2,0.7-3.3c0-1.3-0.2-2.5-0.7-3.3C133.7,40.6,132.7,40,131.4,40z M131.4,48.5
				c-0.6,0-1-0.4-1.4-1.1c-0.3-0.7-0.5-1.5-0.5-2.4c0-0.9,0.1-1.6,0.4-2.3c0.3-0.8,0.8-1.2,1.5-1.2c0.6,0,1,0.4,1.4,1.1
				c0.3,0.7,0.5,1.5,0.5,2.4c0,0.9-0.2,1.7-0.5,2.4C132.4,48.2,132,48.5,131.4,48.5z"/>
			<path class="st1" d="M139.1,41.9c0.4,0,3.5,0,3.5,0v-1.6h-5.1v9.4h1.7C139.1,49.7,139.1,42.4,139.1,41.9z"/>
			<path class="st1" d="M149.4,43.8c0,1.5,0,5.9,0,5.9h1.7v-9.4h-1.6c0,0-2.4,4.5-3.1,5.8c0-1.4,0-5.8,0-5.8h-1.7v9.4h1.6
				C146.3,49.7,148.7,45.1,149.4,43.8z"/>
			<path class="st1" d="M156.3,46.4c0.8,0,1.5-0.3,2.2-0.7c0,0.7,0,4,0,4h1.7v-9.4h-1.7c0,0,0,3.5,0,3.8c-0.6,0.4-1.3,0.6-2.1,0.6
				c-0.4,0-1-0.2-1-1.5v-3h-1.7v2.8c0,1,0.1,1.7,0.4,2.2C154.5,46,155.3,46.4,156.3,46.4z"/>
			<path class="st1" d="M166.1,50.1c1.9,0,3-1.1,3.4-3.3l0-0.3h-1.7l-0.5,1.3c-0.3,0.5-0.7,0.7-1.2,0.7c-0.6,0-1-0.3-1.4-1
				c-0.3-0.5-0.4-1.1-0.4-1.6c0,0,0-0.1,0-0.3c0.5,0,5.3,0,5.3,0l0-0.5c0-1.3-0.2-2.4-0.6-3.3c-0.6-1.2-1.5-1.8-2.8-1.8
				c-1.3,0-2.2,0.6-2.9,1.7c-0.5,0.9-0.8,2-0.8,3.3c0,1.4,0.2,2.5,0.7,3.3C163.8,49.5,164.8,50.1,166.1,50.1z M166.1,41.6
				c0.6,0,1,0.3,1.3,0.9c0.2,0.4,0.3,1,0.4,1.6c-0.4,0-3,0-3.5,0C164.5,42.4,165.1,41.6,166.1,41.6z"/>
			<path class="st1" d="M174.8,50.1c0.9,0,1.6-0.3,2.3-0.8c0.7-0.7,1.1-1.6,1.1-2.9l0-0.3h-1.6l0,0.2c-0.3,2.2-1.3,2.2-1.6,2.2
				c-0.6,0-1.1-0.4-1.4-1.2c-0.2-0.6-0.3-1.4-0.3-2.3c0-0.8,0.1-1.5,0.4-2.2c0.3-0.8,0.8-1.2,1.4-1.2c0.5,0,0.9,0.2,1.1,0.6
				c0.2,0.4,0.4,0.8,0.4,1.4l0,0.2h1.6l0-0.3c0-1-0.3-1.9-0.8-2.5c-0.6-0.7-1.4-1-2.4-1c-1.2,0-2.1,0.6-2.8,1.7
				c-0.5,0.9-0.8,2-0.8,3.2c0,1.3,0.2,2.4,0.6,3.3C172.7,49.5,173.6,50.1,174.8,50.1z"/>
			<path class="st1" d="M181.8,45.7c0.2,0,0.2,0,0.3,0c0.1,0.2,2.9,4.1,2.9,4.1h2c0,0-3.4-4.8-3.6-5.1c0.2-0.3,3.1-4.4,3.1-4.4h-1.9
				c0,0-2.6,3.6-2.7,3.8c-0.1,0-0.1,0-0.1,0c0-0.4,0-3.8,0-3.8h-1.7v9.4h1.7C181.8,49.7,181.8,46.1,181.8,45.7z"/>
			<path class="st1" d="M194.6,48.4c0.5-0.9,0.7-2,0.7-3.3c0-1.3-0.2-2.5-0.7-3.3c-0.6-1.1-1.6-1.7-2.8-1.7c-1.3,0-2.2,0.6-2.8,1.7
				c-0.5,0.9-0.7,2-0.7,3.3c0,1.3,0.2,2.5,0.7,3.3c0.6,1.1,1.6,1.7,2.9,1.7C193.1,50.1,194,49.5,194.6,48.4z M191.8,48.5
				c-0.6,0-1-0.4-1.4-1.1c-0.3-0.7-0.5-1.5-0.5-2.4c0-0.9,0.1-1.6,0.4-2.3c0.3-0.8,0.8-1.2,1.5-1.2c0.6,0,1,0.4,1.4,1.1
				c0.3,0.7,0.5,1.5,0.5,2.4c0,0.9-0.2,1.7-0.5,2.4C192.8,48.2,192.4,48.5,191.8,48.5z"/>
			<path class="st1" d="M204,40.3c0,0-1.8,5.7-2.2,6.9c-0.4-1.2-2.2-6.9-2.2-6.9h-1.8v9.4h1.7c0,0,0-3.1,0-4.9
				c0.6,1.7,1.6,4.9,1.6,4.9h1.5c0,0,1-3.1,1.6-4.9c0,1.7,0,4.9,0,4.9h1.7v-9.4H204z"/>
			<path class="st1" d="M95,60c-0.5,0-1,0.1-1.4,0.4c-0.2,0.2-0.4,0.4-0.6,0.6c0-0.2,0-0.8,0-0.8h-1.5v13.2h1.7c0,0,0-3.4,0-4.3
				c0.5,0.6,1.1,1,2,1c1.2,0,2.1-0.6,2.7-1.8c0.5-0.9,0.7-2,0.7-3.2c0-1.4-0.3-2.6-0.8-3.5C97.1,60.6,96.2,60,95,60z M94.9,61.6
				c0.6,0,1.1,0.4,1.4,1.2c0.3,0.6,0.4,1.4,0.4,2.2c0,0.8-0.1,1.6-0.4,2.2c-0.3,0.8-0.8,1.2-1.4,1.2c-0.7,0-1.1-0.4-1.5-1.3
				c-0.2-0.6-0.4-1.4-0.4-2.3c0-0.8,0.2-1.5,0.5-2.1C93.9,62,94.4,61.6,94.9,61.6z"/>
			<path class="st1" d="M107.1,68.5c-0.1-0.1-0.1-0.1-0.1-0.2v-6.2c0-0.7-0.4-1.3-1.2-1.7c-0.6-0.3-1.2-0.4-2-0.4
				c-0.8,0-1.5,0.2-2.1,0.7c-0.6,0.5-1,1.2-1,2v0.7h1.6v-0.3c0-0.5,0.1-0.9,0.3-1.2c0.2-0.3,0.6-0.4,1-0.4c1.2,0,1.5,0.5,1.5,0.9
				l0,1c0,0.2,0,0.3-0.4,0.4c0,0-1.1,0.2-1.1,0.2c0,0-1.6,0.4-1.6,0.4c-1.1,0.4-1.7,1.3-1.7,2.6c0,2.5,1.5,3,2.7,3
				c0.5,0,1.1-0.2,1.6-0.5c0,0,0.5-0.4,0.8-0.6c0.2,0.5,0.5,0.9,1.1,1.1c0.1,0,1.1-0.1,1.1-0.1l0.2,0v-1.4l-0.5,0.1L107.1,68.5z
				 M102.5,65.5C102.5,65.5,102.4,65.5,102.5,65.5C102.4,65.5,102.5,65.5,102.5,65.5L102.5,65.5L102.5,65.5z M105.3,65.3
				c0,0.5,0,1.8,0,1.8c0,0.1-0.1,0.4-0.5,0.8c-0.4,0.5-0.9,0.7-1.5,0.7c-0.3,0-0.6-0.1-0.8-0.4c-0.2-0.3-0.3-0.6-0.3-1
				c0-0.3,0.1-0.5,0.2-0.8l0.3-0.4c0.2-0.1,0.5-0.2,1.3-0.4C104.6,65.5,104.9,65.4,105.3,65.3z"/>
			<path class="st1" d="M114.6,64.5c0.1-0.1,0.3-0.1,0.4-0.3c0.3-0.4,0.5-0.9,0.5-1.4c0-0.9-0.3-1.5-0.8-2c-0.5-0.5-1.2-0.7-2.1-0.7
				c-1.9,0-3,1-3,3v0.3h1.7V63c0-1.3,0.7-1.5,1.2-1.5c0.3,0,0.6,0.1,0.8,0.3c0.2,0.2,0.3,0.4,0.3,0.7c0,1-0.4,1.5-1.4,1.5h-0.5v1.6
				l0.8-0.1c1.1,0,1.6,0.5,1.6,1.6c0,0.3-0.1,0.6-0.3,0.9c-0.3,0.4-0.7,0.6-1.3,0.6c-0.5,0-0.9-0.2-1.2-0.7
				c-0.3-0.4-0.4-0.7-0.4-1.1v-0.3h-1.6v0.3c0,0.7,0.2,1.3,0.5,1.8c0.5,0.9,1.4,1.4,2.7,1.4c0.9,0,1.7-0.2,2.4-0.7
				c0.7-0.5,1-1.3,1-2.2C116,65.5,115.3,64.8,114.6,64.5z"/>
			<path class="st1" d="M122.9,64.1c-0.4,0-2.6,0-3,0c0-0.4,0-3.8,0-3.8h-1.7v9.4h1.7c0,0,0-3.6,0-4.1c0.4,0,2.6,0,3,0
				c0,0.4,0,4.1,0,4.1h1.7v-9.4h-1.7C122.9,60.3,122.9,63.6,122.9,64.1z"/>
			<path class="st1" d="M130.4,60c-1.3,0-2.2,0.6-2.8,1.7c-0.5,0.9-0.7,2-0.7,3.3c0,1.3,0.2,2.5,0.7,3.3c0.6,1.1,1.6,1.7,2.9,1.7
				c1.3,0,2.2-0.6,2.8-1.7c0.5-0.9,0.7-2,0.7-3.3c0-1.3-0.2-2.5-0.7-3.3C132.7,60.6,131.7,60,130.4,60z M130.4,68.5
				c-0.6,0-1-0.4-1.4-1.1c-0.3-0.7-0.5-1.5-0.5-2.4c0-0.9,0.1-1.6,0.4-2.3c0.3-0.8,0.8-1.2,1.5-1.2c0.6,0,1,0.4,1.4,1.1
				c0.3,0.7,0.5,1.5,0.5,2.4c0,0.9-0.2,1.7-0.5,2.4C131.5,68.2,131,68.5,130.4,68.5z"/>
			<path class="st1" d="M139.6,60c-1.3,0-2.2,0.6-2.8,1.7c-0.5,0.9-0.7,2-0.7,3.3c0,1.3,0.2,2.5,0.7,3.3c0.6,1.1,1.6,1.7,2.9,1.7
				c1.3,0,2.2-0.6,2.8-1.7c0.5-0.9,0.7-2,0.7-3.3c0-1.3-0.2-2.5-0.7-3.3C141.8,60.6,140.8,60,139.6,60z M139.6,68.5
				c-0.6,0-1-0.4-1.4-1.1c-0.3-0.7-0.5-1.5-0.5-2.4c0-0.9,0.1-1.6,0.4-2.3c0.3-0.8,0.8-1.2,1.5-1.2c0.6,0,1,0.4,1.4,1.1
				c0.3,0.7,0.5,1.5,0.5,2.4c0,0.9-0.2,1.7-0.5,2.4C140.6,68.2,140.1,68.5,139.6,68.5z"/>
			<path class="st1" d="M148.9,60.3c-0.4,0-0.8,0.1-1.3,0.4c0,0-0.1,0.1-0.2,0.1c0.4-0.9,1.2-1.5,2.3-1.7c1.5-0.3,2.2-0.9,2.2-2
				v-0.3h-1.8V57c0,0.1,0,0.2-0.4,0.3c0,0-1.4,0.3-1.4,0.3c-2.1,0.6-3.2,3-3.2,7.2c0,3.5,1.2,5.2,3.6,5.2c1.3,0,2.3-0.6,2.9-1.7
				c0.5-0.9,0.7-2,0.7-3.3c0-1.3-0.2-2.3-0.6-3.2C151,60.8,150.1,60.3,148.9,60.3z M148.7,68.4c-0.6,0-1-0.3-1.4-1
				c-0.3-0.6-0.5-1.4-0.5-2.3c0-0.8,0.1-1.5,0.4-2.1c0.3-0.7,0.8-1,1.4-1c0.6,0,1.1,0.3,1.4,0.9c0.3,0.6,0.5,1.3,0.5,2.2
				c0,0.9-0.2,1.7-0.5,2.3C149.7,68,149.3,68.4,148.7,68.4z"/>
			<path class="st1" d="M158,60c-0.5,0-1,0.1-1.4,0.4c-0.2,0.2-0.4,0.4-0.6,0.6c0-0.2,0-0.8,0-0.8h-1.5v13.2h1.7c0,0,0-3.4,0-4.3
				c0.5,0.6,1.1,1,2,1c1.2,0,2.1-0.6,2.7-1.8c0.5-0.9,0.7-2,0.7-3.2c0-1.4-0.3-2.6-0.8-3.5C160.1,60.6,159.2,60,158,60z M157.9,61.6
				c0.6,0,1.1,0.4,1.4,1.2c0.3,0.6,0.4,1.4,0.4,2.2c0,0.8-0.1,1.6-0.4,2.2c-0.3,0.8-0.8,1.2-1.4,1.2c-0.7,0-1.1-0.4-1.5-1.3
				c-0.2-0.6-0.4-1.4-0.4-2.3c0-0.8,0.2-1.5,0.4-2.1C156.9,62,157.3,61.6,157.9,61.6z"/>
			<path class="st1" d="M170,68.5c-0.1-0.1-0.1-0.1-0.1-0.2v-6.2c0-0.7-0.4-1.3-1.2-1.7c-0.6-0.3-1.2-0.4-2-0.4
				c-0.8,0-1.5,0.2-2.1,0.7c-0.6,0.5-1,1.2-1,2v0.7h1.6v-0.3c0-0.5,0.1-0.9,0.3-1.2c0.2-0.3,0.6-0.4,1-0.4c1.2,0,1.5,0.5,1.5,0.9
				l0,1c0,0.2,0,0.3-0.4,0.4c0,0-1.1,0.2-1.1,0.2l-1.6,0.4c-1.1,0.4-1.7,1.3-1.7,2.6c0,2.5,1.5,3,2.7,3c0.5,0,1.1-0.2,1.6-0.5
				c0,0,0.5-0.4,0.8-0.6c0.2,0.5,0.5,0.9,1.1,1.1c0.1,0,1.1-0.1,1.1-0.1l0.2,0v-1.4l-0.5,0.1L170,68.5z M168.2,65.3
				c0,0.5,0,1.8,0,1.8c0,0.1-0.1,0.4-0.5,0.8c-0.4,0.5-0.9,0.7-1.5,0.7c-0.3,0-0.6-0.1-0.8-0.4c-0.2-0.3-0.3-0.6-0.3-1
				c0-0.3,0.1-0.5,0.2-0.8l0.3-0.4c0.2-0.1,0.5-0.2,1.3-0.4C167.5,65.5,167.9,65.4,168.2,65.3z"/>
			<path class="st1" d="M177.6,64.5c0.1-0.1,0.3-0.1,0.4-0.3c0.3-0.4,0.5-0.9,0.5-1.4c0-0.9-0.3-1.5-0.8-2c-0.5-0.5-1.2-0.7-2.1-0.7
				c-1.9,0-3,1-3,3v0.3h1.7V63c0-1.3,0.7-1.5,1.2-1.5c0.3,0,0.6,0.1,0.8,0.3c0.2,0.2,0.3,0.4,0.3,0.7c0,1-0.4,1.5-1.4,1.5h-0.5v1.6
				l0.8-0.1c1.1,0,1.6,0.5,1.6,1.6c0,0.3-0.1,0.6-0.3,0.9c-0.3,0.4-0.7,0.6-1.3,0.6c-0.5,0-0.9-0.2-1.2-0.7
				c-0.3-0.4-0.4-0.7-0.4-1.1v-0.3h-1.6v0.3c0,0.7,0.2,1.3,0.5,1.8c0.5,0.9,1.4,1.4,2.7,1.4c0.9,0,1.7-0.2,2.4-0.7
				c0.7-0.5,1-1.3,1-2.2C179,65.7,178.5,64.9,177.6,64.5z"/>
			<path class="st1" d="M182.9,66.1c0-1.4,0-5.8,0-5.8h-1.7v9.4h1.6c0,0,2.4-4.6,3.1-5.9c0,1.5,0,5.9,0,5.9h1.7v-9.4h-1.6
				C185.9,60.3,183.6,64.8,182.9,66.1z"/>
			<path class="st1" d="M192,66.1c0-1.4,0-5.8,0-5.8h-1.7v9.4h1.6c0,0,2.4-4.6,3.1-5.9c0,1.5,0,5.9,0,5.9h1.7v-9.4h-1.6
				C195.1,60.3,192.7,64.8,192,66.1z"/>
		</g>
	</g>
</g>
</svg>
