<?xml version="1.0" encoding="utf-8"?>
<!-- Generator: Adobe Illustrator 22.0.1, SVG Export Plug-In . SVG Version: 6.00 Build 0)  -->
<svg version="1.1" id="Layer_1" xmlns="http://www.w3.org/2000/svg" xmlns:xlink="http://www.w3.org/1999/xlink" x="0px" y="0px"
	 viewBox="0 0 230.5 84.9" style="enable-background:new 0 0 230.5 84.9;" xml:space="preserve">
<style type="text/css">
	.st0{fill-rule:evenodd;clip-rule:evenodd;fill:#0aa85f;}
	.st1{fill:#0aa85f;}
</style>
<path class="st0" d="M47.4,31.7l7.1-0.4C67,30.7,67.2,21.2,67.2,21.1V-0.5l-1-0.1c0,0.1-1.9,9.7-10.9,10.1l-8.2,0.4
	c-6.9,0.3-10.4,4.6-12.1,8.6c-1.7,4-1.7,8-1.7,8v15.2c-0.2-0.7-0.4-1.3-0.7-1.9c-1.7-4.1-5.2-8.3-12.1-8.6l-8.2-0.4
	c-5.4-0.3-8.8-3.9-10.4-8.6c-0.3-0.9-0.4-1.5-0.4-1.5l-1,0.1v21.6c0,0,0,0.6,0.2,1.5c1.4,5.8,6.7,8.4,12.5,8.7l7.1,0.4
	c10.5,0.6,12.8,12.2,13,14.1v17.1h1.1c0-1.2,2.1-13.7,13-14.3l7.1-0.4C67,69,67.2,59.5,67.2,59.4V37.8l-1-0.1c0,0-1.9,9.7-10.9,10.1
	l-8.2,0.4c-6.9,0.3-10.4,4.6-12.1,8.6c-0.3,0.6-0.5,1.2-0.7,1.8l0-12.7C34.3,45,37.3,31.7,47.4,31.7z M32.4,58.4
	c-2.4-3.9-4.9-6.9-12.3-7.3l-6.7-0.3c-5-0.3-9.7-2.3-10.9-7.1c-0.2-0.7-0.2-1.2-0.2-1.2V26.8c1.9,4,5,5.5,10.2,6.2l7.7,0.3
	c12,0.6,12.1,14,12.1,14.1V58.4z M35.2,64.4c0-0.1,0.1-13.5,12.1-14.1l7.7-0.3c5.3-0.7,8.3-2.2,10.2-6.2v15.8c0,0,0,0.5-0.2,1.2
	c-1.2,4.9-5.9,6.9-10.9,7.1l-6.7,0.3c-7.4,0.4-9.9,3.4-12.3,7.3V64.4z M35.2,37.1v-11c0-0.1,0.1-13.5,12.1-14.1l7.7-0.3
	c5.3-0.7,8.3-2.2,10.2-6.2v15.8c0,0,0,0.5-0.2,1.2c-1.2,4.9-5.9,6.8-10.9,7.1l-6.7,0.3C40.1,30.2,37.6,33.2,35.2,37.1z"/>
<g>
	<g>
		<path class="st1" d="M97.9,38.8v-0.3c0-1.5-0.5-2.3-1.6-2.3c-0.5,0-1,0.2-1.2,0.7c-0.3,0.4-0.3,0.8-0.3,1.9v4.4c0,1,0.1,1.5,0.2,2
			c0.2,0.5,0.7,0.9,1.3,0.9c1.1,0,1.6-0.9,1.6-2.6c0-0.1,0-0.2,0-0.3h2.1v0.5c0,2.9-1.3,4.4-3.6,4.4c-1.3,0-2.4-0.5-3-1.5
			c-0.5-0.8-0.6-1.6-0.6-3.6v-3.7c0-2.1,0.2-2.8,0.8-3.7c0.6-0.8,1.6-1.2,2.8-1.2c2.3,0,3.6,1.5,3.6,4.1v0.4H97.9z"/>
	</g>
	<g>
		<path class="st1" d="M108.1,44.4c0,1.6-0.2,2.2-0.8,2.8c-0.5,0.5-1.3,0.8-2.3,0.8c-1,0-1.7-0.3-2.3-0.8c-0.6-0.6-0.8-1.3-0.8-2.8
			v-3c0-1.6,0.2-2.2,0.8-2.8c0.5-0.5,1.3-0.8,2.3-0.8c0.9,0,1.7,0.3,2.3,0.8c0.6,0.6,0.8,1.3,0.8,2.8V44.4z M103.9,44.5
			c0,1.3,0.4,1.8,1.2,1.8c0.8,0,1.2-0.6,1.2-1.8v-3.3c0-1.3-0.4-1.8-1.2-1.8c-0.8,0-1.2,0.6-1.2,1.8V44.5z"/>
	</g>
	<g>
		<path class="st1" d="M112.4,39.2c0.9-1,1.6-1.4,2.5-1.4c1.1,0,1.6,0.7,1.6,2.3v7.7h-1.9v-7.2c0-0.9-0.2-1.2-0.7-1.2
			c-0.5,0-1.1,0.4-1.5,1v7.4h-1.9v-9.9h1.9V39.2z"/>
	</g>
	<g>
		<path class="st1" d="M121,47.8l-2.4-9.9h2l1.4,6.3l1.3-6.3h2l-2.2,9.9H121z"/>
	</g>
	<g>
		<path class="st1" d="M128.8,43.1V44c0,1,0.1,1.4,0.2,1.7c0.2,0.3,0.6,0.5,1,0.5c0.8,0,1.2-0.5,1.2-1.7v-0.3h1.9
			c0,1.4-0.1,1.8-0.4,2.3c-0.5,0.9-1.4,1.3-2.7,1.3c-1.1,0-2-0.4-2.5-1c-0.4-0.6-0.6-1.4-0.6-2.7v-2.9c0-1.6,0.2-2.2,0.8-2.8
			c0.5-0.5,1.3-0.8,2.3-0.8c1,0,1.8,0.3,2.3,0.9c0.6,0.6,0.8,1.4,0.8,2.9v1.6H128.8z M131.2,41c0-1.2-0.4-1.7-1.2-1.7
			c-0.9,0-1.2,0.5-1.2,1.7v0.5h2.4V41z"/>
	</g>
	<g>
		<path class="st1" d="M137.1,39.2c0.9-1,1.6-1.4,2.5-1.4c1.1,0,1.6,0.7,1.6,2.3v7.7h-1.9v-7.2c0-0.9-0.2-1.2-0.7-1.2
			c-0.5,0-1.1,0.4-1.5,1v7.4h-1.9v-9.9h1.9V39.2z"/>
		<path class="st1" d="M145.5,36.4h-1.9v-1.9h1.9V36.4z M145.5,47.8h-1.9v-9.9h1.9V47.8z"/>
		<path class="st1" d="M154,44.4c0,1.6-0.2,2.2-0.8,2.8c-0.5,0.5-1.3,0.8-2.3,0.8c-1,0-1.7-0.3-2.3-0.8c-0.6-0.6-0.8-1.3-0.8-2.8v-3
			c0-1.6,0.2-2.2,0.8-2.8c0.5-0.5,1.3-0.8,2.3-0.8c0.9,0,1.7,0.3,2.3,0.8c0.6,0.6,0.8,1.3,0.8,2.8V44.4z M149.8,44.5
			c0,1.3,0.4,1.8,1.2,1.8c0.8,0,1.2-0.6,1.2-1.8v-3.3c0-1.3-0.4-1.8-1.2-1.8c-0.8,0-1.2,0.6-1.2,1.8V44.5z"/>
	</g>
	<g>
		<path class="st1" d="M164.5,40.8c-0.4-1-0.8-1.4-1.5-1.4c-0.6,0-1,0.4-1,0.9c0,0.5,0.3,0.8,1.7,1.6c1.1,0.6,1.6,1,2,1.4
			c0.4,0.5,0.7,1.1,0.7,1.9c0,1.8-1.2,2.9-3,2.9c-1.7,0-2.7-0.9-3.4-2.8l1.7-0.6c0.4,1.2,0.9,1.7,1.7,1.7c0.6,0,1.1-0.4,1.1-1
			c0-0.6-0.3-0.9-1.4-1.5c-1.4-0.8-1.7-1-2.2-1.5c-0.5-0.5-0.7-1.2-0.7-1.9c0-1.6,1.2-2.8,2.9-2.8c1.6,0,2.6,0.8,3.2,2.4L164.5,40.8
			z"/>
		<path class="st1" d="M174.2,44.4c0,1.6-0.2,2.2-0.8,2.8c-0.5,0.5-1.3,0.8-2.3,0.8c-1,0-1.7-0.3-2.3-0.8c-0.6-0.6-0.8-1.3-0.8-2.8
			v-3c0-1.6,0.2-2.2,0.8-2.8c0.5-0.5,1.3-0.8,2.3-0.8c0.9,0,1.7,0.3,2.3,0.8c0.6,0.6,0.8,1.3,0.8,2.8V44.4z M170,44.5
			c0,1.3,0.4,1.8,1.2,1.8c0.8,0,1.2-0.6,1.2-1.8v-3.3c0-1.3-0.4-1.8-1.2-1.8c-0.8,0-1.2,0.6-1.2,1.8V44.5z"/>
		<path class="st1" d="M176.5,34.5h1.9v4.4c0.8-0.8,1.5-1.1,2.2-1.1c0.7,0,1.3,0.4,1.6,1c0.3,0.7,0.4,1.4,0.4,2.9V44
			c0,1.5-0.1,2.2-0.4,2.9c-0.3,0.7-0.9,1-1.6,1c-0.7,0-1.4-0.3-2.2-1.1v1h-1.9V34.5z M178.3,45.8c0.5,0.3,0.9,0.5,1.3,0.5
			c0.4,0,0.7-0.2,0.9-0.5c0.2-0.3,0.2-0.6,0.2-1.6v-2.6c0-1,0-1.3-0.2-1.6c-0.1-0.3-0.5-0.5-0.9-0.5c-0.4,0-0.8,0.2-1.3,0.5V45.8z"
			/>
	</g>
	<g>
		<path class="st1" d="M186.6,37.9v1.7c0.5-1.3,1.2-1.9,2.4-1.9v2.2c-0.4-0.1-0.6-0.2-0.9-0.2c-0.5,0-0.9,0.2-1.2,0.5
			c-0.3,0.3-0.3,0.7-0.3,1.6v6h-1.9v-9.9H186.6z"/>
	</g>
	<g>
		<path class="st1" d="M192.6,43.1V44c0,1,0.1,1.4,0.2,1.7c0.2,0.3,0.6,0.5,1,0.5c0.8,0,1.2-0.5,1.2-1.7v-0.3h1.9
			c0,1.4-0.1,1.8-0.4,2.3c-0.5,0.9-1.4,1.3-2.7,1.3c-1.1,0-2-0.4-2.5-1c-0.4-0.6-0.6-1.4-0.6-2.7v-2.9c0-1.6,0.2-2.2,0.8-2.8
			c0.5-0.5,1.3-0.8,2.3-0.8c1,0,1.8,0.3,2.3,0.9c0.6,0.6,0.8,1.4,0.8,2.9v1.6H192.6z M195,41c0-1.2-0.4-1.7-1.2-1.7
			c-0.9,0-1.2,0.5-1.2,1.7v0.5h2.4V41z"/>
		<path class="st1" d="M204.6,47.8h-1.9V34.5h1.9V47.8z"/>
		<path class="st1" d="M211.2,47.8c-0.1-0.3-0.2-0.7-0.2-1.2c-0.9,1-1.4,1.3-2.2,1.3c-1.3,0-2-1-2-2.6c0-1.2,0.5-2,1.6-2.7
			c0.5-0.3,1-0.5,2.6-1.3v-0.5c0-1-0.3-1.4-1-1.4c-0.7,0-1,0.4-1.1,1.4h-2c0.2-2,1.3-3,3.3-3c0.9,0,1.6,0.3,2,0.8
			c0.4,0.5,0.5,1,0.5,2.2v4.4c0,1.5,0,2,0.2,2.7H211.2z M211.1,42.7c-1.6,0.9-2.3,1.6-2.3,2.5c0,0.7,0.4,1.1,0.9,1.1
			c0.5,0,1-0.3,1.4-0.9V42.7z"/>
	</g>
	<g>
		<path class="st1" d="M92.9,54.9h3.2c2.6,0,3.8,1.3,3.8,4.2v5c0,2.8-1.2,4.2-3.8,4.2h-3.2V54.9z M96,66.3c1.5,0,2-0.8,2-2.8v-3.8
			c0-2.1-0.5-2.8-2-2.8h-1v9.5H96z"/>
		<path class="st1" d="M104.2,56.9h-1.9v-1.9h1.9V56.9z M104.2,68.2h-1.9v-9.9h1.9V68.2z"/>
	</g>
	<g>
		<path class="st1" d="M108.3,68.2l-2.4-9.9h2l1.4,6.3l1.3-6.3h2l-2.2,9.9H108.3z"/>
	</g>
	<g>
		<path class="st1" d="M115.9,63.6v0.9c0,1,0.1,1.4,0.2,1.7c0.2,0.3,0.6,0.5,1,0.5c0.8,0,1.2-0.5,1.2-1.7v-0.3h1.9
			c0,1.4-0.1,1.8-0.4,2.3c-0.5,0.9-1.4,1.3-2.7,1.3c-1.1,0-2-0.4-2.5-1c-0.4-0.6-0.6-1.4-0.6-2.7v-2.9c0-1.6,0.2-2.2,0.8-2.8
			c0.5-0.5,1.3-0.8,2.3-0.8c1,0,1.8,0.3,2.3,0.9c0.6,0.6,0.8,1.4,0.8,2.9v1.6H115.9z M118.3,61.4c0-1.2-0.4-1.7-1.2-1.7
			c-0.9,0-1.2,0.5-1.2,1.7V62h2.4V61.4z"/>
	</g>
	<g>
		<path class="st1" d="M124.3,58.3V60c0.5-1.3,1.2-1.9,2.4-1.9v2.2c-0.4-0.1-0.6-0.2-0.9-0.2c-0.5,0-0.9,0.2-1.2,0.5
			c-0.3,0.3-0.3,0.7-0.3,1.6v6h-1.9v-9.9H124.3z"/>
	</g>
	<g>
		<path class="st1" d="M132.7,61.3c-0.4-1-0.8-1.4-1.5-1.4c-0.6,0-1,0.4-1,0.9c0,0.5,0.3,0.8,1.7,1.6c1.1,0.6,1.6,1,2,1.4
			c0.4,0.5,0.7,1.1,0.7,1.9c0,1.8-1.2,2.9-3,2.9c-1.7,0-2.7-0.9-3.4-2.8l1.7-0.6c0.4,1.2,0.9,1.7,1.7,1.7c0.6,0,1.1-0.4,1.1-1
			c0-0.6-0.3-0.9-1.4-1.5c-1.4-0.8-1.7-1-2.2-1.5c-0.5-0.5-0.7-1.2-0.7-1.9c0-1.6,1.2-2.8,2.9-2.8c1.6,0,2.6,0.8,3.2,2.4L132.7,61.3
			z"/>
		<path class="st1" d="M138.3,56.9h-1.9v-1.9h1.9V56.9z M138.3,68.2h-1.9v-9.9h1.9V68.2z"/>
		<path class="st1" d="M144.7,68.2v-1c-0.8,0.8-1.5,1.1-2.2,1.1c-0.7,0-1.3-0.4-1.6-1c-0.3-0.7-0.4-1.4-0.4-2.9v-2.4
			c0-1.5,0.1-2.2,0.4-2.9c0.3-0.7,0.9-1,1.6-1c0.7,0,1.4,0.3,2.2,1.1v-4.4h1.9v13.3H144.7z M144.7,60.3c-0.5-0.3-0.9-0.5-1.3-0.5
			c-0.4,0-0.7,0.2-0.9,0.5c-0.2,0.3-0.2,0.6-0.2,1.6v2.6c0,1,0,1.3,0.2,1.6c0.1,0.3,0.5,0.5,0.9,0.5c0.4,0,0.8-0.2,1.3-0.5V60.3z"/>
		<path class="st1" d="M153.2,68.2c-0.1-0.3-0.2-0.7-0.2-1.2c-0.9,1-1.4,1.3-2.2,1.3c-1.3,0-2-1-2-2.6c0-1.2,0.5-2,1.6-2.7
			c0.5-0.3,1-0.5,2.6-1.3v-0.5c0-1-0.3-1.4-1-1.4c-0.7,0-1,0.4-1.1,1.4h-2c0.2-2,1.3-3,3.3-3c0.9,0,1.6,0.3,2,0.8
			c0.4,0.5,0.5,1,0.5,2.2v4.4c0,1.5,0,2,0.2,2.7H153.2z M153,63.1c-1.6,0.9-2.3,1.6-2.3,2.5c0,0.7,0.4,1.1,0.9,1.1
			c0.5,0,1-0.3,1.4-0.9V63.1z"/>
		<path class="st1" d="M161.5,68.2v-1c-0.8,0.8-1.5,1.1-2.2,1.1s-1.3-0.4-1.6-1c-0.3-0.7-0.4-1.4-0.4-2.9v-2.4
			c0-1.5,0.1-2.2,0.4-2.9c0.3-0.7,0.9-1,1.6-1s1.4,0.3,2.2,1.1v-4.4h1.9v13.3H161.5z M161.5,60.3c-0.5-0.3-0.9-0.5-1.3-0.5
			c-0.4,0-0.7,0.2-0.9,0.5c-0.2,0.3-0.2,0.6-0.2,1.6v2.6c0,1,0,1.3,0.2,1.6c0.1,0.3,0.5,0.5,0.9,0.5c0.4,0,0.8-0.2,1.3-0.5V60.3z"/>
		<path class="st1" d="M169.5,54.9h3.1c2.5,0,3.9,1.2,3.9,3.4c0,1.6-0.7,2.5-2.2,3c1.8,0.5,2.5,1.4,2.5,3.2c0,2.3-1.5,3.8-3.9,3.8
			h-3.3V54.9z M172.3,60.4c1.3,0,2.1-0.8,2.1-1.9c0-0.5-0.2-0.9-0.5-1.2c-0.3-0.3-0.8-0.4-1.5-0.4h-0.8v3.5H172.3z M172.6,66.3
			c1.3,0,2.1-0.7,2.1-1.9c0-1.3-0.9-2.2-2.4-2.2h-0.7v4.1H172.6z"/>
		<path class="st1" d="M180.9,56.9H179v-1.9h1.9V56.9z M180.9,68.2H179v-9.9h1.9V68.2z"/>
		<path class="st1" d="M189.2,64.8c0,1.6-0.2,2.2-0.8,2.8c-0.5,0.5-1.3,0.8-2.3,0.8c-1,0-1.7-0.3-2.3-0.8c-0.6-0.6-0.8-1.3-0.8-2.8
			v-3c0-1.6,0.2-2.2,0.8-2.8c0.5-0.5,1.3-0.8,2.3-0.8c0.9,0,1.7,0.3,2.3,0.8c0.6,0.6,0.8,1.3,0.8,2.8V64.8z M185,64.9
			c0,1.3,0.4,1.8,1.2,1.8c0.8,0,1.2-0.6,1.2-1.8v-3.3c0-1.3-0.4-1.8-1.2-1.8c-0.8,0-1.2,0.6-1.2,1.8V64.9z"/>
		<path class="st1" d="M193.3,68.2h-1.9V54.9h1.9V68.2z"/>
		<path class="st1" d="M201.7,64.8c0,1.6-0.2,2.2-0.8,2.8c-0.5,0.5-1.3,0.8-2.3,0.8c-1,0-1.7-0.3-2.3-0.8c-0.6-0.6-0.8-1.3-0.8-2.8
			v-3c0-1.6,0.2-2.2,0.8-2.8c0.5-0.5,1.3-0.8,2.3-0.8c0.9,0,1.7,0.3,2.3,0.8c0.6,0.6,0.8,1.3,0.8,2.8V64.8z M197.4,64.9
			c0,1.3,0.4,1.8,1.2,1.8c0.8,0,1.2-0.6,1.2-1.8v-3.3c0-1.3-0.4-1.8-1.2-1.8c-0.8,0-1.2,0.6-1.2,1.8V64.9z M198.6,54.9h1.9l-1.4,1.8
			h-1.4L198.6,54.9z"/>
		<path class="st1" d="M211,60.2c-0.2-0.2-0.4-0.3-0.6-0.3c-0.3,0-0.5,0.1-0.7,0.4c0.1,0.5,0.2,1,0.2,1.7c0,2.5-1.1,3.8-3,3.8
			c-0.2,0-0.4,0-0.7-0.1c-0.3,0.1-0.4,0.3-0.4,0.6c0,0.2,0.1,0.4,0.4,0.4c0.2,0,0.4,0.1,1.5,0.1c1.3,0.1,1.8,0.2,2.3,0.5
			c0.6,0.4,0.9,1.1,0.9,1.9c0,1.7-1.2,2.5-3.9,2.5c-2.3,0-3.4-0.6-3.4-1.8c0-0.8,0.5-1.3,1.6-1.6c-0.9-0.3-1.2-0.7-1.2-1.3
			c0-0.8,0.4-1.2,1.6-1.5c-1.2-0.6-1.7-1.7-1.7-3.5c0-2.5,1.1-3.8,3-3.8c1.1,0,1.8,0.4,2.4,1.3c0.3-0.9,0.8-1.3,1.7-1.2V60.2z
			 M205.8,68.5c-0.2,0.2-0.4,0.6-0.4,0.8c0,0.6,0.5,0.8,1.8,0.8c1.3,0,1.9-0.3,1.9-0.9c0-0.4-0.2-0.6-0.8-0.7
			c-0.3-0.1-0.5-0.1-1.5-0.1C206.6,68.6,206.4,68.5,205.8,68.5C205.9,68.5,205.9,68.5,205.8,68.5z M205.7,62.5
			c0,1.1,0.4,1.6,1.1,1.6c0.8,0,1.1-0.5,1.1-1.6v-1.1c0-1.1-0.4-1.6-1.1-1.6c-0.8,0-1.1,0.5-1.1,1.6V62.5z"/>
		<path class="st1" d="M214.4,56.9h-1.9v-1.9h1.9V56.9z M214.4,68.2h-1.9v-9.9h1.9V68.2z"/>
		<path class="st1" d="M221,61.8v-0.3c0-1.1-0.4-1.7-1.2-1.7c-0.5,0-0.8,0.2-1,0.5c-0.2,0.3-0.2,0.8-0.2,1.7v2.4
			c0,0.9,0.1,1.4,0.2,1.7c0.2,0.3,0.6,0.5,1,0.5c0.8,0,1.2-0.5,1.2-1.7v-0.3h1.9v0.4c0,1.2-0.2,1.9-0.7,2.4
			c-0.5,0.6-1.4,0.9-2.3,0.9c-1.1,0-2-0.4-2.5-1c-0.5-0.6-0.6-1.3-0.6-2.7v-2.9c0-1.4,0.2-2.1,0.6-2.7c0.5-0.7,1.4-1,2.5-1
			c1,0,1.8,0.3,2.3,0.9c0.5,0.5,0.7,1.2,0.7,2.4v0.4H221z"/>
		<path class="st1" d="M229.1,68.2c-0.1-0.3-0.2-0.7-0.2-1.2c-0.9,1-1.4,1.3-2.2,1.3c-1.3,0-2-1-2-2.6c0-1.2,0.5-2,1.6-2.7
			c0.5-0.3,1-0.5,2.6-1.3v-0.5c0-1-0.3-1.4-1-1.4c-0.7,0-1,0.4-1.1,1.4h-2c0.2-2,1.3-3,3.3-3c0.9,0,1.6,0.3,2,0.8
			c0.4,0.5,0.5,1,0.5,2.2v4.4c0,1.5,0,2,0.2,2.7H229.1z M229,63.1c-1.6,0.9-2.3,1.6-2.3,2.5c0,0.7,0.4,1.1,0.9,1.1
			c0.5,0,1-0.3,1.4-0.9V63.1z"/>
	</g>
</g>
</svg>
