<?xml version="1.0" encoding="UTF-8"?>
<svg id="Layer_1" xmlns="http://www.w3.org/2000/svg" viewBox="0 0 500 500">
  <rect fill="#00483a" width="500" height="500"/>
  <g id="icon" fill-opacity="0.85">
    <path fill="#ffffff" d="M321.57,196.45l37.68-2c65.92-3.64,67.24-53.76,67.25-54.2V25.59l-5.51-.54c-.05.29-10.3,51.27-57.51,53.65l-43.2,2.03c-36.48,1.8-54.89,24.2-63.99,45.78-9.06,21.46-9.17,42.41-9.17,42.55v80.47c-1.05-3.54-2.2-6.87-3.54-10.02-9.11-21.6-27.52-43.97-63.99-45.81l-43.21-2.01c-28.36-1.44-46.54-20.92-55.19-45.65-1.65-4.83-2.32-8-2.32-8l-5.49.54v114.68s.05,3.25,1.22,8.14c7.4,30.97,35.47,44.36,66,46.06l37.69,2c55.52,3.08,67.98,64.62,68.83,74.82v90.78h5.59c0-6.23,11.19-72.56,68.87-75.77l37.68-2c65.92-3.65,67.24-53.75,67.25-54.19v-114.68l-5.51-.53c-.05.26-10.3,51.25-57.51,53.64l-43.2,2.01c-36.48,1.84-54.89,24.24-63.99,45.82-1.37,3.21-2.53,6.44-3.52,9.58l.05-67.07c-.77-4.94,15.07-75.41,68.75-75.41"/>
  </g>
</svg>