<svg width="145" height="124" viewBox="0 0 145 124" fill="none" xmlns="http://www.w3.org/2000/svg">
<g clip-path="url(#clip0_2728_20857)">
<path d="M134.168 87.0565C128.242 91.488 121.105 93.0082 115.643 98.4703C115.051 98.8568 114.458 99.4494 113.788 99.4751C115.841 97.6885 117.583 95.5727 118.941 93.2143C122.291 87.5202 121.028 79.8938 123.965 74.0194C122.322 75.9929 120.791 78.0574 119.379 80.203C114.561 87.4945 114.973 97.079 107.733 103.391C112.01 101.949 116.7 101.562 121.08 100.377C129.556 97.8004 138.574 89.1949 139.682 80.1515C138.46 82.884 136.563 85.2604 134.168 87.0565ZM138.265 56.1644C136.922 59.9057 135.879 63.7483 135.147 67.6555L134.838 68.0162V67.8874C135.367 66.2208 135.636 64.4828 135.637 62.7344C136.075 55.0049 129.196 50.0838 127.624 43.0758V45.6523C128.272 52.2833 129.708 58.8135 131.901 65.1048C132.816 68.2595 133.001 71.5812 132.442 74.8181C135.018 70.9534 138.162 67.4236 140.841 63.6104C142.812 59.9562 143.956 55.9137 144.192 51.7687C144.428 47.6237 143.75 43.4775 142.207 39.6233C143.34 45.7811 140.532 50.9856 138.265 56.1644Z" fill="white"/>
<path d="M136.075 47.971C136.068 48.021 136.044 48.0671 136.006 48.1003C135.968 48.1336 135.919 48.1517 135.869 48.1513C135.618 46.483 135.203 44.8433 134.632 43.256C132.725 37.4331 125.691 34.702 122.832 29.446C123.265 31.7067 123.93 33.9169 124.815 36.0418C127.392 42.5088 133.962 47.4041 135.766 54.2576C135.972 54.9017 136.023 55.6489 136.255 56.2157C136.727 52.9793 137.592 49.8126 138.832 46.7858C140.41 43.0965 141.034 39.0695 140.646 35.0757C140.259 31.0819 138.873 27.2497 136.616 23.9323C135.817 22.9275 135.302 21.665 134.168 20.9951C135.762 23.6365 136.508 26.7026 136.307 29.7809C135.392 35.8047 135.314 41.9259 136.075 47.971Z" fill="white"/>
<path d="M127.418 17.4396C128.56 22.4692 130.058 27.4114 131.901 32.2287H131.747C131.092 30.7685 130.224 29.4139 129.17 28.2093C125.383 23.2625 118.864 21.9742 116.288 16.0741C116.739 19.6511 118.225 23.0182 120.565 25.7617C124.816 30.3478 131.025 33.0531 133.937 38.7729C132.854 33.3623 134.581 28.132 133.395 22.7729C132.792 20.2056 131.521 17.8432 129.712 15.9248C127.902 14.0065 125.617 12.6003 123.09 11.8486C125.087 13.2084 126.602 15.1656 127.418 17.4396Z" fill="white"/>
<path d="M127.289 24.1642L126.748 22.6183C125.91 17.9924 123.639 13.7472 120.255 10.483C117.061 7.6231 113.067 6.6698 109.331 5.09814L113.557 9.37512C117.166 15.1224 121.825 20.1394 127.289 24.1642ZM16.8867 24.8856C19.907 22.5216 22.7488 19.9381 25.3891 17.1561C27.98 13.0374 31.0503 9.24065 34.5357 5.84533C29.3827 7.82922 23.7144 9.71006 20.6484 15.0692C18.5357 17.9548 18.5357 21.7423 16.8867 24.8856Z" fill="white"/>
<path d="M10.806 39.6232C12.2048 37.055 14.0856 34.7805 16.3455 32.9244C21.7819 29.1111 27.4759 23.752 27.5532 16.9501C25.7754 21.8454 20.4936 23.9066 16.8865 27.2561C15.0846 28.9828 13.6706 31.0731 12.7384 33.3881C13.1764 31.43 14.0524 29.6522 14.5677 27.7456C16.1651 22.5926 15.8559 16.3575 20.9059 12.905C18.2024 13.5746 15.7887 15.1024 14.0266 17.2593C9.82696 21.5878 10.265 28.4413 10.806 34.4702C10.9864 36.2223 10.5999 37.9485 10.806 39.6232Z" fill="white"/>
<path d="M8.64163 57.1947C9.72376 49.9032 15.7785 44.673 18.9476 38.309C20.1325 35.7459 20.923 33.0184 21.2922 30.2189C20.7861 31.4085 20.0606 32.4923 19.1537 33.4137C14.954 37.2269 10.1618 41.1432 9.23422 46.6826C9.07963 47.4813 9.0281 48.2801 8.82198 49.053C8.64163 49.053 8.64163 48.9242 8.56434 48.8727L9.05387 42.0192C9.23422 35.3203 6.03938 27.9 9.90411 22.0256C9.77529 22.0256 9.69799 22.0256 9.59493 22.1545C5.84168 26.4316 3.76407 31.923 3.7463 37.6134C3.33406 44.9822 8.22939 50.1867 8.64163 57.1947Z" fill="white"/>
<path d="M12.12 75.359L12.5064 75.6682C11.9596 72.8709 12.0211 69.9887 12.6868 67.2173C13.872 62.9661 15.2633 58.818 16.1908 54.3349C16.9201 50.8548 17.2229 47.2988 17.0926 43.7455C16.7131 45.5473 16.0707 47.2836 15.186 48.8985C11.3986 54.644 7.61111 61.446 10.2391 68.789C10.2391 68.789 10.0845 68.9693 9.98149 68.9178C9.17971 66.3814 8.5259 63.8006 8.02335 61.1883C6.27134 54.2833 0.912241 48.5635 2.45814 40.5764C1.74755 42.3648 1.22094 44.2208 0.886477 46.1159C0.174964 50.9871 0.625214 55.9575 2.20049 60.6215C3.84944 66.2383 9.33736 70.2318 12.12 75.359Z" fill="white"/>
<path d="M23.2247 92.3124C22.5033 90.5088 21.3954 88.8083 20.8544 86.9275C18.7932 78.2963 19.9268 68.351 16.2167 60.3896C16.9123 64.9243 15.1088 68.9178 14.6965 73.2721C14.2961 76.6847 14.8677 80.1411 16.3455 83.2431C16.6547 84.1449 17.5049 84.9178 17.711 85.8196C16.4882 84.5378 15.4162 83.1201 14.5162 81.5942C10.3165 74.5603 1.24727 70.103 0.628908 61.6779C0.164934 65.4102 0.597732 69.1994 1.89139 72.731C5.26659 82.2125 15.6241 87.1336 23.2247 92.3124Z" fill="white"/>
<path d="M37.3953 103.675C31.4952 98.9341 30.5161 91.8487 27.9911 85.6394C26.1192 81.7224 23.7177 78.0812 20.8542 74.8181C23.9718 81.0532 22.529 89.1434 26.6771 94.9405C27.9744 96.8745 29.5452 98.6103 31.3406 100.093C29.8267 99.3567 28.4291 98.4019 27.1924 97.2593C20.0813 91.4365 9.46617 90.6378 5.24072 81.079C6.08371 84.6783 7.66372 88.0637 9.88102 91.0216C12.0983 93.9795 14.9048 96.4456 18.1232 98.2642C23.6884 102.18 31.0056 101.588 37.3953 103.675Z" fill="white"/>
<path d="M52.5709 107.488C53.7047 107.356 54.8312 107.166 55.9461 106.921C51.7881 106.299 47.8732 104.573 44.6095 101.923C40.4316 97.5669 35.889 93.576 31.0314 89.9937C34.8962 95.1466 35.9268 102.876 43.0121 105.453C44.1973 106.071 45.5886 105.994 46.7738 106.689C45.4852 106.722 44.1991 106.557 42.9606 106.2C33.9944 104.036 22.8382 106.612 15.959 98.8825C18.7491 103.951 23.3501 107.779 28.8414 109.601C36.9058 112.28 45.1506 109.188 52.5709 107.488Z" fill="white"/>
<path d="M99.9783 112.357L94.0266 109.987C87.8972 106.725 80.7892 105.809 74.0331 107.411C72.6933 108.596 71.3278 107.179 69.9365 107.153C60.9445 105.195 53.1893 109.317 45.7175 112.538C42.8463 113.672 39.7514 114.125 36.6757 113.861C33.6 113.597 30.6273 112.624 27.9912 111.018C31.3534 114.956 36.0748 117.485 41.2163 118.1C46.3579 118.716 51.5428 117.374 55.74 114.341C60.1458 111.765 63.9332 106.998 69.7561 108.853C63.6974 111.684 58.2055 115.595 53.55 120.396L56.5902 122.973C60.2224 118.316 64.665 114.354 69.7046 111.275C70.7102 110.609 71.8272 110.129 73.0025 109.858C79.0246 113.174 84.4077 117.536 88.8994 122.741C89.9382 121.962 90.9119 121.101 91.8109 120.164C87.1089 115.548 81.6545 111.766 75.682 108.982C76.7254 108.719 77.8024 108.615 78.8769 108.673C82.0202 108.467 84.0299 110.683 86.6063 112.229C92.5838 116.737 100.571 119.726 108.223 116.866C111.814 115.615 114.988 113.394 117.395 110.451C114.841 112.101 111.936 113.133 108.912 113.464C105.889 113.795 102.83 113.416 99.9783 112.357Z" fill="white"/>
<path d="M105.105 105.195C102.913 105.67 100.693 106.006 98.4581 106.2C100.216 105.659 101.938 105.005 103.611 104.242C109.898 101.098 110.31 94.1674 114.097 89.2979C109.147 93.0724 104.519 97.2521 100.262 101.794C97.0958 104.33 93.3202 105.991 89.3116 106.612L90.909 106.792C99.128 108.132 107.785 112.126 116.365 108.879C121.832 106.979 126.366 103.062 129.041 97.9291C123.141 105.246 113.505 103.881 105.105 105.195ZM127.495 62.5024C124.429 71.6489 126.877 83.1143 121.878 91.3333V91.6425C125.125 89.066 128.577 87.0563 131.952 84.8406C140.197 79.2238 145.762 70.541 144.242 60.6216C143.675 66.5732 139.089 70.9275 134.709 75.2303C132.137 78.3309 129.729 81.5646 127.495 84.9179H127.186C129.051 82.1872 130.13 78.9963 130.303 75.694C130.484 69.9742 128.01 65.1562 128.655 59.4879L127.495 62.5024ZM48.5 96.6924C56.107 100.914 64.6631 103.131 73.3631 103.134C82.4224 103.171 91.3215 100.746 99.109 96.1167C106.896 91.4877 113.28 84.8294 117.576 76.8534C123.888 64.8314 125.216 50.808 121.272 37.8147C117.329 24.8215 108.43 13.9021 96.4999 7.41706C88.8929 3.19534 80.3368 0.978722 71.6368 0.975834C62.577 0.935624 53.6767 3.35987 45.8887 7.9891C38.1007 12.6183 31.7182 19.2783 27.4243 27.256C21.1049 39.2768 19.7733 53.3026 23.7176 66.2978C27.662 79.293 36.5651 90.2123 48.5 96.6924ZM25.3115 65.5942C24.0547 61.4699 23.3359 57.2005 23.1731 52.8921H24.9766C24.6284 54.0344 24.5317 55.2386 24.6932 56.4219L24.8993 57.4267L25.1054 58.7923L25.2858 59.4621C25.2039 58.6016 25.2473 57.7337 25.4146 56.8857C25.6207 56.1642 25.9299 56.0354 25.9299 55.1852L26.0587 55.8551C26.3421 55.5716 26.3164 55.3398 26.7286 55.1594C26.8536 55.3501 26.9492 55.5586 27.012 55.7778C27.0658 56.0252 27.1435 56.2668 27.2439 56.4992C27.3985 56.7568 27.5016 56.8084 27.6304 57.0145C27.7603 57.193 27.8564 57.3939 27.9138 57.6071C28.0426 57.9935 28.1715 58.5604 28.6095 58.6892C28.7434 58.2649 28.7873 57.8174 28.7383 57.3752C28.7383 57.3752 28.7383 56.9629 28.8929 56.8857C29.0475 56.8084 29.2536 57.2721 29.2793 57.4525C29.3972 57.9015 29.5703 58.3343 29.7946 58.7407C30.0523 59.2045 30.2584 59.1272 30.5934 59.8486V59.5652C30.7479 59.9259 30.5934 60.2093 30.9541 60.4412C30.9023 60.0134 30.9023 59.5808 30.9541 59.153H31.2632L31.5209 60.9565C31.5431 61.1793 31.6231 61.3924 31.7528 61.5749C31.8233 61.6348 31.9055 61.6795 31.9942 61.7062C32.0829 61.7328 32.1762 61.7407 32.2681 61.7295C33.9267 68.735 37.3911 75.184 42.3164 80.4348L36.8027 85.9484C35.8236 84.8921 34.8446 83.81 33.9428 82.6763C29.9939 77.5828 27.0475 71.7862 25.26 65.5942H25.3115ZM105.183 74.5861L104.796 73.3752C104.796 72.9629 104.564 72.2158 104.126 72.0612C104.126 71.9324 104.307 71.7778 104.281 71.5974C104.255 71.417 103.379 71.2625 103.096 71.5974C102.812 71.9323 103.096 72.1642 102.967 72.3703C102.952 72.9392 102.857 73.5031 102.684 74.0451C102.503 74.4315 102.014 74.9726 102.014 75.4106C102.055 75.552 102.14 75.6773 102.255 75.7694C102.37 75.8615 102.511 75.9162 102.658 75.9259V76.9823C102.658 77.1111 103.122 77.1626 103.353 77.1111C102.563 78.0902 101.704 79.0435 100.777 79.971L99.3599 78.5282C99.6033 78.193 99.7624 77.8042 99.8236 77.3945C99.8236 76.9307 99.4114 76.905 99.231 76.6989C99.0507 76.4927 99.1022 76.467 98.9734 76.4154C98.8446 76.3639 98.4066 76.4154 98.1747 76.4154H97.2729C97.1961 75.4697 97.3648 74.5201 97.7624 73.6586C97.9686 73.0145 98.1747 72.3703 98.355 71.7262C100.278 69.221 101.815 66.4419 102.915 63.4815C104.147 60.1788 104.834 56.6983 104.951 53.1755H112.242C112.093 57.5816 111.223 61.9335 109.666 66.058C108.504 69.1819 106.946 72.1434 105.028 74.8695C105.063 74.8319 105.085 74.7836 105.09 74.7323C105.094 74.6809 105.082 74.6295 105.054 74.5861H105.183ZM97.8655 34.2641C101.436 39.3155 103.418 45.3168 103.56 51.5008H97.4533V51.3462C97.4533 51.1916 97.2471 50.9855 97.2471 50.8824C97.2471 50.7794 97.376 50.5475 97.5048 50.3671C97.6336 50.1868 97.7109 49.6457 97.9428 49.4138C98.1747 49.1819 98.3035 49.4138 98.4066 49.1562C98.5096 48.8985 97.9428 48.3575 98.2004 47.8422C98.3769 47.5352 98.6618 47.3054 98.9991 47.1981H99.566C99.7721 47.1981 99.7721 46.6828 99.8752 46.4766C99.9782 46.2705 100.39 45.9356 100.468 45.1884C100.547 44.9105 100.547 44.616 100.468 44.3381C100.422 44.2839 100.362 44.2433 100.295 44.2209C100.227 44.1984 100.155 44.195 100.086 44.211C100.016 44.227 99.9529 44.2617 99.9021 44.3114C99.8514 44.3611 99.8153 44.4239 99.7979 44.4927C99.6838 44.8091 99.6838 45.1554 99.7979 45.4718C99.8047 45.8321 99.7158 46.1877 99.5402 46.5024C99.3083 46.9146 98.8703 46.6312 98.7415 46.5024C98.6127 46.3736 98.7415 46.2963 98.7415 46.1932C98.7035 45.8335 98.7035 45.4708 98.7415 45.1111C98.8299 44.8081 98.8903 44.4976 98.9219 44.1836C98.7408 43.8762 98.5246 43.5909 98.2777 43.3333C98.0459 43.1014 97.6078 42.5346 97.2214 42.7923C96.8349 43.0499 96.938 43.6683 96.8607 44.0547C96.7834 44.4412 96.8607 44.5443 96.603 44.5443C96.3454 44.5443 96.3196 44.5443 96.2165 44.3897C96.0657 44.2707 95.9402 44.1228 95.8473 43.9547C95.7544 43.7866 95.6959 43.6016 95.6755 43.4106C95.8301 43.4106 96.2681 43.5652 96.3196 43.4106C96.3711 43.256 96.0362 42.8438 95.8301 42.8695C95.6239 42.8953 95.5724 43.0499 95.289 42.8695C95.0056 42.6892 94.5418 41.8132 94.2842 41.5298C93.9549 41.1209 93.542 40.7871 93.0732 40.5507H92.8671C91.9797 39.0152 90.9161 37.5885 89.698 36.2995L93.2536 32.3059H93.4597V32.0483L94.9283 30.5797C95.9644 31.6685 96.9202 32.8309 97.7882 34.058C97.652 33.9341 97.5054 33.822 97.3502 33.723C96.954 33.4046 96.5317 33.1202 96.0877 32.8728C96.5227 33.5088 97.1436 33.9947 97.8655 34.2641ZM98.6127 68.7633L98.4066 67.5781C98.4066 67.4235 98.2004 67.2174 97.9943 67.2947C97.7882 67.372 97.4017 68.2995 97.2729 68.5829L96.5772 69.8969C96.4218 70.2118 96.2408 70.5134 96.0362 70.7987C95.7967 70.9747 95.5373 71.1217 95.2632 71.2367C95.2632 70.979 95.0314 71.0306 94.8252 71.1079L93.8719 71.6232C93.6184 71.8272 93.3305 71.9842 93.0217 72.0869H92.8671L91.347 70.541L92.4291 70.2834C92.9444 70.2834 93.1763 70.7472 93.7173 70.2834C94.2028 69.7553 94.556 69.1195 94.7479 68.4283L95.2117 67.2431L95.3921 66.4444C95.6371 65.9495 95.7439 65.3976 95.7012 64.847V63.8422C95.7012 63.4299 95.5467 63.1208 95.1087 63.533C94.6706 63.9452 94.6706 64.2544 94.1296 64.2029C93.975 64.847 94.1296 65.6972 93.4082 66.0837C93.1763 66.2641 92.8929 66.0837 92.6352 66.2641C92.3776 66.4444 92.2745 66.4444 92.1715 66.4187C92.1355 66.4223 92.0992 66.4183 92.0649 66.407C92.0306 66.3956 91.9991 66.3772 91.9724 66.3529C91.9456 66.3287 91.9243 66.299 91.9098 66.2659C91.8953 66.2329 91.8879 66.1971 91.888 66.161C91.888 65.9549 92.2745 65.8003 92.4291 65.7488C92.8789 65.6312 93.2774 65.3686 93.5628 65.0016C93.7946 64.6666 93.8204 64.3832 94.0008 64.0998C94.1811 63.8164 94.3615 63.9195 94.5418 63.6876C94.7222 63.4557 94.9541 62.9404 95.0829 62.7343L95.727 60.8019C96.0362 60.2351 96.5772 60.132 96.7061 59.4106V59.6683C97.2729 59.4106 97.2729 58.8695 97.1698 58.3542C97.573 58.3811 97.9776 58.3811 98.3808 58.3542L99.5917 57.6071C99.8752 57.4009 100.39 57.0402 100.442 56.7311C100.494 56.4219 100.184 55.7778 100.056 55.6232C100.037 55.5748 100.006 55.5324 99.9648 55.5006C99.9239 55.4688 99.8751 55.4488 99.8236 55.4428C99.566 55.4428 99.1795 55.4428 98.9991 55.0821C98.7142 54.5174 98.4731 53.9317 98.2777 53.3301C98.2138 53.2156 98.1619 53.0947 98.1231 52.9694H103.56C103.367 58.5487 101.686 63.975 98.69 68.686L98.6127 68.7633ZM47.6755 50.7278C47.6755 50.3414 47.3405 50.161 47.3148 50.0064C47.289 49.8518 47.5209 49.8261 47.7012 49.5942C47.8838 49.3759 47.9921 49.1052 48.0104 48.8212V47.8937C48.0449 47.6411 48.1468 47.4025 48.3055 47.2029C48.4642 47.0034 48.6738 46.8504 48.9122 46.76C49.2172 46.7424 49.5185 46.8337 49.7624 47.0177C49.4313 48.4906 49.2415 49.9918 49.1956 51.5008H47.7785L47.6755 50.7278ZM50.7415 50.161V49.6715C50.9187 48.1928 51.238 46.7347 51.6948 45.3172C51.8715 45.428 52.0356 45.5576 52.1843 45.7037L52.4935 46.0644H52.7512C52.9937 45.653 53.0934 45.1728 53.0346 44.6989C53.0346 44.4927 52.7254 44.2866 52.6481 44.029C52.6402 43.8526 52.695 43.6792 52.8027 43.5394C52.8739 43.1924 53.0238 42.8663 53.2407 42.5861C53.5038 42.3294 53.8474 42.1713 54.2134 42.1385C54.5795 42.1056 54.9458 42.2 55.2504 42.4058C55.5338 42.6377 55.508 42.818 55.6111 42.9726C55.7141 43.1272 56.0748 43.1272 56.1521 43.4364C56.1889 43.6149 56.1889 43.799 56.1521 43.9774C56.2427 44.2271 56.2427 44.5007 56.1521 44.7504C55.9249 45.0487 55.7265 45.3679 55.5595 45.7037C55.4049 46.1417 55.5595 46.1675 55.5595 46.5539C55.5595 46.9404 55.1473 47.2238 55.0185 47.6103C54.8896 47.9968 55.0185 48.0483 54.6578 48.2286C54.4295 48.3235 54.1833 48.3675 53.9363 48.3575C53.6479 48.4549 53.3713 48.5845 53.1119 48.7439C53.0856 48.854 53.0856 48.9688 53.1119 49.0789C53.1119 49.3881 53.4468 49.3623 53.7045 49.285C53.9621 49.2077 54.6835 48.8728 55.0958 49.285C55.508 49.6972 55.5595 50.6248 55.8687 50.9855C56.1098 51.1625 56.3951 51.2695 56.6932 51.2947C56.9021 51.3559 57.0954 51.4614 57.26 51.6038H50.6384C50.6642 50.9597 50.69 50.5217 50.7415 50.0579V50.161ZM87.7141 69.9227C87.7968 70.0857 87.8575 70.259 87.8945 70.438C87.8945 71.1336 87.1215 71.2625 86.6835 71.6232C86.2455 71.9839 86.1425 72.2673 85.8591 72.3961C85.2102 72.771 84.518 73.0652 83.7979 73.2721L82.7157 73.4782C82.4396 73.5964 82.2123 73.8055 82.0716 74.0708C82.0716 74.277 82.0716 74.5346 81.8655 74.6634C81.3576 74.8283 80.8277 74.9151 80.2938 74.9211C79.8558 74.9211 80.0104 74.7407 79.3663 74.7923C78.8013 74.857 78.2308 74.857 77.6658 74.7923C81.3836 73.915 84.8322 72.1465 87.7141 69.6393V69.9227ZM76.9702 61.4203C76.9702 61.2657 76.9702 61.0853 77.1505 61.0853C77.3309 61.0853 77.5628 61.4203 77.5885 61.6779L77.1505 61.884C77.099 61.6264 76.9959 61.4718 76.9702 61.3172V61.4203ZM73.26 73.8905V73.1175C73.5177 72.9114 73.9557 72.8083 74.1876 72.628C74.4194 72.4476 74.1876 72.1385 74.5998 72.0096C75.012 71.8808 75.1409 72.0096 75.5016 72.0096C75.8623 72.0096 76.1457 71.5716 76.4549 71.4943C76.764 71.4171 76.9702 71.8293 77.4082 71.9324L79.1602 72.3188C79.2362 72.2992 79.316 72.2992 79.3921 72.3188C79.624 72.4992 79.5724 72.6538 79.3921 72.7568L78.4903 73.0145C76.7919 73.5305 75.0339 73.8249 73.26 73.8905ZM80.0362 72.0096C80.0362 71.8808 80.3454 71.8808 80.5257 71.855C80.2681 71.5459 80.062 71.6747 79.7528 71.6489C79.4436 71.6232 79.5209 71.5201 79.3405 71.4686C79.1602 71.4171 79.0571 71.6232 78.8252 71.4686C78.5933 71.314 78.4903 71.2882 78.3099 71.2625C78.1296 71.2367 77.7173 71.0821 77.7431 70.8245C77.7689 70.5668 77.7431 70.6441 77.9235 70.6441H78.0781V70.876C78.6449 70.6441 78.4645 70.876 78.9541 71.0048C79.4175 70.9794 79.8819 70.9794 80.3454 71.0048C80.6288 71.0048 80.5515 71.2625 80.7834 71.5201C81.0153 71.7778 81.5048 71.5201 81.8655 71.5201C81.2203 71.8323 80.558 72.1075 79.8816 72.3446V72.19C79.9589 72.2931 79.9074 72.1385 80.0362 72.0096ZM84.8542 68.8921C84.6508 69.0696 84.4356 69.2331 84.2101 69.3816C84.0555 69.562 84.2101 69.665 83.8752 69.8454L84.0555 69.4589C83.8752 69.4589 83.669 69.4589 83.5402 69.2786C83.502 69.1263 83.502 68.967 83.5402 68.8148C83.5878 68.3296 83.7005 67.8529 83.8752 67.3977C84.0717 67.2837 84.2788 67.1888 84.4935 67.1143V67.4492C84.6648 67.4665 84.8375 67.4665 85.0088 67.4492C85.1892 67.4492 85.3695 67.1143 85.4983 66.8824L86.3228 67.7069C86.0443 67.7486 85.7745 67.8356 85.5241 67.9646C85.2149 68.3253 85.1376 68.6087 84.8542 68.8921ZM85.2149 66.6248L84.8285 66.7536C84.8285 66.7536 84.8285 66.5475 84.983 66.3929L85.2149 66.6248ZM82.9476 71.2109C82.6546 71.2011 82.3697 71.1121 82.1231 70.9533C82.2188 70.9577 82.3143 70.9417 82.4031 70.9061C82.492 70.8705 82.5723 70.8163 82.6384 70.7472V70.541L83.5145 70.0773C83.2568 70.5153 83.5145 70.4122 83.5145 70.7987L82.9476 71.2109ZM87.6111 66.2383L87.3534 66.6505L86.7866 66.058H86.9927C87.1473 66.058 87.4565 65.8518 87.5595 66.058C87.6626 66.2641 87.6884 66.1352 87.6626 66.2383H87.6111ZM74.0845 64.2286C74.1006 64.3255 74.1455 64.4153 74.2133 64.4863C74.2133 64.8212 74.0845 64.7182 74.4452 65.1819L74.2648 65.4138H74.471C74.471 65.8003 74.5998 66.0322 74.9605 65.9549C75.1079 65.8907 75.2395 65.7953 75.3463 65.6751C75.4531 65.555 75.5324 65.4131 75.5789 65.2592L76.3003 66.4444C76.4291 66.599 76.4549 66.8567 76.661 66.8824C76.8671 66.9082 76.9702 66.7021 77.0475 66.5217L77.3566 66.2383C77.4855 65.9549 77.2278 65.5426 77.3566 65.285C77.4272 65.0821 77.4874 64.8757 77.537 64.6666C77.537 64.3059 77.2278 64.2286 77.0475 64.0225C76.9336 63.9024 76.8614 63.7488 76.8413 63.5845L77.6143 63.2496C77.7431 63.4042 77.7689 63.5588 77.8719 63.6618C77.9661 63.6734 78.0612 63.6734 78.1553 63.6618C78.2654 63.6881 78.3802 63.6881 78.4903 63.6618C78.7479 63.6618 79.0056 63.0692 79.2632 62.8889C79.5209 62.7085 79.6239 62.8889 79.7785 62.8889C79.9331 62.8889 79.4436 63.3526 79.3663 63.4815C79.289 63.6103 78.7995 63.6876 78.7737 63.9968C78.7479 64.3059 79.2375 64.3832 79.2375 64.7697C79.2375 65.1562 78.7995 64.7697 78.6706 65.0274C78.5418 65.285 78.6706 65.5684 78.7995 65.8261C78.836 65.9872 78.836 66.1545 78.7995 66.3156C78.5676 66.7021 78.3872 66.4702 78.0781 66.6505C77.7689 66.8309 77.5628 67.1658 77.3051 67.2431C77.0475 67.3204 76.9186 67.2431 76.764 67.2431C76.6095 67.2431 76.3776 67.6038 76.0169 67.2431C75.6562 66.8824 76.0169 66.7021 76.0169 66.3929L75.785 65.8518C75.5016 66.058 75.1924 66.2898 75.2954 66.7021C75.3985 67.1143 75.785 67.372 75.6046 67.6554C75.4243 67.9388 75.1409 67.6554 74.909 67.9903C74.6771 68.3253 74.2906 68.7375 74.1876 68.789C74.0845 68.8406 73.8784 68.9179 73.7238 69.0467L73.2858 69.4847V69.0724H73.5177L73.6723 68.5829L73.4146 68.4283V64.3317L74.0845 64.2286ZM72.6417 41.1948H73.26H73.0281C72.8623 41.2027 72.7018 41.2562 72.5644 41.3494C72.4098 41.4782 72.5644 41.7874 72.5644 41.942L72.822 42.3027C72.3067 42.4315 72.3582 42.818 72.4098 43.2818C72.454 43.7845 72.5315 44.2837 72.6417 44.7761C72.7074 44.917 72.8041 45.0411 72.9246 45.1393C73.045 45.2374 73.1861 45.3071 73.3373 45.343C73.5301 45.4042 73.7371 45.4042 73.9299 45.343V44.6989H74.0845L74.2391 45.2142H74.4452L75.1151 45.3687V45.9613C75.1151 46.1159 75.5789 46.3993 75.888 46.3736C75.8979 46.571 75.8979 46.7688 75.888 46.9662C75.888 47.2238 75.7592 47.2496 76.0684 47.7906C76.0684 47.7906 76.2745 48.1513 76.4291 48.1513C76.5837 48.1513 76.9186 47.7133 77.2793 47.533C77.2793 47.7906 77.2793 47.8422 77.5885 47.9968V48.2544L78.2069 47.8937C78.0265 48.6924 77.6658 48.5121 77.3051 49.0274C76.9444 49.5427 77.3051 49.5684 77.1763 49.8518L77.3824 49.723H77.537C78.0008 49.723 77.537 50.2125 77.6658 50.3156C77.7946 50.4187 77.7946 50.5217 77.8977 50.5475L77.6401 50.7278L77.7946 51.0886H76.8413C76.3686 51.2372 75.9366 51.4929 75.5789 51.8357H75.7335L74.8317 52.2737H76.4291V52.4799L77.5885 52.8663H78.2584C78.4388 52.8663 78.3872 53.2786 78.7737 53.3559C79.1709 53.3776 79.5677 53.307 79.9331 53.1497L79.4951 53.6135L79.7012 53.9742L80.2165 53.8196C79.8301 54.2061 79.8558 53.8196 79.1087 53.9742C79.289 53.9742 79.7785 54.2834 79.9074 54.3092C80.0362 54.3349 80.3196 54.3092 80.7061 54.3092C81.0925 54.3092 81.4275 54.6183 81.5563 54.1288C81.596 54.22 81.658 54.2998 81.7367 54.3607C81.8807 54.3947 82.0307 54.3947 82.1747 54.3607C82.4262 54.4297 82.6508 54.5735 82.8188 54.7729L82.69 55.0821C82.6471 54.9488 82.5769 54.826 82.4838 54.7214C82.1747 54.3607 81.7109 54.5153 81.3244 54.438L80.5515 54.2319H79.9589C79.6497 54.2319 79.4694 54.0257 79.1344 54.0515C78.7995 54.0773 78.8768 54.0515 78.9025 54.2319C78.9283 54.4122 79.0314 54.438 79.0829 54.4895C79.3361 54.5824 79.5781 54.7034 79.8043 54.8502C80.012 54.9621 80.2396 55.0321 80.4742 55.0563L80.7576 55.1852H81.2471C81.3834 55.1605 81.5231 55.1605 81.6594 55.1852L80.7576 55.5974H80.0362C80.1908 55.9066 80.2423 55.9581 80.0362 56.2415L79.9074 56.0354C79.8224 56.1956 79.7277 56.3505 79.6239 56.4992L79.3921 56.7826C79.3921 56.7826 79.2117 57.066 79.1087 57.066C79.0056 57.066 78.7737 56.8856 78.6449 56.7826C78.554 56.733 78.4521 56.707 78.3486 56.707C78.245 56.707 78.1432 56.733 78.0523 56.7826C78.2584 57.0918 78.3615 57.0402 78.6449 57.1691C79 57.4077 79.3283 57.6842 79.6239 57.9935H79.4951C79.3663 57.9935 79.4951 58.5861 79.6239 58.7407C79.6762 58.7873 79.7375 58.8228 79.8039 58.8449C79.8704 58.8671 79.9406 58.8755 80.0104 58.8695L79.3663 59.4621H79.7785L79.5724 59.6425H79.4436L78.7479 59.1272L78.0265 58.818C78.3396 58.8955 78.6668 58.8955 78.9798 58.818C79.4436 58.5604 79.2117 58.0451 78.9798 57.7617C78.7726 57.6559 78.5425 57.6028 78.3099 57.6071C78.0555 57.5407 77.7974 57.4891 77.537 57.4525L76.9702 57.5813V57.4009H76.5837C76.4291 57.4009 76.4033 57.2206 76.1972 57.1691V57.4525L75.9396 57.1948V57.4782C75.785 57.2721 75.785 57.2206 75.5789 57.1175L75.7592 57.8132V57.9678C75.6421 58.1246 75.5587 58.3041 75.5144 58.4947C75.47 58.6854 75.4657 58.8832 75.5016 59.0757C75.5294 59.5092 75.4859 59.9444 75.3727 60.3639C75.4272 60.7226 75.4272 61.0874 75.3727 61.446C75.3727 61.446 75.3727 61.8067 75.1924 62.0129C73.0863 62.5681 70.8584 62.4419 68.8285 61.6522C67.0415 60.9814 65.4627 59.852 64.2506 58.3776C63.0385 56.9032 62.2359 55.1357 61.9235 53.2528L62.0523 53.0467C62.3099 52.7633 62.7737 52.6602 63.1859 52.1449C63.1859 52.1449 62.7479 51.9646 62.7737 51.81C62.7995 51.6554 63.1859 51.5523 63.3921 51.4235C63.694 51.1622 63.9021 50.8093 63.9847 50.4187H62.413L61.8977 50.0322C61.873 49.8699 61.873 49.7049 61.8977 49.5427C61.9258 49.5563 61.9566 49.5634 61.9879 49.5634C62.0191 49.5634 62.05 49.5563 62.0781 49.5427C62.2842 49.5427 62.2584 49.2335 62.413 49.1304C62.5676 49.0274 63.1087 48.6924 63.1859 48.2544H63.9074C64.1135 48.2544 64.5 49.2335 64.7061 49.6457C64.165 49.4654 64.2681 49.9549 64.2423 50.3156C64.4484 50.3156 64.6803 49.9034 64.8864 49.8518H65.5821C65.7367 49.8518 65.7882 49.8518 65.9428 49.723C66.0974 49.5942 66.5354 49.8776 66.7415 50.1868C66.9476 50.058 66.9219 49.9549 66.7415 49.7488H67.0249L66.8703 49.3365C66.5869 49.3365 66.5354 49.3365 66.4581 49.5942C66.3231 49.4751 66.1485 49.4108 65.9686 49.4138L66.1489 49.2335C65.6851 49.0016 66.1489 48.847 66.2777 48.5894C66.3055 48.5287 66.3199 48.4628 66.3199 48.3961C66.3199 48.3294 66.3055 48.2635 66.2777 48.2029L66.9476 47.9452C67.231 47.5845 67.4629 47.9452 67.5917 47.4557C68.1328 47.4557 67.9524 46.8889 68.3647 46.7343C68.4835 46.7085 68.6065 46.7085 68.7254 46.7343L69.1892 46.5282C69.3601 46.5525 69.5336 46.5525 69.7045 46.5282C69.9042 46.3587 70.0855 46.1687 70.2455 45.9613C70.2455 45.8325 70.5289 45.6522 70.5805 45.5491C70.5978 45.3519 70.5978 45.1537 70.5805 44.9565C70.6713 44.9917 70.7713 44.9956 70.8646 44.9676C70.958 44.9396 71.0393 44.8813 71.0958 44.8019C71.2504 44.8019 71.2246 44.467 71.0958 44.3897H70.8381L71.5595 43.7456L71.7141 43.0757H71.508V42.7407H70.9154L71.4049 42.1739C71.6368 41.9935 71.9202 42.0193 72.0233 41.6844C71.4428 41.8633 70.9248 42.2027 70.5289 42.6634L70.0136 43.3591V43.153C69.4983 43.3076 69.5241 43.6167 69.318 43.7456C69.0696 43.7197 68.8192 43.7197 68.5708 43.7456C68.2161 43.8383 67.8434 43.8383 67.4887 43.7456C67.3341 43.591 67.2053 43.4621 66.9991 43.5652L66.355 43.0757C68.2112 41.8253 70.4038 41.1693 72.6417 41.1948ZM60.1199 39.0821H59.6819L59.0636 38.4895L60.1972 38.8245C60.5837 38.8245 60.9702 38.8245 61.202 39.2625C60.4033 39.314 60.5322 39.1852 59.9911 39.0821H60.1199ZM51.1537 52.9952H58.7286L59.2439 53.8712L59.785 53.3816C59.9653 53.5877 60.1972 53.562 60.1972 53.3816C60.2076 53.2788 60.2076 53.1752 60.1972 53.0724C60.2785 53.1948 60.3231 53.3378 60.326 53.4847C60.3398 53.5959 60.3398 53.7084 60.326 53.8196V54.1288C60.3181 54.2145 60.3181 54.3008 60.326 54.3865C60.706 56.42 61.5921 58.3251 62.9025 59.9259L56.1264 66.7278C53.0106 63.2041 51.0897 58.785 50.6384 54.103C50.8074 53.749 50.937 53.3775 51.0249 52.9952H51.1537ZM64.165 60.9565C65.3575 62.0893 66.7692 62.9661 68.3132 63.533C69.444 63.9631 70.6348 64.2152 71.843 64.2802V65.9291C71.669 65.9416 71.505 66.0145 71.3792 66.1352C71.0958 66.4702 71.0958 66.9082 71.5338 67.0885C71.5338 67.5266 71.6626 67.4235 71.843 67.5523V67.9646H71.6368L71.4565 68.248L71.2246 68.5314L71.843 68.7117C71.5338 68.7117 71.3534 68.7117 71.1215 69.124H71.843V69.7681C71.7791 69.7624 71.715 69.7767 71.6596 69.809C71.6042 69.8413 71.5602 69.89 71.5338 69.9484C71.5338 70.0773 71.6884 70.1803 71.843 70.2319V71.6489C71.3534 71.6489 70.5805 71.3913 70.1167 71.3655C69.6529 71.3398 69.6787 71.8293 69.5499 72.1642C69.421 72.4992 69.318 72.4992 69.2922 72.6795C69.2808 72.7037 69.2748 72.7301 69.2748 72.7568C69.2748 72.7836 69.2808 72.81 69.2922 72.8341C69.2922 72.8341 69.4726 73.4782 69.4726 73.4009C67.9277 73.2574 66.4003 72.9641 64.9122 72.5249C62.0291 71.4853 59.396 69.8528 57.1827 67.7327L64.165 60.9565ZM90.4452 71.9839C89.7984 71.9693 89.1568 71.8653 88.5386 71.6747C88.5386 71.6747 88.7447 71.6747 88.719 71.4943C88.6932 71.314 88.384 70.7987 88.8993 70.6441H89.3373L90.6513 71.9581L90.4452 71.9839ZM90.6256 41.066V41.4525C90.6256 41.5298 90.3679 41.4525 90.2391 41.4525C90.0401 41.2917 89.8129 41.1694 89.5692 41.0918C89.6421 41.3071 89.7371 41.5143 89.8526 41.7101C90.1618 42.0966 90.3679 42.0966 90.3164 42.6377C89.8494 42.4764 89.42 42.2222 89.0539 41.8905L89.4661 41.7359C89.2858 41.7359 88.719 41.2206 88.6932 41.0145C88.6674 40.8084 88.8735 40.8341 88.8735 40.6538C88.8735 40.4734 88.7447 40.4219 88.8735 40.19C89.0024 39.9581 89.3115 39.8808 89.2858 39.6747C89.26 39.4686 89.157 39.4686 89.0539 39.4171C88.9508 39.3655 88.4098 39.0048 88.1779 39.2367C87.946 39.4686 88.1779 39.7778 88.0233 40.2673C87.8226 40.1832 87.6159 40.1143 87.4049 40.0612H86.6578C86.5187 40.0137 86.3882 39.9441 86.2713 39.8551L87.7399 38.3865H88.281C88.4871 38.3865 88.4613 38.5926 88.6674 38.5668C88.8736 38.541 88.8478 38.2319 88.6674 38.0773C88.4871 37.9227 88.0491 37.6908 87.9975 38.2319C87.974 38.1652 87.974 38.0924 87.9975 38.0257L88.6159 37.4074C89.5903 38.402 90.4541 39.4991 91.1924 40.6795C90.6771 40.3446 90.5225 40.7311 90.4967 40.9887L90.6256 41.066ZM86.5547 36.7117L86.1167 36.5056C85.8025 36.3283 85.4639 36.1981 85.1119 36.1191C84.7769 36.1191 84.6996 36.3253 84.442 36.4541C84.1843 36.5829 84.1328 36.5829 84.004 36.7117C83.8752 36.8406 84.004 37.2013 84.004 37.4074C84.7512 37.4074 84.6223 37.124 85.0603 37.0982C85.3054 37.0349 85.5625 37.0349 85.8075 37.0982V37.3043H86.0136L84.3647 38.9533H83.9009C83.5841 38.9634 83.2709 39.0243 82.9734 39.1336C82.8022 39.2473 82.6679 39.4085 82.5869 39.5974C82.355 39.8808 81.8913 40.0354 81.9428 40.4734C81.9943 40.9114 82.2004 40.8084 82.3293 40.8857L81.479 41.7359L80.7061 41.9162C80.0619 41.9162 79.8558 41.5555 79.4694 41.3752C79.0829 41.1948 79.0829 41.3752 78.9025 41.2206C78.8116 41.1097 78.7337 40.9887 78.6706 40.8599C78.4224 40.7125 78.1333 40.6493 77.8462 40.6795C77.5486 40.5245 77.2383 40.3952 76.9186 40.2931L77.4597 39.9581C77.6401 39.8293 77.9492 39.7005 78.1038 39.5716C78.3136 39.2763 78.4587 38.9402 78.5297 38.585C78.6007 38.2298 78.5961 37.8637 78.5161 37.5105C77.6916 37.8454 77.9235 37.8969 77.3566 38.2061C77.2162 38.286 77.0697 38.3549 76.9186 38.4122C76.8519 38.4653 76.7968 38.5316 76.7569 38.607C76.717 38.6824 76.6931 38.7652 76.6867 38.8502C76.0942 38.8502 76.4806 39.4686 76.4033 39.7262C76.3498 39.8524 76.2602 39.96 76.1457 40.0354C75.2618 39.7853 74.3558 39.6213 73.4404 39.5459V30.219C78.6614 30.3979 83.6444 32.446 87.4822 35.9903L86.5547 36.7117ZM71.7141 39.7778C69.4115 39.9284 67.1974 40.7229 65.3244 42.0708C65.1128 41.7892 65.0038 41.4438 65.0153 41.0918C64.9968 40.8119 64.9177 40.5393 64.7834 40.2931C64.7356 40.1461 64.6662 40.0072 64.5773 39.8808C64.3897 39.7139 64.1918 39.559 63.9847 39.4171C63.7699 39.1872 63.492 39.0259 63.1859 38.9533C62.7995 38.9533 62.5161 39.1079 62.1811 38.9533C61.8462 38.7987 61.5628 38.541 61.2278 38.4122C60.9975 38.3738 60.7625 38.3738 60.5322 38.4122C60.5322 38.4122 60.5322 38.103 60.3776 38.0515C60.223 38 59.888 38.0515 59.6819 38.0515C59.4758 38.0515 59.3985 38.0515 59.2439 37.8969C58.9964 37.8574 58.7442 37.8574 58.4967 37.8969L57.1827 36.5829C61.1062 32.7097 66.3341 30.4403 71.843 30.219L71.7141 39.7778ZM57.4661 39.1594H57.0797C56.6932 39.1594 56.6159 38.876 56.384 38.7729C56.2933 38.7098 56.1854 38.6759 56.0748 38.6759C55.9643 38.6759 55.8564 38.7098 55.7657 38.7729C55.3315 38.9848 54.9388 39.2728 54.6062 39.6232L54.3486 39.7778C54.8294 39.0834 55.3543 38.4208 55.9202 37.7939L57.4661 39.1594ZM47.7528 52.9179L47.9331 53.0982V52.9179H49.1441C49.27 55.956 49.9877 58.9404 51.2568 61.7037C52.2344 63.865 53.5378 65.8636 55.1215 67.6296L50.5611 72.1642L50.2004 71.7262L49.6851 70.9275L49.4533 70.541C49.3626 70.3451 49.3018 70.1367 49.2729 69.9227L48.6803 68.4283C48.4227 67.913 47.8816 67.9646 47.5467 67.2431C47.8295 67.5796 48.1808 67.8519 48.5772 68.0418C48.3888 67.5448 48.1469 67.0696 47.8558 66.6248L47.3148 66.0837C47.5643 66.3325 47.8755 66.5104 48.2165 66.599V66.161C48.3969 65.6972 48.5515 65.6457 48.5515 65.1046C48.5515 64.5636 47.6497 62.8889 47.5467 61.781C47.4954 61.2928 47.4954 60.8006 47.5467 60.3124V58.38C47.5953 58.1333 47.5953 57.8795 47.5467 57.6328L47.289 56.7311V55.2625C47.289 54.6441 47.5724 54.3349 47.624 53.8969C47.6019 53.5735 47.4753 53.2661 47.2632 53.0209H46.8768L47.7528 52.9179ZM53.1634 76.1063C53.0346 75.694 52.3905 75.256 52.0555 74.5861C51.7206 73.9162 51.6948 73.9162 51.5144 73.5813L56.2294 68.8663C58.5373 71.1419 61.3042 72.8987 64.3454 74.0193C65.7932 74.573 67.2961 74.9703 68.8285 75.2045C68.6908 75.2436 68.5604 75.3045 68.442 75.3848C68.0813 75.6425 68.2616 75.8486 67.8494 76.029C67.4634 76.0567 67.0759 76.0567 66.69 76.029C66.1973 76.0772 65.7217 76.2357 65.2987 76.4927L64.7318 76.6989C64.5257 76.6989 64.1135 76.8534 64.0104 77.0338C63.9074 77.2141 64.0104 77.3945 64.0104 77.5491C64.0244 77.712 64.0244 77.8757 64.0104 78.0386C63.727 78.4509 63.0056 78.7858 63.1344 79.3526C63.2632 79.9195 63.4436 79.7649 63.8558 80.0998C64.3144 80.7159 64.8228 81.2933 65.376 81.8261C65.7302 82.0812 66.1002 82.3135 66.4839 82.5217C64.8242 82.1966 63.1952 81.7311 61.6143 81.1304C58.5494 79.9992 55.6871 78.381 53.1376 76.3381C53.182 76.2232 53.191 76.0975 53.1634 75.9774V76.1063ZM92.5322 30.76L91.6304 29.7037C91.6304 29.7037 91.3212 29.2915 91.347 29.1369C91.4954 29.0468 91.6633 28.9938 91.8365 28.9823L90.8059 28.0547C90.8059 28.0547 90.5225 27.7713 90.3164 27.8486C90.1103 27.9259 90.033 28.1836 89.9299 28.3639C89.8268 28.5443 89.698 28.6989 89.7238 28.8534C89.8335 29.0754 89.9818 29.2761 90.1618 29.446L91.1151 30.219C91.2916 30.461 91.5327 30.6485 91.8107 30.76L91.6562 30.5024C91.8922 30.5593 92.1015 30.6958 92.2487 30.8889V31.0177L88.281 34.9597C84.1574 31.1632 78.8103 28.9694 73.2085 28.7762V21.0467C76.6599 21.1389 80.0725 21.8005 83.3083 23.0048C87.1882 24.4567 90.7367 26.6734 93.7431 29.5233L92.5322 30.76ZM71.7141 28.7762C65.8288 28.9966 60.2397 31.4142 56.0491 35.5523L50.5869 30.1159C56.2246 24.5078 63.7908 21.2638 71.7399 21.0467L71.7141 28.7762ZM54.9927 36.686C53.1886 38.7401 51.7585 41.0946 50.7673 43.6425V43.7713C50.5787 44.0895 50.4233 44.4262 50.3035 44.7761C50.0221 44.9868 49.72 45.1681 49.4017 45.3172L48.9895 45.4718C48.8495 45.6038 48.7358 45.7612 48.6545 45.9356L48.1392 46.5024C47.8596 46.9177 47.6182 47.3575 47.4178 47.8164C47.4178 48.1771 48.0104 48.3317 47.7012 48.847L47.5467 49.0274C47.2117 49.285 47.1087 49.0274 46.851 48.8728C46.5934 48.7182 46.0265 49.2077 45.7173 48.8728C45.4082 48.5378 45.7173 48.409 45.5885 48.1771C45.5127 47.9921 45.4267 47.8115 45.3309 47.6361C45.202 47.3784 45.3309 46.8889 44.9186 46.3736C44.5064 45.8583 44.5064 45.9871 44.326 46.3736V46.7085C44.0942 46.2447 44.326 45.8583 43.8365 45.781C43.347 45.7037 43.1924 46.322 42.909 46.6828C42.6688 47.0241 42.3621 47.3134 42.0072 47.533C42.8846 41.4124 45.577 35.6955 49.7367 31.1208L54.9927 36.686ZM35.4114 64.7182V65.4138C35.444 65.8629 35.5394 66.3052 35.6948 66.7278C35.8882 67.3381 36.1474 67.9256 36.4677 68.4799C36.8322 68.8649 37.2286 69.2183 37.6529 69.5362C38.1321 70.0307 38.6489 70.4873 39.1988 70.9017L39.8945 71.3655L40.4613 71.752C40.9766 72.0354 41.0281 71.5459 41.3373 71.5201C41.6688 71.6803 41.9801 71.8792 42.2648 72.1127C42.7195 72.5104 43.1259 72.9601 43.4758 73.4525L44.8671 74.9468C45.2278 75.2818 45.6658 75.9517 46.1553 76.0032H46.6449L43.4758 79.1723C40.5112 76.0155 38.083 72.3949 36.2874 68.4541C35.8752 67.5266 35.4887 66.599 35.1537 65.6715C35.1581 65.5942 35.1581 65.5168 35.1537 65.4396C35.3599 65.3881 35.2568 64.9501 35.4114 64.7182ZM35.8752 52.9179H38.9154C38.8739 53.0532 38.8042 53.1783 38.711 53.2849C38.6177 53.3914 38.503 53.4771 38.3743 53.5362C38.1106 53.5876 37.8394 53.5876 37.5756 53.5362C37.3953 53.5362 37.2665 53.2786 37.1119 53.2528C36.7799 53.2868 36.4446 53.2427 36.1328 53.124L35.8752 52.9179ZM49.4533 75.694L50.3293 76.029L50.8446 76.2866C53.8525 79.0135 57.3494 81.1466 61.1505 82.5732C64.5344 83.8331 68.1044 84.521 71.7141 84.6087V91.9001C61.559 91.6691 51.8708 87.5893 44.6095 80.4863L49.4533 75.694ZM73.3116 84.6087C75.2513 84.5555 77.1825 84.3313 79.0829 83.9388C78.9541 84.2737 78.6449 84.6602 78.9541 84.9179C79.483 85.133 80.0371 85.2802 80.603 85.3559C81.0849 85.4933 81.5325 85.7303 81.917 86.0515C82.0458 86.0515 82.0458 86.2576 82.1747 86.4122C82.3035 86.5668 82.5611 86.6183 82.5869 86.7987C82.6127 86.979 82.252 87.2367 82.1747 87.3655C82.0974 87.4943 81.3244 88.3961 81.6336 88.8599C81.8183 89.0136 82.0273 89.1355 82.252 89.2206L83.7979 89.6844C84.0226 89.7642 84.2194 89.9074 84.3647 90.0966C80.7836 91.2153 77.0625 91.8225 73.3116 91.9001V84.6087ZM98.793 82.0322C98.795 81.9482 98.7775 81.8649 98.7417 81.7888C98.7059 81.7128 98.6529 81.6462 98.5869 81.5942H97.7624C97.9739 81.0817 98.2326 80.59 98.5354 80.1256L99.6948 81.285L98.793 82.0322ZM104.977 51.6811C104.835 43.4204 101.567 35.5207 95.8301 29.5749L97.6078 27.8486C97.7597 28.0392 97.9326 28.212 98.1231 28.3639C98.3829 28.5034 98.6602 28.6073 98.9476 28.6731C99.2084 28.8271 99.4581 28.9993 99.6948 29.1884C100.159 29.4203 100.184 29.1884 100.725 29.6779C101.392 30.2547 102.028 30.8653 102.632 31.5072C102.952 31.8498 103.326 32.1371 103.74 32.3575H103.894L104.487 32.0483V31.5072C104.487 31.3526 104.487 31.2753 104.642 31.0692C104.796 30.8631 104.642 30.5797 104.796 30.5024C104.951 30.4251 105.26 30.6828 105.363 30.7343C105.179 29.9118 104.748 29.1654 104.126 28.5958L103.173 27.8229C102.772 27.2846 102.342 26.7685 101.885 26.277C101.318 25.7874 100.854 25.6844 100.339 25.2979L100.983 24.4476C107.996 31.7219 112.007 41.3732 112.217 51.475L104.977 51.6811ZM99.2053 24.1642L98.0201 23.1852C97.5857 22.7936 97.1889 22.3624 96.8349 21.8969C96.5 21.4589 96.603 21.2786 96.4227 21.0725C96.1821 20.902 95.9109 20.7795 95.6239 20.7117V20.5056L95.2375 20.3253C95.4694 19.8873 95.2375 20.0161 94.851 19.6039C94.7571 19.4806 94.6871 19.3407 94.6449 19.1916C96.4856 20.443 98.2101 21.8572 99.7979 23.4171L99.2053 24.1642ZM86.9669 18.496L87.7914 19.3462C88.0233 19.5781 88.1006 19.7327 88.3582 20.0419C88.6736 20.2524 88.9671 20.4941 89.2343 20.7633C89.4146 21.0209 89.2343 21.0982 89.3631 21.4589C89.4919 21.8196 90.0072 22.1288 90.1618 22.438C90.3164 22.7472 90.1618 22.9791 90.4452 23.1079C90.7286 23.2367 90.8059 23.1079 90.9605 23.1079C91.1151 23.1079 91.9911 22.6183 92.223 22.7729C92.649 23.1171 93.0454 23.4963 93.4082 23.9066C93.4082 23.9066 93.7689 24.2415 93.7431 24.3961C93.7173 24.5507 92.9186 24.3961 93.1248 24.7311C93.3309 25.066 93.6916 25.0918 93.8719 25.2464L94.5161 25.839L95.289 26.4058C95.4694 26.5604 95.6497 26.8438 95.8301 26.9468C96.0104 27.0499 96.2681 26.7665 96.4999 26.818L94.7995 28.5185C91.6554 25.4919 87.9304 23.1341 83.8494 21.5877C80.4578 20.32 76.8795 19.6235 73.26 19.5266V12.6216H73.4919C74.0037 12.9118 74.5614 13.1122 75.1409 13.2142L74.3679 12.3897C78.4449 12.6292 82.4602 13.4983 86.2713 14.9662C87.3277 15.3526 88.3583 15.7906 89.3631 16.2544C88.9376 16.276 88.5151 16.3364 88.1006 16.4348C87.6368 16.4348 86.6062 16.4348 86.2971 16.9758C85.9879 17.5169 86.6578 18.2125 86.9669 18.496ZM71.7399 19.6039C67.3507 19.7132 63.0294 20.7124 59.0378 22.541C55.5132 24.1276 52.3085 26.3455 49.5821 29.0853L44.4291 23.9324C51.6989 16.6899 61.4804 12.5281 71.7399 12.3124V19.6039ZM48.5515 30.1932C45.7741 33.2603 43.6057 36.8277 42.1618 40.7053C41.1562 43.3813 40.5149 46.1804 40.2552 49.0274C40.0275 49.3586 39.8535 49.7239 39.7399 50.1095L39.4307 51.372H32.938L32.7834 51.0628C33.051 41.4013 36.8134 32.1647 43.3727 25.066L48.5515 30.1932ZM38.2455 86.876L43.7592 81.3881C47.8807 85.4503 52.8155 88.5938 58.2391 90.6119C62.5999 92.2496 67.211 93.1212 71.8687 93.1884V101.459C64.0148 101.166 56.3383 99.0398 49.4533 95.2496C45.2851 93.0052 41.459 90.1768 38.0909 86.8502L38.2455 86.876ZM73.3631 101.459V93.2141C77.7557 93.1113 82.104 92.3112 86.2455 90.8438L87.6368 91.1787C88.2037 91.3591 87.9718 91.694 88.384 91.7455C89.5123 91.6402 90.5861 91.2107 91.4758 90.5088L92.9959 89.7359C93.5885 89.4267 94.1296 89.0402 94.6964 88.6795C95.7279 87.8947 96.5508 86.8683 97.0926 85.6908C97.2214 85.4332 97.5306 84.9436 97.6851 84.6087C98.7415 83.81 99.7206 82.9597 100.7 82.0322L106.857 88.1642C104.178 90.7245 101.202 92.956 97.9943 94.8116C90.5158 99.1655 82.0167 101.459 73.3631 101.459ZM116.107 76.0547C113.912 80.1155 111.154 83.8454 107.914 87.1336L101.782 80.9758C109.145 73.5048 113.384 63.5077 113.634 53.0209H121.904C121.904 54.4638 121.904 55.9323 121.698 57.4009C121.118 63.9337 119.216 70.2802 116.107 76.0547ZM119.74 38.5153C121.016 42.6968 121.735 47.0283 121.878 51.3977H113.634C113.46 40.95 109.325 30.9582 102.065 23.4428L107.579 17.9291C108.713 19.1143 109.82 20.3253 110.851 21.6135C114.858 26.6332 117.875 32.369 119.74 38.5153ZM106.497 16.847L100.983 22.3349C94.75 16.3948 86.8287 12.5332 78.3099 11.2818C79.0128 11.2831 79.7105 11.1611 80.3711 10.9211C80.1135 10.5604 79.9589 10.5861 79.5724 10.4573C78.9583 10.2777 78.3057 10.2777 77.6916 10.4573C77.1248 10.6119 77.1505 10.8438 76.4033 10.8953H73.4146V2.67632C85.8482 3.16706 97.6678 8.21033 106.626 16.847H106.497ZM47.0314 9.27213C54.5049 4.93163 62.9943 2.64704 71.6368 2.65055V10.8953C60.9903 11.0951 50.834 15.4069 43.2954 22.9275L37.2665 16.7955C40.1838 13.8776 43.4659 11.3488 47.0314 9.27213ZM36.2101 17.8776L42.3421 24.1642C38.7177 28.0764 35.8831 32.6519 33.9943 37.6393C32.4796 41.7223 31.6103 46.0164 31.4178 50.3671C31.1859 50.2125 30.851 49.9034 30.6449 49.8003C30.4388 49.6972 30.413 49.5942 30.3099 49.6715C30.2069 49.7488 30.1811 49.8776 30.1296 50.0064C30.1234 50.1622 30.1527 50.3173 30.2152 50.4601C30.2777 50.6029 30.3717 50.7297 30.4903 50.8309C30.4903 50.8309 30.7222 51.0628 30.4903 51.1916C30.2584 51.3204 29.8977 50.5475 29.6143 50.934C29.3309 51.3204 29.6143 51.1143 29.6143 51.1658L29.3566 50.2898V49.9291L28.8413 49.1047L28.4033 49.5169V49.0274L28.2487 48.6666C28.2487 48.409 27.9653 48.4348 27.7592 48.6666C27.5531 48.8985 27.0893 49.4138 26.8317 49.5942C26.574 49.7745 26.3164 49.5942 26.1103 49.723C25.8481 49.8958 25.6634 50.1637 25.595 50.4702L25.4146 51.4493H23.0958C23.0958 49.9034 23.0958 48.3575 23.3019 46.8116C23.8432 40.2375 25.7286 33.8446 28.8413 28.029C30.8386 24.3347 33.3164 20.9212 36.2101 17.8776Z" fill="white"/>
<path d="M99.6178 37.4848C99.3507 37.0426 99.0399 36.6283 98.6902 36.2481C98.8143 36.579 98.9977 36.8846 99.2313 37.1499C99.3601 37.4075 99.3086 37.5879 99.6178 37.4848ZM98.4068 35.8359C98.1492 35.3721 97.8142 34.7022 97.3247 34.5476C97.5438 35.0784 97.9218 35.5284 98.4068 35.8359ZM100.983 40.9115L101.524 42.5863C101.619 42.4123 101.669 42.2175 101.669 42.0194C101.669 41.8214 101.619 41.6265 101.524 41.4526C101.292 40.7312 100.932 40.0098 100.648 39.3399C100.501 38.9814 100.282 38.657 100.004 38.3866C100.08 38.9638 100.236 39.5276 100.468 40.0613L100.983 40.9115ZM27.5791 63.6104C27.5791 64.4091 27.7852 64.3834 27.9656 65.079C27.9723 65.493 28.0507 65.9028 28.1975 66.29C28.1975 66.5991 28.4293 66.9083 28.7643 67.0371C28.6968 66.2614 28.5235 65.4985 28.249 64.7698C27.9941 64.4025 27.7701 64.0147 27.5791 63.6104ZM64.5002 52.1966C64.5002 52.1966 64.3714 52.3769 64.3198 52.48C64.3127 52.5202 64.3164 52.5616 64.3304 52.5999C64.3445 52.6383 64.3684 52.6723 64.3997 52.6984C64.4311 52.7246 64.4689 52.742 64.5091 52.7488C64.5494 52.7557 64.5907 52.7519 64.629 52.7376C64.7836 52.7376 64.964 52.3769 65.0928 52.2481L65.4535 52.0677C65.6081 52.0677 65.7884 51.7586 65.943 51.6555C66.0976 51.5524 66.4068 51.5009 66.5614 50.9598V50.6764C66.5614 50.5734 65.5823 50.6764 65.5308 50.5476H65.1959C65.0414 50.5377 64.8865 50.5377 64.7321 50.5476C65.0928 50.8826 65.0928 50.9341 65.5823 50.9083C65.5823 51.2433 65.067 51.7586 64.7321 51.5267C64.3971 51.2948 64.4744 51.166 64.3714 51.1144C64.2683 51.0629 64.191 51.3979 64.088 51.5267C63.9849 51.6555 63.4954 51.8874 63.4438 52.5315L63.65 52.4027C63.8818 52.7892 64.2683 52.3254 64.5002 52.1966ZM92.3263 39.2111H92.0171V39.4687L92.1975 39.6233C92.5582 39.8036 92.7128 39.4687 92.5839 39.2626C92.4551 39.0565 92.4551 39.2111 92.3263 39.2111ZM95.8303 35.4236C95.7453 35.3064 95.6325 35.2121 95.5021 35.1492C95.3717 35.0862 95.2278 35.0566 95.0831 35.0629L95.753 35.8101C95.9991 36.1676 96.2749 36.5037 96.5775 36.8149C96.6972 36.9161 96.8379 36.9895 96.9894 37.0296C97.1409 37.0697 97.2994 37.0756 97.4535 37.0468C97.6596 37.0468 98.278 36.3254 97.7627 36.0677C97.2474 35.8101 97.3504 36.0677 97.1958 36.0677C97.2352 35.7512 97.2352 35.431 97.1958 35.1144C97.1958 35.1144 97.1959 34.7795 96.9382 34.8568C96.6806 34.9341 96.9382 35.7586 96.5775 35.5267H96.4229L96.2426 35.3721C96.0622 35.604 96.2426 35.6813 96.4487 35.8874C96.575 35.9589 96.6828 36.0592 96.7634 36.18C96.8439 36.3008 96.895 36.4389 96.9124 36.583C96.2425 36.1966 96.191 35.8874 95.8303 35.4236ZM101.138 42.612C100.545 42.612 100.803 43.3334 100.751 43.488C100.78 43.6152 100.78 43.7473 100.751 43.8745C100.61 44.4587 100.61 45.0681 100.751 45.6523L100.623 47.5846L100.777 48.4349C101.025 47.8975 101.181 47.3229 101.241 46.7344C101.473 45.575 102.014 45.0597 101.859 43.6168C101.653 43.3077 101.524 42.6893 101.138 42.612ZM98.7933 38.2578C98.4638 37.9833 98.0603 37.8129 97.6339 37.7682L97.0155 37.5106V38.1032L96.2941 37.8455C96.2917 38.3007 96.4568 38.7408 96.7579 39.0822L97.3247 39.5202C97.8097 39.9076 98.266 40.3295 98.6902 40.7827C98.8987 41.0328 99.072 41.3102 99.2055 41.6072C99.3343 41.6072 99.4374 41.7875 99.592 41.736C99.7466 41.6845 99.7208 41.4011 99.7723 41.298L99.9527 40.9373C99.9642 40.609 99.8743 40.2851 99.695 40.0098L99.3343 39.2368C99.208 38.8834 99.0253 38.5528 98.7933 38.2578ZM67.7466 49.9292C67.7466 49.6201 67.7466 49.6716 68.0558 49.6974V49.1563C67.8797 49.2139 67.7076 49.2827 67.5405 49.3624C67.2828 49.7489 67.3086 49.9292 67.7466 49.9292ZM67.4889 51.9904V51.7328C67.2891 51.7666 67.097 51.8365 66.9221 51.9389C66.9221 51.9389 66.9221 52.2739 66.6645 52.4542C66.4536 52.6694 66.1987 52.8364 65.9173 52.9437C65.7627 52.9437 65.9173 53.1756 65.5823 53.356C65.2474 53.5363 65.0155 53.356 64.8094 53.5363C64.4927 53.7139 64.2059 53.9399 63.9591 54.2062C63.7241 54.4781 63.5642 54.8068 63.4954 55.1595C63.4954 55.1595 63.3665 55.4172 63.4954 55.5202C63.517 55.5428 63.543 55.5608 63.5718 55.5731C63.6006 55.5854 63.6315 55.5917 63.6628 55.5917C63.6941 55.5917 63.7251 55.5854 63.7539 55.5731C63.7827 55.5608 63.8087 55.5428 63.8303 55.5202C64.089 55.3842 64.3671 55.2886 64.6548 55.2368C64.8094 55.2368 64.8609 55.2368 64.9897 55.3656C65.1186 55.4945 65.2474 55.3656 65.3504 55.3656C65.4827 55.4436 65.6041 55.539 65.7111 55.6491C65.9946 55.6491 66.278 55.4429 66.3553 55.2111C66.3847 55.0926 66.3847 54.9688 66.3553 54.8503L66.5356 54.9792C66.8153 54.696 67.0657 54.3852 67.2828 54.0516C67.5147 53.7682 67.6693 53.7682 67.8239 53.6394C67.9785 53.5106 67.8239 53.4075 67.8239 53.2529C67.8239 53.0983 68.0815 52.9695 68.03 52.583C67.9785 52.1966 67.7981 51.9131 67.4889 51.9904Z" fill="white"/>
<path d="M67.9011 50.9339C67.8158 50.8963 67.7237 50.8769 67.6305 50.8769C67.5374 50.8769 67.4452 50.8963 67.36 50.9339C67.3379 50.8391 67.2938 50.7508 67.2312 50.6763C66.8189 50.2898 66.3036 51.3977 66.9735 51.1916C67.1023 51.5007 67.6176 51.8099 67.9268 52.0676C68.0082 52.0094 68.0708 51.9288 68.1072 51.8357C68.236 51.6038 68.1845 51.0627 67.9011 50.9339ZM67.0508 49.4138L67.1796 49.1819C67.4888 49.1819 67.5146 48.8727 67.3858 48.6408L67.1539 48.4862C66.587 48.1771 66.5355 48.6408 66.4067 48.8727L66.1748 49.3365L66.3552 49.5168C66.6245 49.4395 66.9102 49.4395 67.1796 49.5168L67.0508 49.4138ZM100.571 54.7986C100.465 54.8474 100.378 54.9288 100.323 55.0309C100.267 55.133 100.246 55.2503 100.262 55.3655C100.253 55.428 100.26 55.4917 100.284 55.5504C100.307 55.609 100.346 55.6604 100.395 55.6995C100.445 55.7387 100.504 55.7641 100.566 55.7733C100.629 55.7825 100.693 55.7751 100.751 55.7519C100.983 55.6231 101.164 54.6956 100.571 54.7986ZM71.5597 60.57C71.5149 60.5508 71.4667 60.541 71.418 60.541C71.3693 60.541 71.321 60.5508 71.2763 60.57V60.235H71.0959V60.5957L70.9671 60.4669V61.111C70.9671 61.4718 71.4824 61.3172 71.5597 61.111C71.6513 61.0039 71.6975 60.8653 71.6885 60.7246C71.659 60.6632 71.6147 60.6101 71.5597 60.57ZM67.4888 49.1561C67.5915 49.1678 67.6953 49.1678 67.798 49.1561C67.8924 49.0445 67.9442 48.903 67.9442 48.7568C67.9442 48.6106 67.8924 48.4691 67.798 48.3574C67.6434 48.3574 67.5403 48.4862 67.5661 48.5893V49.2334L67.4888 49.1561Z" fill="white"/>
<path d="M67.4887 50.1095C67.231 50.1095 67.1795 50.1095 67.1537 50.4187H66.8961V50.5733C67.3083 50.496 67.4887 50.496 67.4887 50.1095ZM69.6787 68.5056C70.0377 68.5284 70.3976 68.4758 70.735 68.351C70.9154 68.1707 70.735 67.9646 70.9412 67.7842L71.1215 67.5523C71.1215 67.2947 70.5805 66.9597 70.2713 67.1659C69.9621 67.372 69.9363 67.1659 69.7302 67.4235C69.5241 67.6812 69.7302 67.6812 69.5756 67.913C69.421 68.1449 69.3695 68.0934 69.3695 68.1965C69.3695 68.2995 69.5241 68.4541 69.6787 68.5056ZM76.7898 72.525H76.2745L76.4033 72.8341C76.4033 72.8341 76.4033 72.9887 76.5321 72.9887C76.661 72.9887 77.3824 72.628 76.7898 72.525ZM52.4162 47.0177C52.4749 47.4808 52.4128 47.9513 52.2358 48.3832C51.9199 48.9203 51.6443 49.4801 51.4114 50.058L51.2825 49.9291C51.092 50.4001 51.092 50.9267 51.2825 51.3977C51.4996 51.088 51.673 50.7499 51.7978 50.3929C52.2208 49.7066 52.5582 48.9711 52.8027 48.2029C52.8796 47.8724 52.8796 47.5286 52.8027 47.1981C52.8027 47.1981 52.5193 47.0692 52.4162 47.0177ZM76.7383 72.4219V71.8293C76.4291 72.0612 76.326 72.2415 76.7383 72.4219ZM82.9476 38.2319C83.231 38.1031 83.2825 38 83.4887 37.9227C83.6948 37.8454 84.2616 37.9227 84.107 37.5878L83.9267 37.4589V37.6135C83.7472 37.4331 83.5381 37.2849 83.3083 37.1755C82.8977 37.1238 82.4822 37.1238 82.0716 37.1755L82.5869 37.5362L82.9476 38.2319ZM81.7624 40.1642C81.9428 39.9839 81.9685 39.7262 82.0974 39.4944C82.2262 39.2625 82.7415 38.8502 82.793 38.3092H82.3035C82.3035 38.5153 82.3035 38.8502 81.9943 38.9275C81.8838 38.9497 81.7699 38.9497 81.6594 38.9275L81.4532 39.5459C81.3328 39.7886 81.2544 40.0499 81.2214 40.3188C81.1956 40.4219 81.5563 40.3961 81.7624 40.1642Z" fill="white"/>
</g>
<defs>
<clipPath id="clip0_2728_20857">
<rect width="144" height="122.048" fill="white" transform="translate(0.5 0.97583)"/>
</clipPath>
</defs>
</svg>
