<svg width="48" height="45" viewBox="0 0 48 45" fill="none" xmlns="http://www.w3.org/2000/svg">
<path fill-rule="evenodd" clip-rule="evenodd" d="M8.13464 16.9231C8.13464 12.3817 9.04752 9.39778 10.915 7.53033C12.7824 5.66288 15.7663 4.75 20.3077 4.75H29.5385C29.9527 4.75 30.2885 4.41421 30.2885 4C30.2885 3.58579 29.9527 3.25 29.5385 3.25H20.3077C15.6184 3.25 12.1407 4.18328 9.85431 6.46967C7.56792 8.75606 6.63464 12.2337 6.63464 16.9231V18.7692H8.13464V16.9231ZM8.77776 33.5385H7.22512C7.73214 35.5465 8.58457 37.1837 9.85431 38.4534C12.1407 40.7398 15.6184 41.6731 20.3077 41.6731H31.3846C36.074 41.6731 39.5517 40.7398 41.8381 38.4534C44.1244 36.167 45.0577 32.6894 45.0577 28V18.7692C45.0577 18.355 44.7219 18.0192 44.3077 18.0192C43.8935 18.0192 43.5577 18.355 43.5577 18.7692V28C43.5577 32.5414 42.6448 35.5253 40.7774 37.3927C38.9099 39.2602 35.9261 40.1731 31.3846 40.1731H20.3077C15.7663 40.1731 12.7824 39.2602 10.915 37.3927C9.94917 36.4269 9.23868 35.1625 8.77776 33.5385Z" fill="#171717"/>
<path d="M44.3077 18.7692H36.9231C31.3846 18.7692 29.5385 16.9231 29.5385 11.3846V4L44.3077 18.7692Z" stroke="#171717" stroke-width="1.5" stroke-linecap="round" stroke-linejoin="round"/>
<path d="M28.4918 22.8599C27.6352 22.8599 26.9804 23.1799 26.5275 23.8199C26.0746 24.4599 25.8481 25.3363 25.8481 26.4489C25.8481 27.5713 26.0549 28.4427 26.4684 29.063C26.8918 29.6735 27.5663 29.9787 28.4918 29.9787C28.9251 29.9787 29.3534 29.9295 29.7767 29.831C30.21 29.7326 30.6777 29.5947 31.1798 29.4175V31.2932C30.7171 31.4803 30.2592 31.6181 29.8063 31.7067C29.3534 31.7953 28.8463 31.8396 28.2851 31.8396C27.202 31.8396 26.306 31.6181 25.5971 31.175C24.898 30.7221 24.3811 30.0919 24.0463 29.2846C23.7115 28.4673 23.5441 27.5172 23.5441 26.4341C23.5441 25.3707 23.7361 24.4304 24.1201 23.6132C24.5041 22.7959 25.0604 22.1559 25.7891 21.6932C26.5275 21.2304 27.4284 20.999 28.4918 20.999C29.0137 20.999 29.5355 21.0679 30.0574 21.2058C30.5891 21.3338 31.0961 21.511 31.5786 21.7375L30.8549 23.5541C30.4611 23.367 30.0623 23.2046 29.6586 23.0667C29.2647 22.9289 28.8758 22.8599 28.4918 22.8599Z" fill="#1551B4"/>
<path d="M21.8324 26.4047C21.8324 27.4976 21.6502 28.4527 21.2859 29.2699C20.9315 30.0773 20.385 30.7075 19.6465 31.1604C18.9081 31.6133 17.9628 31.8398 16.8108 31.8398C15.6687 31.8398 14.7235 31.6133 13.9752 31.1604C13.2367 30.7075 12.6853 30.0724 12.321 29.2551C11.9665 28.4379 11.7893 27.4828 11.7893 26.3899C11.7893 25.297 11.9665 24.3468 12.321 23.5395C12.6853 22.7321 13.2367 22.1068 13.9752 21.6638C14.7235 21.2108 15.6736 20.9844 16.8256 20.9844C17.9678 20.9844 18.9081 21.2108 19.6465 21.6638C20.385 22.1068 20.9315 22.737 21.2859 23.5542C21.6502 24.3616 21.8324 25.3118 21.8324 26.4047ZM14.1376 26.4047C14.1376 27.5075 14.3493 28.3788 14.7727 29.0188C15.1961 29.649 15.8755 29.9641 16.8108 29.9641C17.7659 29.9641 18.4502 29.649 18.8638 29.0188C19.2773 28.3788 19.4841 27.5075 19.4841 26.4047C19.4841 25.2921 19.2773 24.4207 18.8638 23.7905C18.4502 23.1604 17.7708 22.8453 16.8256 22.8453C15.8804 22.8453 15.1961 23.1604 14.7727 23.7905C14.3493 24.4207 14.1376 25.2921 14.1376 26.4047Z" fill="#1551B4"/>
<path d="M10.0726 26.3162C10.0726 28.0984 9.56553 29.4424 8.55138 30.3482C7.54707 31.2442 6.13415 31.6922 4.31261 31.6922H1.32922V21.147H4.63753C5.7403 21.147 6.69538 21.3439 7.50276 21.7377C8.31999 22.1316 8.95015 22.7125 9.39322 23.4805C9.84615 24.2387 10.0726 25.1839 10.0726 26.3162ZM7.75384 26.3753C7.75384 25.2036 7.49784 24.347 6.98584 23.8054C6.47384 23.254 5.73045 22.9784 4.75569 22.9784H3.55938V29.846H4.51938C6.67569 29.846 7.75384 28.6891 7.75384 26.3753Z" fill="#1551B4"/>
</svg>
