<svg width="36" height="36" viewBox="0 0 36 36" fill="none" xmlns="http://www.w3.org/2000/svg">
<path d="M35.6414 10.8002C35.6414 10.8002 35.2898 8.31816 34.207 7.22832C32.8359 5.79395 31.3031 5.78691 30.6 5.70254C25.5656 5.33691 18.007 5.33691 18.007 5.33691H17.993C17.993 5.33691 10.4344 5.33691 5.4 5.70254C4.69688 5.78691 3.16406 5.79395 1.79297 7.22832C0.710156 8.31816 0.365625 10.8002 0.365625 10.8002C0.365625 10.8002 0 13.7182 0 16.6291V19.3572C0 22.2682 0.358594 25.1861 0.358594 25.1861C0.358594 25.1861 0.710156 27.6682 1.78594 28.758C3.15703 30.1924 4.95703 30.1432 5.75859 30.2979C8.64141 30.5721 18 30.6564 18 30.6564C18 30.6564 25.5656 30.6424 30.6 30.2838C31.3031 30.1994 32.8359 30.1924 34.207 28.758C35.2898 27.6682 35.6414 25.1861 35.6414 25.1861C35.6414 25.1861 36 22.2752 36 19.3572V16.6291C36 13.7182 35.6414 10.8002 35.6414 10.8002ZM14.2805 22.6689V12.551L24.0047 17.6275L14.2805 22.6689Z" fill="black"/>
</svg>
