<svg width="25" height="25" viewBox="0 0 25 25" fill="none" xmlns="http://www.w3.org/2000/svg">
<path d="M12.5 2.5C6.99 2.5 2.5 6.99 2.5 12.5C2.5 18.01 6.99 22.5 12.5 22.5C18.01 22.5 22.5 18.01 22.5 12.5C22.5 6.99 18.01 2.5 12.5 2.5ZM11.75 8.5C11.75 8.09 12.09 7.75 12.5 7.75C12.91 7.75 13.25 8.09 13.25 8.5V13.5C13.25 13.91 12.91 14.25 12.5 14.25C12.09 14.25 11.75 13.91 11.75 13.5V8.5ZM13.42 16.88C13.37 17.01 13.3 17.11 13.21 17.21C13.11 17.3 13 17.37 12.88 17.42C12.76 17.47 12.63 17.5 12.5 17.5C12.37 17.5 12.24 17.47 12.12 17.42C12 17.37 11.89 17.3 11.79 17.21C11.7 17.11 11.63 17.01 11.58 16.88C11.53 16.76 11.5 16.63 11.5 16.5C11.5 16.37 11.53 16.24 11.58 16.12C11.63 16 11.7 15.89 11.79 15.79C11.89 15.7 12 15.63 12.12 15.58C12.36 15.48 12.64 15.48 12.88 15.58C13 15.63 13.11 15.7 13.21 15.79C13.3 15.89 13.37 16 13.42 16.12C13.47 16.24 13.5 16.37 13.5 16.5C13.5 16.63 13.47 16.76 13.42 16.88Z" fill="#3483A5"/>
</svg>
