<svg width="48" height="45" viewBox="0 0 48 45" fill="none" xmlns="http://www.w3.org/2000/svg">
<path fill-rule="evenodd" clip-rule="evenodd" d="M8.13464 16.6155C8.13464 12.074 9.04752 9.09017 10.915 7.22271C12.7824 5.35526 15.7663 4.44238 20.3077 4.44238H29.5385C29.9527 4.44238 30.2885 4.1066 30.2885 3.69238C30.2885 3.27817 29.9527 2.94238 29.5385 2.94238H20.3077C15.6184 2.94238 12.1407 3.87566 9.85431 6.16205C7.56792 8.44844 6.63464 11.9261 6.63464 16.6155V18.4616H8.13464V16.6155ZM8.77776 33.2308H7.22512C7.73214 35.2389 8.58457 36.876 9.85431 38.1458C12.1407 40.4322 15.6184 41.3655 20.3077 41.3655H31.3846C36.074 41.3655 39.5517 40.4322 41.8381 38.1458C44.1244 35.8594 45.0577 32.3817 45.0577 27.6924V18.4616C45.0577 18.0474 44.7219 17.7116 44.3077 17.7116C43.8935 17.7116 43.5577 18.0474 43.5577 18.4616V27.6924C43.5577 32.2338 42.6448 35.2177 40.7774 37.0851C38.9099 38.9526 35.9261 39.8655 31.3846 39.8655H20.3077C15.7663 39.8655 12.7824 38.9526 10.915 37.0851C9.94917 36.1193 9.23868 34.8549 8.77776 33.2308Z" fill="#171717"/>
<path d="M44.3077 18.4616H36.9231C31.3846 18.4616 29.5385 16.6155 29.5385 11.077V3.69238L44.3077 18.4616Z" stroke="#171717" stroke-width="1.5" stroke-linecap="round" stroke-linejoin="round"/>
<path d="M23.7366 31.3846H21.5359V20.8394H27.5766V22.6707H23.7366V25.3883H27.3107V27.2197H23.7366V31.3846Z" fill="#FA0F00"/>
<path d="M19.3467 26.0086C19.3467 27.7907 18.8396 29.1347 17.8254 30.0406C16.8211 30.9366 15.4082 31.3846 13.5867 31.3846H10.6033V20.8394H13.9116C15.0143 20.8394 15.9694 21.0363 16.7768 21.4301C17.594 21.824 18.2242 22.4049 18.6673 23.1729C19.1202 23.931 19.3467 24.8763 19.3467 26.0086ZM17.0279 26.0677C17.0279 24.896 16.7719 24.0394 16.2599 23.4978C15.7479 22.9464 15.0045 22.6707 14.0297 22.6707H12.8334V29.5384H13.7934C15.9497 29.5384 17.0279 28.3815 17.0279 26.0677Z" fill="#FA0F00"/>
<path d="M4.69661 20.8394C6.05538 20.8394 7.04492 21.1347 7.66522 21.7255C8.29538 22.3064 8.61045 23.1089 8.61045 24.1329C8.61045 24.7434 8.48245 25.3194 8.22645 25.8609C7.97045 26.3926 7.54215 26.8209 6.94153 27.1458C6.35076 27.4707 5.54338 27.6332 4.51938 27.6332H3.55938V31.3846H1.32922V20.8394H4.69661ZM4.57845 22.6707H3.55938V25.8018H4.29784C4.92799 25.8018 5.42522 25.6787 5.78953 25.4326C6.16368 25.1766 6.35076 24.768 6.35076 24.2067C6.35076 23.1827 5.75999 22.6707 4.57845 22.6707Z" fill="#FA0F00"/>
</svg>
