<svg width="24" height="25" viewBox="0 0 24 25" fill="none" xmlns="http://www.w3.org/2000/svg">
<path d="M12.3734 23.2551C11.1021 23.2551 10.0789 22.2319 10.0479 20.9917C9.95485 16.8057 7.19527 14.0461 3.00934 13.953C1.73806 13.922 0.714797 12.8677 0.745804 11.5654C0.776811 10.2942 1.80004 9.302 3.07132 9.302C3.10233 9.302 3.10239 9.302 3.1334 9.302C9.79988 9.45704 14.5749 14.201 14.6989 20.8675C14.7299 22.1388 13.7067 23.2241 12.4355 23.2551C12.4355 23.2551 12.4044 23.2551 12.3734 23.2551Z" fill="white"/>
<path d="M21.6754 23.2552C20.4042 23.2552 19.3499 22.232 19.3499 20.9607C19.3189 18.9142 18.9778 16.9608 18.3577 15.1314C16.7763 10.6044 13.3966 7.25564 8.86958 5.64328C7.04017 4.99213 5.08672 4.65103 3.04026 4.65103C1.76898 4.65103 0.714777 3.59677 0.745784 2.29448C0.745784 1.0232 1.80002 0 3.0713 0H3.10234C5.67591 0.0310069 8.12541 0.465209 10.4199 1.27139C16.2802 3.34885 20.6522 7.72073 22.7297 13.581C23.5358 15.8755 23.97 18.3561 24.001 20.8986C24.032 22.2009 23.0087 23.2552 21.6754 23.2552C21.7064 23.2552 21.7064 23.2552 21.6754 23.2552Z" fill="white"/>
<path d="M3.10069 24.0605C1.3643 24.0605 0 22.6652 0 20.9598C0 19.2544 1.39531 17.8591 3.10069 17.8591C4.80607 17.8591 6.20138 19.2544 6.20138 20.9598C6.20138 22.6652 4.80607 24.0605 3.10069 24.0605Z" fill="white"/>
</svg>
