<svg width="280" height="107" viewBox="0 0 280 107" fill="none" xmlns="http://www.w3.org/2000/svg">
<path fill-rule="evenodd" clip-rule="evenodd" d="M43.26 47.5199V33.7799C43.26 33.6299 43.4 16.8799 58.44 16.1599L68.1 15.7299C74.69 14.8199 78.52 12.9399 80.89 7.92992V27.6399C80.89 27.6399 80.87 28.2199 80.65 29.1199C79.12 35.1899 73.27 37.6799 67.02 38.0099L58.59 38.4399C49.34 38.9299 46.19 42.6799 43.25 47.5399L43.26 47.5199ZM43.26 81.6799C43.26 81.5399 43.4 64.7699 58.44 64.0599L68.1 63.6299C74.69 62.7199 78.52 60.8499 80.89 55.8299V75.5399C80.89 75.5399 80.87 76.1199 80.65 77.0099C79.12 83.0799 73.27 85.5699 67.02 85.8999L58.59 86.3299C49.34 86.8199 46.19 90.5699 43.25 95.4199V81.6699L43.26 81.6799ZM39.75 74.2099C36.81 69.3499 33.66 65.5999 24.41 65.1199L15.98 64.6899C9.72 64.3599 3.87 61.8699 2.35 55.7999C2.13 54.9099 2.11 54.3299 2.11 54.3299V34.6199C4.48 39.6399 8.32 41.5199 14.9 42.4299L24.57 42.8599C39.61 43.5799 39.75 60.3399 39.75 60.4899V74.2299V74.2099ZM58.52 40.8499L67.41 40.3799C82.96 39.5199 83.27 27.6999 83.27 27.5999V0.549922L81.97 0.419922C81.96 0.489922 79.54 12.5099 68.41 13.0699L58.22 13.5499C49.62 13.9699 45.27 19.2599 43.13 24.3499C40.99 29.4099 40.97 34.3499 40.97 34.3799V53.3599C40.72 52.5299 40.45 51.7399 40.14 50.9999C37.99 45.9099 33.65 40.6299 25.05 40.1999L14.86 39.7299C8.17 39.3899 3.88 34.7999 1.84 28.9599C1.45 27.8199 1.29 27.0699 1.29 27.0699L0 27.1999V54.2499C0 54.2499 0.00999999 55.0199 0.29 56.1699C2.04 63.4699 8.65 66.6299 15.86 67.0299L24.75 67.4999C37.84 68.2299 40.78 82.7399 40.98 85.1499V106.56H42.3C42.3 105.09 44.94 89.4399 58.54 88.6899L67.43 88.2199C82.98 87.3599 83.29 75.5399 83.29 75.4399V48.3899L81.99 48.2699C81.98 48.3299 79.56 60.3599 68.43 60.9199L58.24 61.3899C49.63 61.8199 45.29 67.1099 43.15 72.1999C42.83 72.9599 42.55 73.7199 42.32 74.4599V58.6399C42.15 57.4799 45.89 40.8499 58.55 40.8499" fill="#009C48"/>
<path d="M111.91 47.5099V47.1399C111.91 45.1299 111.19 44.0699 109.82 44.0699C109.13 44.0699 108.52 44.3899 108.23 44.9399C107.89 45.5199 107.81 46.0499 107.81 47.4799V53.3599C107.81 54.7099 107.89 55.3999 108.1 55.9799C108.36 56.6699 109.05 57.1199 109.87 57.1199C111.27 57.1199 111.99 55.9799 111.99 53.6799C111.99 53.5999 111.99 53.4199 111.96 53.2299H114.71V53.8399C114.71 57.6499 113.04 59.6899 109.86 59.6899C108.09 59.6899 106.68 58.9999 105.91 57.7299C105.25 56.6399 105.06 55.6099 105.06 52.9899V48.0399C105.06 45.2599 105.27 44.2499 106.09 43.1399C106.86 42.0799 108.21 41.4999 109.82 41.4999C112.84 41.4999 114.61 43.5099 114.61 46.9799V47.5099H111.88" fill="#009C48"/>
<path d="M119.91 55.0299C119.91 56.6999 120.39 57.4399 121.47 57.4399C122.55 57.4399 123.06 56.6999 123.06 55.0299V50.6599C123.06 48.9899 122.58 48.2499 121.5 48.2499C120.42 48.2499 119.91 48.9899 119.91 50.6599V55.0299ZM125.52 54.8799C125.52 56.9499 125.28 57.8499 124.49 58.6099C123.77 59.3199 122.74 59.6999 121.5 59.6999C120.26 59.6999 119.2 59.3299 118.48 58.6099C117.71 57.8399 117.45 56.9399 117.45 54.8799V50.8299C117.45 48.7599 117.71 47.8599 118.48 47.0699C119.2 46.3799 120.23 46.0099 121.5 46.0099C122.77 46.0099 123.78 46.3799 124.49 47.0699C125.28 47.8699 125.52 48.7699 125.52 50.8299V54.8799Z" fill="#009C48"/>
<path d="M131.16 47.9598C132.3 46.6398 133.28 46.0798 134.44 46.0798C135.9 46.0798 136.58 47.0598 136.58 49.1498V59.4198H134.12V49.7798C134.12 48.6198 133.88 48.2498 133.17 48.2498C132.51 48.2498 131.77 48.7298 131.16 49.5698V59.4198H128.7V46.2598H131.16V47.9498" fill="#009C48"/>
<path d="M142.57 59.4299L139.34 46.2699H141.96L143.84 54.6399L145.51 46.2699H148.1L145.16 59.4299H142.56" fill="#009C48"/>
<path d="M156.19 50.3699C156.19 48.8099 155.71 48.1699 154.57 48.1699C153.43 48.1699 152.95 48.8299 152.95 50.3699V51.0899H156.18V50.3699H156.19ZM152.96 53.2599V54.4199C152.96 55.6899 153.04 56.2699 153.28 56.7199C153.52 57.1699 154.02 57.4399 154.63 57.4399C155.72 57.4399 156.22 56.7499 156.22 55.2199V54.8799H158.68C158.65 56.6799 158.57 57.2599 158.18 57.9299C157.54 59.0699 156.27 59.6999 154.63 59.6999C153.12 59.6999 151.98 59.2199 151.32 58.3199C150.74 57.4999 150.5 56.5199 150.5 54.7499V50.8299C150.5 48.7399 150.74 47.8599 151.56 47.0999C152.27 46.3899 153.31 46.0099 154.55 46.0099C155.87 46.0099 156.96 46.4299 157.65 47.2299C158.39 48.0799 158.66 49.0299 158.66 51.0999V53.2699H152.97" fill="#009C48"/>
<path d="M164.08 47.9598C165.22 46.6398 166.2 46.0798 167.36 46.0798C168.82 46.0798 169.5 47.0598 169.5 49.1498V59.4198H167.04V49.7798C167.04 48.6198 166.8 48.2498 166.09 48.2498C165.43 48.2498 164.69 48.7298 164.08 49.5698V59.4198H161.62V46.2598H164.08V47.9498" fill="#009C48"/>
<path d="M178.54 48.4699H176.29V55.4899C176.29 56.8099 176.74 57.3699 177.82 57.3699C178.11 57.3699 178.35 57.3199 178.77 57.2099V59.4299C178.08 59.5599 177.66 59.6199 177.1 59.6199C175.86 59.6199 174.96 59.2999 174.42 58.6399C173.95 58.0599 173.81 57.4199 173.81 55.7499V48.4699H171.9V46.2699H173.81V42.6699H176.27V46.2699H178.52V48.4699" fill="#009C48"/>
<path d="M181.18 46.2699H183.64V59.4299H181.18V46.2699ZM181.18 41.7699H183.64V44.3399H181.18V41.7699Z" fill="#009C48"/>
<path d="M189.1 55.0299C189.1 56.6999 189.58 57.4399 190.66 57.4399C191.74 57.4399 192.25 56.6999 192.25 55.0299V50.6599C192.25 48.9899 191.77 48.2499 190.69 48.2499C189.61 48.2499 189.1 48.9899 189.1 50.6599V55.0299ZM194.72 54.8799C194.72 56.9499 194.48 57.8499 193.69 58.6099C192.97 59.3199 191.94 59.6999 190.7 59.6999C189.46 59.6999 188.4 59.3299 187.68 58.6099C186.91 57.8399 186.65 56.9399 186.65 54.8799V50.8299C186.65 48.7599 186.91 47.8599 187.68 47.0699C188.4 46.3799 189.43 46.0099 190.7 46.0099C191.97 46.0099 192.98 46.3799 193.69 47.0699C194.48 47.8699 194.72 48.7699 194.72 50.8299V54.8799Z" fill="#009C48"/>
<path d="M200.28 47.9598C201.42 46.6398 202.4 46.0798 203.56 46.0798C205.02 46.0798 205.71 47.0598 205.71 49.1498V59.4198H203.25V49.7798C203.25 48.6198 203.01 48.2498 202.3 48.2498C201.64 48.2498 200.9 48.7298 200.29 49.5698V59.4198H197.83V46.2598H200.29V47.9498" fill="#009C48"/>
<path d="M217.09 55.0299C217.09 56.6999 217.57 57.4399 218.65 57.4399C219.73 57.4399 220.24 56.6999 220.24 55.0299V50.6599C220.24 48.9899 219.76 48.2499 218.68 48.2499C217.6 48.2499 217.09 48.9899 217.09 50.6599V55.0299ZM222.71 54.8799C222.71 56.9499 222.47 57.8499 221.68 58.6099C220.96 59.3199 219.93 59.6999 218.69 59.6999C217.45 59.6999 216.39 59.3299 215.67 58.6099C214.9 57.8399 214.64 56.9399 214.64 54.8799V50.8299C214.64 48.7599 214.9 47.8599 215.67 47.0699C216.39 46.3799 217.42 46.0099 218.69 46.0099C219.96 46.0099 220.97 46.3799 221.68 47.0699C222.47 47.8699 222.71 48.7699 222.71 50.8299V54.8799Z" fill="#009C48"/>
<path d="M227.85 47.9598C228.99 46.6398 229.97 46.0798 231.13 46.0798C232.59 46.0798 233.27 47.0598 233.27 49.1498V59.4198H230.81V49.7798C230.81 48.6198 230.57 48.2498 229.86 48.2498C229.2 48.2498 228.46 48.7298 227.85 49.5698V59.4198H225.39V46.2598H227.85V47.9498" fill="#009C48"/>
<path d="M109.37 84.1098C111.09 84.1098 112.1 83.2098 112.1 81.6198C112.1 79.8498 110.88 78.6798 108.98 78.6798H108V84.1098H109.38H109.37ZM108.97 76.1598C110.64 76.1598 111.72 75.1798 111.72 73.6698C111.72 73.0098 111.48 72.4298 111.06 72.0298C110.61 71.6298 110.05 71.4698 109.02 71.4698H107.99V76.1598H108.97ZM105.27 68.9598H109.35C112.66 68.9598 114.51 70.5798 114.51 73.4398C114.51 75.5298 113.58 76.7798 111.6 77.3898C113.98 78.0798 114.94 79.2998 114.94 81.6298C114.94 84.7498 112.98 86.6298 109.7 86.6298H105.28V68.9698" fill="#009C48"/>
<path d="M117.92 73.4598H120.38V86.6198H117.92V73.4598ZM117.92 68.9598H120.38V71.5298H117.92V68.9598Z" fill="#009C48"/>
<path d="M125.87 82.2298C125.87 83.8998 126.35 84.6398 127.43 84.6398C128.51 84.6398 129.02 83.8998 129.02 82.2298V77.8598C129.02 76.1898 128.54 75.4498 127.46 75.4498C126.38 75.4498 125.87 76.1898 125.87 77.8598V82.2298ZM131.48 82.0698C131.48 84.1298 131.24 85.0298 130.45 85.7998C129.73 86.5098 128.7 86.8898 127.46 86.8898C126.22 86.8898 125.16 86.5198 124.44 85.7998C123.67 85.0298 123.41 84.1298 123.41 82.0698V78.0198C123.41 75.9498 123.67 75.0498 124.44 74.2598C125.15 73.5698 126.19 73.1998 127.46 73.1998C128.73 73.1998 129.74 73.5698 130.45 74.2598C131.24 75.0598 131.48 75.9598 131.48 78.0198V82.0698Z" fill="#009C48"/>
<path d="M134.47 68.9598H136.93V86.6198H134.47V68.9598Z" fill="#009C48"/>
<path d="M142.42 82.2298C142.42 83.8998 142.9 84.6398 143.98 84.6398C145.06 84.6398 145.57 83.8998 145.57 82.2298V77.8598C145.57 76.1898 145.09 75.4498 144.01 75.4498C142.93 75.4498 142.42 76.1898 142.42 77.8598V82.2298ZM148.03 82.0698C148.03 84.1298 147.79 85.0298 147 85.7998C146.29 86.5098 145.25 86.8898 144.01 86.8898C142.77 86.8898 141.71 86.5198 140.99 85.7998C140.22 85.0298 139.96 84.1298 139.96 82.0698V78.0198C139.96 75.9498 140.23 75.0498 140.99 74.2598C141.71 73.5698 142.74 73.1998 144.01 73.1998C145.28 73.1998 146.29 73.5698 147 74.2598C147.8 75.0598 148.03 75.9598 148.03 78.0198V82.0698Z" fill="#009C48"/>
<path d="M153.3 79.0499C153.3 80.4799 153.8 81.1899 154.78 81.1899C155.81 81.1899 156.29 80.4999 156.29 79.0499V77.5899C156.29 76.1399 155.81 75.4499 154.81 75.4499C153.81 75.4499 153.3 76.1599 153.3 77.5899V79.0499ZM153.51 87.0499C153.19 87.3099 152.93 87.7899 152.93 88.1599C152.93 88.9299 153.62 89.2499 155.37 89.2499C157.12 89.2499 157.89 88.8799 157.89 88.1099C157.89 87.6099 157.57 87.3399 156.86 87.2399C156.49 87.1599 156.25 87.1599 154.9 87.1099C154.56 87.0799 154.21 87.0599 153.6 86.9799C153.57 87.0099 153.57 87.0299 153.52 87.0599L153.51 87.0499ZM160.35 75.9499C160.06 75.6899 159.85 75.6099 159.5 75.6099C159.07 75.6099 158.84 75.7399 158.55 76.1099C158.74 76.7999 158.81 77.4099 158.81 78.3099C158.81 81.5899 157.41 83.3699 154.84 83.3699C154.55 83.3699 154.31 83.3399 153.89 83.2599C153.52 83.4499 153.31 83.7099 153.31 84.0299C153.31 84.3199 153.49 84.5099 153.84 84.6099C154.1 84.6599 154.37 84.6899 155.88 84.7699C157.55 84.8799 158.26 85.0299 158.98 85.4799C159.78 85.9799 160.23 86.9099 160.23 88.0199C160.23 90.2699 158.59 91.2999 154.99 91.2999C151.94 91.2999 150.44 90.5099 150.44 88.9199C150.44 87.8899 151.05 87.2499 152.51 86.7499C151.4 86.2999 150.97 85.8199 150.97 85.0299C150.97 84.0199 151.53 83.4999 153.01 82.9899C151.48 82.1699 150.81 80.7699 150.81 78.2999C150.81 75.0199 152.21 73.2699 154.86 73.2699C156.37 73.2699 157.24 73.7499 158.06 74.9399C158.4 73.7499 159.07 73.2699 160.36 73.3199V75.9399" fill="#009C48"/>
<path d="M162.44 73.4598H164.9V86.6198H162.44V73.4598ZM162.44 68.9598H164.9V71.5298H162.44V68.9598Z" fill="#009C48"/>
<path d="M173.64 78.0198V77.6698C173.64 76.1598 173.14 75.4498 172.05 75.4498C171.44 75.4498 170.94 75.7098 170.7 76.1598C170.46 76.6098 170.38 77.1898 170.38 78.4598V81.6398C170.38 82.8898 170.46 83.4698 170.7 83.9198C170.94 84.3698 171.44 84.6398 172.05 84.6398C173.14 84.6398 173.64 83.9198 173.64 82.3398V81.9698H176.1V82.4698C176.1 84.0298 175.84 84.9598 175.17 85.6798C174.45 86.4698 173.37 86.8998 172.04 86.8998C170.56 86.8998 169.39 86.4198 168.73 85.5198C168.12 84.6998 167.91 83.7698 167.91 81.9698V78.1598C167.91 76.3598 168.12 75.4098 168.73 74.5898C169.39 73.6898 170.56 73.2098 172.04 73.2098C173.39 73.2098 174.45 73.6098 175.17 74.3998C175.83 75.1098 176.1 76.0198 176.1 77.5498V78.0298H173.64" fill="#009C48"/>
<path d="M183.94 79.8399C181.77 80.9999 180.89 81.9299 180.89 83.1499C180.89 84.0199 181.42 84.6299 182.13 84.6299C182.84 84.6299 183.45 84.2099 183.93 83.4399V79.8399H183.94ZM184.15 86.6199C184.02 86.2499 183.94 85.7199 183.94 85.0799C182.75 86.3799 182.03 86.7999 180.97 86.7999C179.3 86.7999 178.29 85.4799 178.29 83.2999C178.29 81.6599 178.9 80.6199 180.44 79.6699C181.07 79.2699 181.74 78.9599 183.94 77.9999V77.3099C183.94 75.9599 183.57 75.4299 182.64 75.4299C181.71 75.4299 181.29 75.9899 181.18 77.3099H178.59C178.8 74.6899 180.34 73.2599 182.99 73.2599C184.21 73.2599 185.08 73.5999 185.69 74.2699C186.25 74.9299 186.4 75.5699 186.4 77.1799V83.0299C186.4 85.0199 186.45 85.6199 186.69 86.5999H184.15" fill="#009C48"/>
<path d="M189.69 68.9598H192.15V86.6198H189.69V68.9598Z" fill="#009C48"/>
<path d="M204.92 84.1098C206.85 84.1098 207.54 83.0998 207.54 80.3498V75.2398C207.54 72.4598 206.85 71.4798 204.92 71.4798H203.57V84.1098H204.92ZM200.84 68.9598H205.16C208.63 68.9598 210.27 70.7398 210.27 74.4898V81.0798C210.27 84.8398 208.63 86.6098 205.16 86.6098H200.84V68.9498" fill="#009C48"/>
<path d="M213.26 73.4598H215.72V86.6198H213.26V73.4598ZM213.26 68.9598H215.72V71.5298H213.26V68.9598Z" fill="#009C48"/>
<path d="M221.39 86.6198L218.16 73.4598H220.78L222.66 81.8298L224.33 73.4598H226.92L223.98 86.6198H221.39Z" fill="#009C48"/>
<path d="M234.71 77.5698C234.71 76.0098 234.23 75.3698 233.1 75.3698C231.97 75.3698 231.48 76.0298 231.48 77.5698V78.2798H234.71V77.5698ZM231.48 80.4498V81.6098C231.48 82.8798 231.56 83.4598 231.8 83.9098C232.04 84.3598 232.54 84.6298 233.15 84.6298C234.24 84.6298 234.74 83.9398 234.74 82.4098V82.0698H237.2C237.17 83.8698 237.09 84.4498 236.7 85.1098C236.06 86.2498 234.79 86.8898 233.15 86.8898C231.64 86.8898 230.5 86.4098 229.84 85.5098C229.26 84.6898 229.02 83.7098 229.02 81.9398V78.0198C229.02 75.9298 229.26 75.0498 230.08 74.2798C230.79 73.5698 231.83 73.1898 233.07 73.1898C234.39 73.1898 235.48 73.6098 236.17 74.4098C236.91 75.2598 237.18 76.2098 237.18 78.2798V80.4498H231.49" fill="#009C48"/>
<path d="M242.57 73.4599V75.7399C243.23 73.9899 244.18 73.2799 245.72 73.2799V76.1399C245.24 75.9499 244.92 75.8999 244.53 75.8999C243.87 75.8999 243.34 76.1399 242.99 76.5899C242.65 77.0399 242.57 77.4599 242.57 78.7099V86.6299H240.11V73.4699H242.57" fill="#009C48"/>
<path d="M252.82 77.3598C252.32 75.9798 251.73 75.4498 250.78 75.4498C250.01 75.4498 249.48 75.9298 249.48 76.6098C249.48 77.2898 249.85 77.6698 251.7 78.6998C253.18 79.5198 253.84 79.9698 254.37 80.4998C254.95 81.1098 255.3 82.0098 255.3 82.9898C255.3 85.3198 253.66 86.8798 251.25 86.8798C249 86.8798 247.6 85.7098 246.75 83.1698L249.05 82.3798C249.58 83.9998 250.21 84.6298 251.25 84.6298C252.07 84.6298 252.65 84.0698 252.65 83.3098C252.65 82.5498 252.23 82.0898 250.8 81.3198C248.95 80.2898 248.49 79.9698 247.91 79.3598C247.3 78.7198 246.96 77.8198 246.96 76.8698C246.96 74.7498 248.58 73.1898 250.8 73.1898C252.89 73.1898 254.24 74.2198 255.06 76.3698L252.81 77.3498" fill="#009C48"/>
<path d="M257.67 73.4598H260.13V86.6198H257.67V73.4598ZM257.67 68.9598H260.13V71.5298H257.67V68.9598Z" fill="#009C48"/>
<path d="M268.92 75.6599H266.67V82.6799C266.67 83.9999 267.12 84.5599 268.21 84.5599C268.5 84.5599 268.74 84.5099 269.16 84.3999V86.6199C268.47 86.7499 268.05 86.8099 267.49 86.8099C266.24 86.8099 265.34 86.4899 264.81 85.8299C264.33 85.2499 264.2 84.6099 264.2 82.9399V75.6599H262.29V73.4599H264.2V69.8599H266.66V73.4599H268.91V75.6599" fill="#009C48"/>
<path d="M279.3 73.4598L276.44 86.0698C275.54 90.3898 274.56 91.3098 270.85 91.3098V88.7698C271.01 88.7998 271.19 88.7998 271.25 88.7998C272.63 88.7998 273.53 87.9298 273.53 86.6298C273.53 86.3398 273.48 86.0198 273.34 85.4898L270.45 73.4698H273.04L274.97 82.4498L276.74 73.4698H279.28" fill="#009C48"/>
</svg>
