<svg width="145" height="144" viewBox="0 0 145 144" fill="none" xmlns="http://www.w3.org/2000/svg">
<path d="M104.829 59.1016C100.273 57.7249 96.9554 53.4932 96.9554 48.4893C96.9554 47.585 97.062 46.7062 97.2653 45.868L104.464 46.7925C104.464 46.7925 107.227 46.9145 107.126 51.8066C107.029 56.5514 104.829 59.1016 104.829 59.1016ZM111.266 59.1016C115.823 57.7249 119.14 53.4932 119.14 48.4893C119.14 47.585 119.033 46.7062 118.83 45.868L111.632 46.7925C111.632 46.7925 108.868 46.9145 108.97 51.8066C109.066 56.5514 111.266 59.1016 111.266 59.1016ZM108.045 40.5542C108.97 40.5542 109.722 41.306 109.722 42.2306C109.722 42.952 109.224 43.4905 108.624 43.8105C108.553 43.8512 108.482 43.8816 108.497 43.9985C108.513 44.1153 108.858 44.1814 109.005 44.2169L118.683 45.3396C117.326 40.7523 113.08 37.4045 108.05 37.4045H108.035C103.006 37.4045 98.7639 40.7523 97.4024 45.3396L107.08 44.2169C107.227 44.1814 107.573 44.1204 107.588 43.9985C107.603 43.8867 107.532 43.8512 107.461 43.8105C106.862 43.4905 106.364 42.952 106.364 42.2306C106.369 41.306 107.121 40.5542 108.045 40.5542ZM112.47 66.9503L113.125 66.5388C113.125 66.5388 110.016 62.3223 103.057 62.3223C99.4954 62.3223 97.6513 63.7549 95.157 63.7549C95.157 63.7549 94.1359 63.8768 93.1504 63.2622C93.1504 63.2622 94.3391 64.9792 98.6369 64.9792C101.787 64.9792 104.042 63.1352 106.252 63.1352C109.275 63.1453 111.525 65.8428 112.47 66.9503Z" fill="white"/>
<path d="M102.808 66.9504L102.152 66.539C102.152 66.539 105.261 62.3225 112.221 62.3225C115.782 62.3225 117.626 63.7551 120.121 63.7551C120.121 63.7551 121.142 63.877 122.127 63.2623C122.127 63.2623 120.939 64.9794 116.641 64.9794C113.491 64.9794 111.236 63.1353 109.026 63.1353C106.003 63.1455 103.748 65.843 102.808 66.9504ZM99.4905 61.9567C99.3685 62.2819 98.0376 61.8958 97.1384 62.1599C96.1325 62.4597 90.8137 63.0997 88.4819 57.5777C88.4819 57.5777 90.6918 59.9501 92.4139 60.1177C94.131 60.2803 96.0157 60.6918 97.6108 61.591L97.9817 61.6722C97.9817 61.6722 97.9309 61.5097 97.7785 61.4284C97.5702 61.3166 95.9141 60.7782 95.1165 58.1518C94.705 56.8004 94.7914 55.82 94.6238 55.124C94.6238 55.124 96.4272 57.1307 97.1638 58.4007C97.8953 59.6656 97.9766 61.0982 99.4905 61.9567Z" fill="white"/>
<path d="M94.0702 59.1727C93.9381 59.3048 93.5977 59.0915 93.4758 59.0305C93.3539 58.9695 92.47 58.5631 90.9561 58.0297C89.4626 57.4963 86.6787 55.1442 86.9428 51.1106C86.9428 51.1106 87.334 52.6245 88.477 53.6304C89.6251 54.6311 90.0315 54.7581 90.7275 55.576C91.4235 56.3939 92.9983 58.2583 93.0592 58.238C93.1202 58.2177 93.1405 58.1161 93.0186 58.0145C92.8967 57.9129 92.4852 56.8867 92.221 56.5413C91.9569 56.1958 91.1593 53.798 92.3226 50.8516C92.3226 50.8516 93.5723 53.0004 93.4911 55.1696C93.4098 57.3388 93.3082 56.8257 93.8365 58.6292C93.8467 58.619 94.1311 59.1118 94.0702 59.1727Z" fill="white"/>
<path d="M90.5903 53.915C90.514 53.9912 90.1991 53.5238 89.9552 53.0971C89.7114 52.6653 87.9893 50.8263 87.7657 50.4554C87.5422 50.0846 85.6169 47.7528 87.0698 44.2933C87.0698 44.2933 87.212 44.2527 87.212 45.0706C87.212 45.8884 87.9689 47.7122 88.5836 48.4894C89.1983 49.2667 89.752 50.5164 89.874 51.8474C89.874 51.8474 89.9552 52.0912 90.0568 52.1115C90.1584 52.1319 90.1584 51.8677 90.1584 51.8677C90.1584 51.8677 90.0772 50.6383 90.0772 49.8001C90.0772 48.9619 90.448 47.5293 91.2456 46.7114C91.2456 46.7114 91.6164 46.2999 91.84 45.8122C91.84 45.8122 91.9822 45.4871 92.1854 45.3195C92.1854 45.3195 92.348 47.6716 91.5504 49.8611C90.7528 52.0506 90.4887 52.4214 90.6106 53.6051C90.6106 53.6051 90.6309 53.8743 90.5903 53.915Z" fill="white"/>
<path d="M89.2387 47.448C89.1574 47.448 89.0964 47.1635 89.0558 46.9349C89.0152 46.7114 88.7713 45.4007 88.6037 45.1111C88.4411 44.8267 87.8264 43.516 87.8061 41.9818C87.7858 40.4476 88.4817 38.3597 90.0363 36.7036C90.0363 36.7036 89.9753 37.1964 89.5638 38.2784C89.1523 39.3656 89.4012 40.3867 89.4419 40.5696C89.4825 40.7524 89.6248 42.0225 89.6248 42.6168C89.6248 43.0893 89.5028 44.7047 89.4012 45.0299C89.4012 45.0299 89.3606 45.2534 89.4419 45.2534C89.5232 45.2534 89.6044 45.0705 89.6044 45.0705C89.6044 45.0705 89.6857 43.8005 90.6255 42.6575C91.5654 41.5094 93.2672 40.8134 93.5314 40.3054C93.5314 40.3054 93.4094 42.1088 91.4231 44.212C89.6552 46.0916 90.1734 45.1315 89.5994 46.6657C89.5994 46.6657 89.3555 47.2397 89.3555 47.3616C89.3606 47.4886 89.2387 47.448 89.2387 47.448Z" fill="white"/>
<path d="M90.326 41.3875C90.326 41.3875 90.2854 41.1437 90.5902 40.5899C90.895 40.0362 90.5699 39.0557 90.9813 37.6232C91.3928 36.1906 92.1498 33.7369 95.0353 32.2637C95.0353 32.2637 94.7508 32.5278 94.6034 32.7361C94.4612 32.9393 93.6839 34.4125 93.4553 35.4387C93.2318 36.4598 92.2463 38.182 91.8805 38.5681C91.5097 38.9592 91.6773 38.9999 91.6773 38.9999C91.6773 38.9999 91.8602 38.9592 92.0482 38.6747C92.2311 38.3903 93.1759 37.3234 94.2174 37.0796C95.2588 36.8357 96.92 36.343 97.0216 36.2414C97.0216 36.2414 95.2181 38.0854 93.562 39.0253C91.9059 39.9651 91.718 39.6806 90.7375 40.9506C90.7324 40.9405 90.4073 41.3875 90.326 41.3875Z" fill="white"/>
<path d="M94.2935 35.9264C94.2935 35.9264 94.2935 35.7639 94.5983 35.4743C94.9031 35.1898 95.213 34.3262 95.7464 33.5286C96.2798 32.7311 97.4837 30.6432 100.618 30.1504C100.618 30.1504 99.6783 30.8464 99.531 31.0699C99.3888 31.2934 98.4693 32.5025 98.0578 32.914C97.6463 33.3254 96.483 34.184 96.0918 34.3669C96.0918 34.3669 95.8886 34.5294 95.9292 34.5904C95.9699 34.6513 96.1731 34.5294 96.1731 34.5294C96.1731 34.5294 97.2602 33.6912 98.5658 33.6506C99.8765 33.6099 101.248 33.6709 101.451 33.6912C101.451 33.6912 100.222 34.5294 97.2958 35.0628C94.3697 35.5962 94.9234 35.6166 94.4713 35.901C94.4763 35.9061 94.3747 35.9874 94.2935 35.9264Z" fill="white"/>
<path d="M99.5107 32.5278C99.5107 32.5278 99.5717 32.3652 100.044 32.223C100.517 32.0807 100.476 31.6286 101.909 30.8717C103.341 30.1148 104.835 29.7642 106.349 30.3992C106.349 30.3992 105.714 30.4805 105.612 30.5212C105.51 30.5618 104.423 30.8463 104.118 31.0139C103.814 31.1765 102.234 31.8725 101.599 31.9944C100.964 32.1163 101.274 32.1569 101.274 32.1569C101.274 32.1569 101.416 32.2179 101.538 32.2179C101.66 32.2179 103.072 32.0757 103.991 32.4008C104.911 32.7259 104.891 32.8529 105.261 32.9748C105.632 33.0968 106.059 33.178 106.12 33.3203C106.12 33.3203 105.2 33.4016 104.647 33.4016C104.093 33.4016 102.64 33.2593 101.944 32.9291C101.248 32.604 100.451 32.4567 100.186 32.5176C99.9222 32.5888 99.5971 32.5887 99.5107 32.5278Z" fill="white"/>
<path d="M105.328 31.8114C105.328 31.8114 105.389 31.7301 105.8 31.6488C106.212 31.5675 106.313 31.3237 107.273 31.1154C108.233 30.9071 109.727 30.7242 111.099 31.6691C111.099 31.6691 110.26 31.6488 110.078 31.6488C109.895 31.6488 108.299 31.9333 107.929 31.9333C107.558 31.9333 106.821 31.7707 106.72 31.8927C106.618 32.0146 107.395 32.1771 107.517 32.2178C107.639 32.2584 108.193 32.2991 108.889 32.9747C109.585 33.6504 110.078 34.0161 110.159 34.0619C110.159 34.0619 108.112 33.5894 107.598 33.3049C107.085 33.0204 106.206 32.1365 106.064 32.0755C105.917 32.0146 105.328 31.8114 105.328 31.8114Z" fill="white"/>
<path d="M110.052 32.6498C110.052 32.6498 111.342 32.6091 112.282 33.2035C113.222 33.7979 113.979 34.5751 114.06 35.0476C114.06 35.0476 113.527 34.5954 113.181 34.4938C112.831 34.3922 111.85 33.8385 111.647 33.7166C111.444 33.5947 110.26 32.8326 110.052 32.6498ZM116.112 62.1803C116.112 62.1803 116.295 61.9974 116.91 61.464C117.525 60.9306 117.687 60.1533 118.363 58.9443C119.038 57.7352 119.612 56.897 120.984 55.6676C120.984 55.6676 120.74 56.5871 120.72 56.8767C120.7 57.1612 120.476 58.7614 119.699 59.6809C118.922 60.6004 118.881 60.8087 117.982 61.3573C117.982 61.3573 117.631 61.6011 117.657 61.6824C117.677 61.7637 118.271 61.6621 118.271 61.6621C118.271 61.6621 118.927 61.4183 119.13 61.2913C119.333 61.1693 120.258 60.6969 120.623 60.5546C120.994 60.4124 121.299 60.2702 122.117 60.0212C122.935 59.7774 125.902 59.0205 127.07 57.1358C127.07 57.1358 126.725 58.2432 126.293 58.7512C125.861 59.2643 123.428 62.4749 120.049 62.414C120.049 62.414 118.718 62.3124 118.022 62.1904C117.326 62.0685 117.083 62.0685 116.981 62.0888C116.869 62.1193 116.214 62.2412 116.112 62.1803Z" fill="white"/>
<path d="M123.661 50.6992C123.661 50.6992 122.391 52.6855 122.107 55.5506C121.822 58.4158 122.31 57.5573 121.843 58.8273C121.843 58.8273 121.68 59.1524 121.741 59.1727C121.802 59.1931 122.046 59.0508 122.95 58.4971C123.849 57.9434 124.733 58.1059 126.654 56.2669C128.579 54.4229 128.965 50.7601 129.006 50.4553C129.006 50.4553 128.721 50.7398 128.574 51.2326C128.432 51.7253 128.122 52.1114 128.061 52.1724C128 52.2333 125.912 54.5245 125.668 54.7328C125.424 54.936 124.195 56.4295 123.931 56.8613C123.667 57.2931 122.889 58.0704 122.742 58.0094C122.742 58.0094 122.762 57.8265 122.823 57.6843C122.884 57.542 123.458 56.7648 123.702 55.8605C123.946 54.9614 124.007 54.4076 124.027 53.8336C124.053 53.2595 123.682 51.1513 123.661 50.6992Z" fill="white"/>
<path d="M125.384 53.4628C125.384 53.4628 125.257 53.1631 125.363 52.9498C125.424 52.8278 125.485 51.8423 125.12 51.0447C124.754 50.2471 123.951 48.0373 124.012 46.5641C124.073 45.0909 124.236 44.8877 124.236 44.8877C124.236 44.8877 124.647 46.0967 124.769 46.2999C124.891 46.5031 126.12 48.6723 126.019 49.8611C125.917 51.0498 125.856 51.4156 125.917 51.4359C125.978 51.4562 126.12 51.2936 126.141 51.1514C126.161 51.0092 126.364 50.1913 126.755 49.2261C127.146 48.2659 128.721 46.1374 129.067 44.7251C129.067 44.7251 129.58 47.1788 128.208 49.475C126.837 51.7661 126.694 51.253 126.12 52.2995C125.546 53.3409 125.465 53.4628 125.384 53.4628Z" fill="white"/>
<path d="M126.628 46.9755C126.527 46.9552 126.588 46.0153 126.344 45.7055C126.1 45.4007 123.992 42.9013 123.54 40.4069C123.54 40.4069 124.871 41.7582 125.094 41.9005C125.318 42.0427 126.222 42.9419 126.486 43.7242C126.75 44.5015 126.689 45.1568 126.791 45.1771C126.892 45.1974 126.892 44.3186 126.892 44.3186C126.892 44.3186 126.913 42.6015 127.055 41.7786C127.197 40.9607 127.568 39.589 127.405 38.8931C127.405 38.8931 128.203 40.1631 128.162 41.9614C128.122 43.7649 127.365 45.1975 127.263 45.4007C127.162 45.6039 126.872 46.4878 126.872 46.6707C126.872 46.8536 126.628 46.9755 126.628 46.9755Z" fill="white"/>
<path d="M124.134 34.1636C124.134 34.1636 126.897 35.7994 126.466 41.2858C126.466 41.2858 126.466 41.5297 126.303 41.2655C126.14 41.0014 125.546 40.2444 125.282 40.0768C125.018 39.9142 122.559 38.4207 121.518 36.1245C121.518 36.1245 121.68 36.0838 121.929 36.3074C122.173 36.5309 122.93 36.9221 123.057 36.983C123.179 37.044 124.037 37.2675 124.672 37.9635C125.307 38.6594 125.531 39.1725 125.714 39.5789C125.714 39.5789 125.897 39.7212 125.775 39.3148C125.653 38.9033 125.632 38.6391 125.302 38.126C124.977 37.613 124.688 36.6935 124.647 36.0584C124.606 35.4336 124.418 34.4938 124.134 34.1636Z" fill="white"/>
<path d="M123.662 36.0888C123.662 36.0888 123.723 35.718 123.459 35.21C123.194 34.6969 123.403 34.1279 122.559 32.7766C122.087 32.0197 120.451 31.4253 120.451 31.4253C120.451 31.4253 120.924 32.0806 121.228 32.4464C121.533 32.8172 121.64 33.0814 121.741 33.2643C121.843 33.4472 122.412 33.9958 122.62 34.3057C122.661 34.3667 122.742 34.5292 122.742 34.6308C122.742 34.7324 122.519 34.5699 122.458 34.5089C122.397 34.4479 121.396 33.691 120.761 33.5691C120.126 33.4472 118.917 33.3252 118.592 33.1576C118.592 33.1576 120.024 34.4479 121.579 34.834C123.133 35.2303 123.662 36.0888 123.662 36.0888Z" fill="white"/>
<path d="M120.43 32.7107C120.43 32.7107 118.998 30.7651 116.438 30.8057C116.438 30.8057 116.58 30.948 116.869 31.0089C117.154 31.0699 117.667 31.583 117.931 31.7455C118.2 31.9132 118.749 32.3247 120.43 32.7107ZM41.8772 30.0437V54.0877C41.8772 56.1909 41.5266 58.0451 40.8256 59.6555C40.1245 61.2659 39.1593 62.6121 37.9249 63.6942C36.6904 64.7762 35.2172 65.5941 33.5103 66.1478C31.7983 66.6965 29.939 66.9759 27.9171 66.9759C25.88 66.9759 24.0105 66.7016 22.2985 66.1478C20.5865 65.5992 19.1184 64.7813 17.8839 63.6942C16.6495 62.6121 15.6843 61.2608 14.9934 59.6555C14.3025 58.0451 13.957 56.1909 13.957 54.0877V30.0437H21.4654V54.0877C21.4654 56.4754 22.0344 58.2128 23.1774 59.305C24.3204 60.3972 25.9003 60.9458 27.9171 60.9458C29.9542 60.9458 31.5341 60.4023 32.6568 59.305C33.7846 58.2128 34.3434 56.4754 34.3434 54.0877V30.0437H41.8772ZM77.6562 66.473H70.1529L55.5426 42.5051V66.473H48.0342V30.0437H55.5375L70.1732 54.0623V30.0437H77.6562V66.473ZM19.3724 90.0039C17.7976 90.0039 16.5123 89.5111 15.5217 88.5256C14.5311 87.5401 14.0383 86.2243 14.0383 84.5835V84.299C14.0383 83.1966 14.2466 82.2161 14.6632 81.3475C15.0797 80.4788 15.669 79.8082 16.4361 79.3408C17.1981 78.8734 18.0719 78.6347 19.0524 78.6347C20.5205 78.6347 21.6788 79.1071 22.522 80.052C23.3653 80.9969 23.787 82.3381 23.787 84.0755V85.2693H16.9492C17.0406 85.9856 17.32 86.5596 17.7874 86.9914C18.2548 87.4232 18.8441 87.6417 19.5604 87.6417C20.6678 87.6417 21.5314 87.2353 22.1512 86.4174L23.5584 88.0278C23.1266 88.6475 22.5475 89.1352 21.8108 89.4807C21.0844 89.8312 20.2665 90.0039 19.3724 90.0039ZM19.0473 81.002C18.4783 81.002 18.016 81.2001 17.6604 81.5913C17.3048 81.9875 17.0813 82.5463 16.9797 83.283H20.9726V83.0493C20.9574 82.399 20.7847 81.8961 20.4545 81.5405C20.1243 81.1798 19.6569 81.002 19.0473 81.002ZM28.1863 78.843L28.2778 80.1079C29.0449 79.1275 30.0761 78.6398 31.3665 78.6398C32.5044 78.6398 33.3528 78.9801 33.9065 79.6609C34.4602 80.3416 34.7498 81.3627 34.76 82.7191V89.8007H31.8897V82.7902C31.8897 82.1704 31.7576 81.7183 31.4935 81.4389C31.2293 81.1595 30.7873 81.0172 30.1727 81.0172C29.3649 81.0172 28.7604 81.3678 28.354 82.0688V89.8007H25.4837V78.843H28.1863ZM41.0796 86.2294L43.0761 78.843H46.0733L42.4461 89.8058H39.708L36.0808 78.843H39.078L41.0796 86.2294ZM47.4399 76.0083C47.4399 75.5714 47.5821 75.2056 47.8717 74.9211C48.1612 74.6367 48.5524 74.4944 49.0502 74.4944C49.5379 74.4944 49.9291 74.6367 50.2237 74.9211C50.5133 75.2056 50.6606 75.5663 50.6606 76.0083C50.6606 76.4553 50.5133 76.816 50.2187 77.1005C49.924 77.385 49.5328 77.5272 49.0502 77.5272C48.5676 77.5272 48.1765 77.385 47.8818 77.1005C47.5872 76.816 47.4399 76.4502 47.4399 76.0083ZM50.4879 89.8058H47.6075V78.843H50.4879V89.8058ZM59.0123 81.5862C58.6211 81.5303 58.2757 81.5049 57.981 81.5049C56.8939 81.5049 56.1827 81.8809 55.8474 82.6276V89.8007H52.9771V78.843H55.6899L55.7712 80.1486C56.3452 79.1427 57.1428 78.6398 58.1639 78.6398C58.484 78.6398 58.7786 78.6855 59.058 78.7718L59.0123 81.5862ZM59.7133 84.2228C59.7133 83.1356 59.9165 82.1653 60.328 81.317C60.7395 80.4635 61.3288 79.8082 62.101 79.3408C62.8731 78.8734 63.7672 78.6398 64.7883 78.6398C66.2362 78.6398 67.4198 79.0919 68.3393 79.9961C69.2588 80.9004 69.7668 82.1298 69.8735 83.6843L69.8938 84.4361C69.8938 86.1176 69.4315 87.4689 68.512 88.485C67.5925 89.501 66.3581 90.009 64.8087 90.009C63.2592 90.009 62.0248 89.501 61.1002 88.49C60.1756 87.4791 59.7133 86.0973 59.7133 84.3549V84.2228ZM62.5836 84.4311C62.5836 85.4725 62.7766 86.27 63.1576 86.8187C63.5386 87.3673 64.0924 87.6467 64.8087 87.6467C65.5046 87.6467 66.0482 87.3724 66.4394 86.8289C66.8305 86.2853 67.0236 85.4115 67.0236 84.2177C67.0236 83.1966 66.8305 82.4041 66.4394 81.8453C66.0482 81.2865 65.4995 81.002 64.7883 81.002C64.0873 81.002 63.5437 81.2814 63.1576 81.8402C62.7766 82.3939 62.5836 83.2576 62.5836 84.4311ZM74.4253 78.843L74.5167 80.1079C75.2838 79.1275 76.315 78.6398 77.6054 78.6398C78.7433 78.6398 79.5917 78.9801 80.1454 79.6609C80.6992 80.3416 80.9887 81.3627 80.9989 82.7191V89.8007H78.1286V82.7902C78.1286 82.1704 77.9966 81.7183 77.7324 81.4389C77.4682 81.1595 77.0263 81.0172 76.4116 81.0172C75.6038 81.0172 74.9993 81.3678 74.5929 82.0688V89.8007H71.7226V78.843H74.4253ZM85.9875 78.843L86.079 80.0673C86.841 79.1122 87.8722 78.6398 89.1676 78.6398C90.5494 78.6398 91.4994 79.1986 92.0176 80.3111C92.7694 79.1986 93.8464 78.6398 95.2434 78.6398C96.4068 78.6398 97.2755 78.9852 97.8444 79.6761C98.4134 80.367 98.6979 81.4084 98.6979 82.8004V89.8007H95.8175V82.8105C95.8175 82.1907 95.7006 81.7335 95.4619 81.4491C95.2231 81.1595 94.8015 81.0172 94.202 81.0172C93.3435 81.0172 92.744 81.4338 92.4138 82.272L92.424 89.8007H89.5537V82.8207C89.5537 82.1857 89.4318 81.7285 89.188 81.444C88.9441 81.1595 88.5276 81.0172 87.9383 81.0172C87.1255 81.0172 86.5362 81.3627 86.1704 82.0485V89.8007H83.3002V78.843H85.9875ZM105.973 90.0039C104.398 90.0039 103.112 89.5111 102.122 88.5256C101.131 87.5401 100.638 86.2243 100.638 84.5835V84.299C100.638 83.1966 100.847 82.2161 101.263 81.3475C101.68 80.4788 102.269 79.8082 103.036 79.3408C103.798 78.8734 104.672 78.6347 105.653 78.6347C107.121 78.6347 108.279 79.1071 109.122 80.052C109.966 80.9969 110.387 82.3381 110.387 84.0755V85.2693H103.544C103.636 85.9856 103.915 86.5596 104.382 86.9914C104.85 87.4232 105.439 87.6417 106.155 87.6417C107.263 87.6417 108.127 87.2353 108.746 86.4174L110.153 88.0278C109.722 88.6475 109.143 89.1352 108.406 89.4807C107.685 89.8312 106.867 90.0039 105.973 90.0039ZM105.647 81.002C105.078 81.002 104.616 81.2001 104.261 81.5913C103.905 81.9875 103.681 82.5463 103.58 83.283H107.573V83.0493C107.558 82.399 107.385 81.8961 107.055 81.5405C106.724 81.1798 106.257 81.002 105.647 81.002ZM114.787 78.843L114.878 80.1079C115.645 79.1275 116.676 78.6398 117.967 78.6398C119.105 78.6398 119.953 78.9801 120.507 79.6609C121.06 80.3416 121.35 81.3627 121.36 82.7191V89.8007H118.49V82.7902C118.49 82.1704 118.358 81.7183 118.094 81.4389C117.829 81.1595 117.388 81.0172 116.773 81.0172C115.965 81.0172 115.361 81.3678 114.954 82.0688V89.8007H112.084V78.843H114.787ZM127.096 76.1454V78.843H128.935V80.9918H127.096V86.4631C127.096 86.8695 127.172 87.1591 127.324 87.3318C127.477 87.5096 127.766 87.5959 128.198 87.5959C128.513 87.5959 128.797 87.5705 129.041 87.5248V89.7448C128.477 89.9226 127.898 90.009 127.304 90.009C125.292 90.009 124.266 88.9726 124.225 86.9V80.9918H122.656V78.843H124.225V76.1454H127.096ZM24.102 104.142C24.102 105.828 23.726 107.185 22.9742 108.201C22.2223 109.217 21.2063 109.725 19.9312 109.725C18.8441 109.725 17.9652 109.339 17.2997 108.572V113.738H14.4295V98.5639H17.0914L17.193 99.6357C17.889 98.7823 18.7933 98.3606 19.916 98.3606C21.2419 98.3606 22.268 98.8636 23.0047 99.8593C23.7413 100.86 24.107 102.237 24.107 103.994V104.142H24.102ZM21.2317 103.928C21.2317 102.907 21.0539 102.12 20.6983 101.566C20.3427 101.012 19.8296 100.733 19.154 100.733C18.2548 100.733 17.635 101.084 17.2946 101.785V106.275C17.6452 106.997 18.27 107.357 19.1692 107.357C20.5459 107.363 21.2317 106.22 21.2317 103.928ZM32.0421 101.307C31.651 101.251 31.3055 101.226 31.0109 101.226C29.9237 101.226 29.2125 101.602 28.8772 102.349V109.522H26.0019V98.5588H28.7147L28.796 99.8643C29.37 98.8585 30.1676 98.3556 31.1887 98.3556C31.5087 98.3556 31.8034 98.4013 32.0828 98.4876L32.0421 101.307ZM32.7381 103.939C32.7381 102.851 32.9413 101.881 33.3528 101.033C33.7643 100.179 34.3536 99.524 35.1257 99.0566C35.8979 98.5892 36.792 98.3556 37.8131 98.3556C39.2609 98.3556 40.4446 98.8077 41.3641 99.7119C42.2836 100.616 42.7916 101.846 42.8983 103.4L42.9186 104.152C42.9186 105.833 42.4563 107.185 41.5368 108.201C40.6173 109.217 39.3828 109.725 37.8334 109.725C36.284 109.725 35.0495 109.217 34.125 108.206C33.2004 107.195 32.7381 105.813 32.7381 104.071V103.939ZM35.6083 104.147C35.6083 105.188 35.8014 105.986 36.1824 106.535C36.5685 107.088 37.1171 107.363 37.8334 107.363C38.5294 107.363 39.073 107.088 39.4641 106.545C39.8553 106.001 40.0483 105.127 40.0483 103.933C40.0483 102.912 39.8553 102.12 39.4641 101.561C39.073 101.002 38.5243 100.718 37.8131 100.718C37.112 100.718 36.5685 100.997 36.1824 101.556C35.8014 102.11 35.6083 102.978 35.6083 104.147ZM44.3918 103.959C44.3918 102.277 44.783 100.921 45.5653 99.8948C46.3527 98.8687 47.4094 98.3556 48.7404 98.3556C49.9189 98.3556 50.8333 98.767 51.4938 99.59L51.6106 98.5588H54.2116V109.156C54.2116 110.116 53.9982 110.949 53.5715 111.66C53.1448 112.372 52.5453 112.91 51.7681 113.281C50.9908 113.652 50.0866 113.84 49.0452 113.84C48.2577 113.84 47.4907 113.677 46.7388 113.357C45.992 113.037 45.4231 112.62 45.0421 112.118L46.3121 110.334C47.0284 111.152 47.892 111.559 48.9131 111.559C49.6751 111.559 50.2695 111.35 50.6911 110.934C51.1128 110.517 51.3261 109.928 51.3261 109.166V108.577C50.6657 109.339 49.7919 109.72 48.715 109.72C47.4246 109.72 46.3781 109.207 45.5805 108.175C44.783 107.144 44.3816 105.778 44.3816 104.076V103.959H44.3918ZM47.2621 104.177C47.2621 105.173 47.4551 105.95 47.8463 106.514C48.2374 107.078 48.7708 107.363 49.4566 107.363C50.3304 107.363 50.9553 107.027 51.3312 106.357V101.739C50.9451 101.068 50.3304 100.733 49.4719 100.733C48.7861 100.733 48.2425 101.023 47.8463 101.597C47.4602 102.176 47.2621 103.034 47.2621 104.177ZM62.5785 101.307C62.1873 101.251 61.8419 101.226 61.5472 101.226C60.4601 101.226 59.7489 101.602 59.4136 102.349V109.522H56.5434V98.5588H59.2561L59.3374 99.8643C59.9115 98.8585 60.709 98.3556 61.7301 98.3556C62.0502 98.3556 62.3448 98.4013 62.6242 98.4876L62.5785 101.307ZM70.0107 109.522C69.8786 109.257 69.7821 108.932 69.7211 108.541C69.0251 109.334 68.1209 109.725 67.0083 109.725C65.9568 109.725 65.083 109.415 64.3921 108.795C63.7012 108.175 63.3558 107.388 63.3558 106.443C63.3558 105.28 63.7774 104.391 64.6207 103.771C65.464 103.151 66.6832 102.836 68.2784 102.826H69.5992V102.196C69.5992 101.688 69.4722 101.282 69.2182 100.982C68.9642 100.677 68.5628 100.525 68.0091 100.525C67.5265 100.525 67.1455 100.642 66.8712 100.88C66.5968 101.114 66.4597 101.439 66.4597 101.851H63.5894C63.5894 101.216 63.7825 100.626 64.1635 100.088C64.5496 99.5443 65.0931 99.1227 65.7942 98.8178C66.4952 98.508 67.2827 98.3556 68.1564 98.3556C69.4823 98.3556 70.5339 98.6959 71.3112 99.3767C72.0884 100.057 72.4796 101.007 72.4796 102.237V106.987C72.4847 108.028 72.6269 108.815 72.9063 109.349V109.522H70.0107ZM67.6383 107.484C68.0599 107.484 68.4511 107.388 68.8118 107.195C69.1674 107.002 69.4315 106.743 69.6043 106.418V104.533H68.5324C67.0947 104.533 66.3327 105.041 66.2362 106.052L66.226 106.225C66.226 106.59 66.353 106.89 66.6019 107.124C66.8559 107.368 67.2014 107.484 67.6383 107.484ZM77.5038 98.5588L77.5952 99.7831C78.3572 98.828 79.3885 98.3556 80.6839 98.3556C82.0657 98.3556 83.0157 98.9144 83.5338 100.027C84.2857 98.9144 85.3627 98.3556 86.7597 98.3556C87.923 98.3556 88.7917 98.701 89.3607 99.3919C89.9297 100.083 90.2141 101.124 90.2141 102.516V109.517H87.3337V102.526C87.3337 101.907 87.2169 101.449 86.9781 101.165C86.7394 100.875 86.3177 100.733 85.7183 100.733C84.8597 100.733 84.2603 101.15 83.9301 101.988L83.9402 109.517H81.07V102.536C81.07 101.901 80.9481 101.444 80.7042 101.16C80.4604 100.875 80.0438 100.733 79.4545 100.733C78.6417 100.733 78.0524 101.078 77.6867 101.764V109.517H74.8164V98.5537H77.5038V98.5588ZM95.2333 98.5588L95.3247 99.7831C96.0867 98.828 97.118 98.3556 98.4134 98.3556C99.7952 98.3556 100.745 98.9144 101.263 100.027C102.015 98.9144 103.092 98.3556 104.489 98.3556C105.653 98.3556 106.521 98.701 107.09 99.3919C107.659 100.083 107.944 101.124 107.944 102.516V109.517H105.063V102.526C105.063 101.907 104.946 101.449 104.708 101.165C104.469 100.875 104.047 100.733 103.448 100.733C102.589 100.733 101.99 101.15 101.66 101.988L101.67 109.517H98.7995V102.536C98.7995 101.901 98.6776 101.444 98.4337 101.16C98.1899 100.875 97.7733 100.733 97.184 100.733C96.3712 100.733 95.7819 101.078 95.4161 101.764V109.517H92.5459V98.5537H95.2333V98.5588ZM115.218 109.725C113.643 109.725 112.358 109.232 111.368 108.246C110.377 107.261 109.884 105.945 109.884 104.304V104.02C109.884 102.917 110.093 101.937 110.509 101.068C110.926 100.2 111.515 99.5291 112.282 99.0617C113.044 98.5943 113.918 98.3556 114.898 98.3556C116.366 98.3556 117.525 98.828 118.368 99.7729C119.211 100.718 119.633 102.059 119.633 103.796V104.99H112.79C112.881 105.706 113.161 106.28 113.628 106.712C114.096 107.144 114.685 107.363 115.401 107.363C116.509 107.363 117.372 106.956 117.992 106.138L119.399 107.749C118.967 108.368 118.388 108.856 117.652 109.202C116.93 109.552 116.112 109.725 115.218 109.725ZM114.893 100.718C114.324 100.718 113.862 100.916 113.506 101.307C113.151 101.703 112.927 102.262 112.826 102.999H116.819V102.765C116.803 102.115 116.631 101.612 116.3 101.256C115.97 100.901 115.503 100.718 114.893 100.718Z" fill="white"/>
</svg>
