<?xml version="1.0" encoding="UTF-8"?><svg id="a" xmlns="http://www.w3.org/2000/svg" viewBox="0 0 88.85 113.23"><defs><style>.b{fill:#01a65d;fill-rule:evenodd;}</style></defs><path class="b" d="M62.45,43.13l9.48-.5c16.59-.92,16.92-13.53,16.92-13.64V.14l-1.39-.14c-.01.07-2.59,12.9-14.47,13.5l-10.87.51c-9.18.45-13.81,6.09-16.1,11.52-1.4,3.4-2.18,7.03-2.31,10.7v20.25c-.25-.86-.55-1.7-.89-2.52-2.29-5.43-6.93-11.06-16.1-11.52l-10.87-.51c-7.14-.36-11.71-5.26-13.89-11.49-.23-.66-.43-1.33-.58-2.01l-1.38.14v28.86c.03.69.14,1.38.31,2.05,1.86,7.79,8.92,11.16,16.61,11.59l9.48.5c13.97.78,17.11,16.26,17.32,18.83v22.84h1.41c0-1.57,2.82-18.26,17.33-19.07l9.48-.5c16.59-.92,16.92-13.52,16.92-13.63v-28.86l-1.39-.13c-.01.07-2.59,12.9-14.47,13.5l-10.87.5c-9.18.46-13.81,6.1-16.1,11.53-.34.81-.64,1.62-.89,2.41v-16.88c-.18-1.24,3.81-18.98,17.31-18.98M42.43,78.73c-3.14-5.18-6.5-9.18-16.36-9.7l-8.99-.46c-6.67-.35-12.92-3.01-14.54-9.48-.14-.51-.22-1.04-.26-1.57v-21.03c2.52,5.35,6.62,7.36,13.65,8.33l10.31.45c16.04.77,16.19,18.65,16.19,18.8v14.66ZM46.17,86.69c0-.15.15-18.03,16.19-18.8l10.31-.46c7.02-.97,11.12-2.97,13.65-8.32v21.03c-.04.53-.12,1.05-.25,1.57-1.63,6.47-7.87,9.14-14.54,9.49l-8.99.46c-9.87.52-13.22,4.52-16.36,9.7v-14.66ZM46.17,50.24v-14.66c0-.16.15-18.03,16.19-18.8l10.31-.46c7.02-.97,11.12-2.98,13.65-8.33v21.03c-.04.53-.12,1.06-.25,1.57-1.63,6.47-7.87,9.13-14.54,9.48l-8.99.46c-9.87.52-13.22,4.52-16.36,9.7"/></svg>